<svg width="82" height="78" viewBox="0 0 82 78" fill="none" xmlns="http://www.w3.org/2000/svg">
<g id="Group 4">
<path id="Vector" d="M73.9305 66.3674C65.7234 58.9212 81.9874 51.1504 81.9999 45.4931C82.0145 38.8474 74.2414 40.3098 67.3552 36.5824C62.9126 34.1786 67.4241 28.295 68.3109 24.8707C70.3768 16.91 68.8618 7.30115 61.4039 2.85431C49.9477 -3.97712 32.0644 1.85095 29.7377 16.0027C29.36 18.3083 29.0512 20.4346 29.0512 22.7679C29.0512 24.6679 29.6772 29.6506 27.3088 30.6198C25.5017 31.3649 16.1531 23.4489 9.49016 25.0308C0.452532 27.1742 -4.35321 39.4815 7.33248 49.5279C13.6177 54.9354 3.79965 61.056 6.98191 70.4342C9.16463 76.8686 13.8514 76.5206 22.7221 77.1803C33.064 77.9488 53.4284 78.7878 63.7389 76.5398C65.7818 76.1107 81.7495 73.47 73.9305 66.3674Z" fill="#FFEACF"/>
<path id="Vector_2" d="M39.7165 9.32703H17.4698C16.5329 9.32703 15.7733 10.1041 15.7733 11.0626V20.1057C15.7733 21.0643 16.5329 21.8414 17.4698 21.8414H39.7165C40.6534 21.8414 41.413 21.0643 41.413 20.1057V11.0626C41.413 10.1041 40.6534 9.32703 39.7165 9.32703Z" fill="white"/>
<path id="Vector_3" d="M39.7164 9.54049C40.111 9.54049 40.4894 9.70086 40.7685 9.98631C41.0475 10.2718 41.2043 10.6589 41.2043 11.0626V20.1036C41.2043 20.5075 41.0476 20.8949 40.7686 21.1807C40.4896 21.4664 40.1112 21.6273 39.7164 21.6279H17.4698C17.0746 21.6279 16.6957 21.4673 16.4162 21.1814C16.1368 20.8956 15.9798 20.5078 15.9798 20.1036V11.0626C15.9804 10.6587 16.1376 10.2716 16.417 9.98618C16.6963 9.70079 17.075 9.54049 17.4698 9.54049H39.7164ZM39.7164 9.11353H17.4698C16.9643 9.11353 16.4795 9.31881 16.1219 9.68427C15.7642 10.0497 15.5631 10.5455 15.5625 11.0626V20.1036C15.5631 20.6209 15.7642 21.1169 16.1217 21.4827C16.4793 21.8485 16.9641 22.0543 17.4698 22.0548H39.7164C40.2217 22.0537 40.706 21.8477 41.0631 21.4819C41.4202 21.1162 41.621 20.6205 41.6216 20.1036V11.0626C41.621 10.5459 41.4201 10.0504 41.063 9.68503C40.7058 9.31962 40.2215 9.11409 39.7164 9.11353Z" fill="#82C3FF"/>
<path id="Vector_4" d="M37.5859 14.3994H19.5962V15.1572H37.5859V14.3994Z" fill="#DEDDFF"/>
<path id="Vector_5" d="M37.5859 16.404H19.5962V17.1619H37.5859V16.404Z" fill="#DEDDFF"/>
<path id="Vector_6" d="M37.5859 18.4086H19.5962V19.1664H37.5859V18.4086Z" fill="#DEDDFF"/>
<path id="Vector_7" d="M41.2043 12.0767V11.0627C41.2043 10.659 41.0475 10.2718 40.7685 9.98635C40.4895 9.70089 40.111 9.54053 39.7164 9.54053H17.4698C17.075 9.54053 16.6963 9.70083 16.417 9.98622C16.1376 10.2716 15.9804 10.6588 15.9799 11.0627V12.0767H41.2043Z" fill="#82C3FF"/>
<path id="Vector_8" d="M18.7762 10.8086C18.7762 10.9395 18.7383 11.0674 18.6672 11.1763C18.5961 11.2851 18.4951 11.3699 18.3769 11.42C18.2587 11.4701 18.1286 11.4832 18.0031 11.4577C17.8776 11.4321 17.7624 11.3691 17.6719 11.2765C17.5814 11.184 17.5198 11.0661 17.4949 10.9377C17.4699 10.8093 17.4827 10.6763 17.5317 10.5553C17.5806 10.4344 17.6635 10.331 17.7699 10.2583C17.8763 10.1856 18.0014 10.1468 18.1293 10.1468C18.3009 10.1468 18.4654 10.2165 18.5867 10.3406C18.708 10.4647 18.7762 10.6331 18.7762 10.8086Z" fill="#FF0000"/>
<path id="Vector_9" d="M21.322 10.8086C21.322 10.9396 21.284 11.0676 21.2128 11.1765C21.1416 11.2854 21.0405 11.3702 20.9222 11.4202C20.8038 11.4702 20.6737 11.4832 20.5481 11.4575C20.4226 11.4318 20.3073 11.3686 20.2169 11.2758C20.1265 11.183 20.0651 11.0649 20.0404 10.9364C20.0157 10.8079 20.0288 10.6747 20.078 10.5538C20.1273 10.433 20.2106 10.3297 20.3172 10.2573C20.4239 10.1848 20.5491 10.1464 20.6772 10.1468C20.762 10.1468 20.846 10.1639 20.9244 10.1972C21.0028 10.2305 21.074 10.2793 21.1339 10.3408C21.1938 10.4022 21.2412 10.4752 21.2735 10.5555C21.3058 10.6358 21.3222 10.7218 21.322 10.8086Z" fill="#FBDA4C"/>
<path id="Vector_10" d="M23.8698 10.8086C23.8698 10.9395 23.8319 11.0674 23.7608 11.1763C23.6897 11.2851 23.5887 11.3699 23.4705 11.42C23.3523 11.4701 23.2222 11.4832 23.0967 11.4577C22.9713 11.4321 22.856 11.3691 22.7655 11.2765C22.6751 11.184 22.6134 11.0661 22.5885 10.9377C22.5635 10.8093 22.5763 10.6763 22.6253 10.5553C22.6743 10.4344 22.7572 10.331 22.8635 10.2583C22.9699 10.1856 23.095 10.1468 23.2229 10.1468C23.3945 10.1468 23.559 10.2165 23.6804 10.3406C23.8017 10.4647 23.8698 10.6331 23.8698 10.8086Z" fill="#49F04F"/>
<path id="Vector_11" d="M71.2741 20.2338H21.0423C20.057 20.2338 19.2582 21.051 19.2582 22.0591V55.3986C19.2582 56.4067 20.057 57.2239 21.0423 57.2239H71.2741C72.2595 57.2239 73.0583 56.4067 73.0583 55.3986V22.0591C73.0583 21.051 72.2595 20.2338 71.2741 20.2338Z" fill="white"/>
<path id="Vector_12" d="M71.2742 20.4474C71.481 20.4471 71.6858 20.4885 71.8769 20.5693C72.0681 20.65 72.2418 20.7686 72.3881 20.9181C72.5344 21.0676 72.6505 21.2451 72.7297 21.4405C72.8089 21.636 72.8497 21.8454 72.8497 22.057V55.3987C72.8497 55.6103 72.8089 55.8199 72.7297 56.0155C72.6506 56.211 72.5345 56.3887 72.3882 56.5384C72.2419 56.688 72.0682 56.8068 71.8771 56.8878C71.6859 56.9688 71.4811 57.0104 71.2742 57.0104H21.0424C20.6245 57.0104 20.2238 56.8406 19.9284 56.5384C19.6329 56.2361 19.4669 55.8261 19.4669 55.3987V22.057C19.4669 21.8454 19.5077 21.636 19.5869 21.4405C19.6661 21.2451 19.7822 21.0676 19.9285 20.9181C20.0748 20.7686 20.2485 20.65 20.4396 20.5693C20.6308 20.4885 20.8356 20.4471 21.0424 20.4474H71.2742ZM71.2742 20.0204H21.0424C20.5142 20.0204 20.0077 20.2349 19.634 20.6168C19.2603 20.9986 19.0501 21.5167 19.0496 22.057V55.3987C19.0501 55.9392 19.2602 56.4574 19.6339 56.8396C20.0075 57.2219 20.514 57.4368 21.0424 57.4374H71.2742C71.8025 57.4368 72.3091 57.2219 72.6827 56.8396C73.0563 56.4574 73.2665 55.9392 73.267 55.3987V22.057C73.2659 21.5168 73.0555 20.9991 72.682 20.6174C72.3084 20.2356 71.8022 20.0209 71.2742 20.0204Z" fill="#82C3FF"/>
<path id="Vector_13" d="M72.8496 23.767V22.0591C72.8496 21.8476 72.8088 21.6381 72.7296 21.4426C72.6504 21.2472 72.5343 21.0697 72.388 20.9202C72.2417 20.7707 72.068 20.6521 71.8768 20.5714C71.6857 20.4906 71.4809 20.4492 71.2741 20.4495H21.0423C20.8355 20.4492 20.6307 20.4906 20.4395 20.5714C20.2484 20.6521 20.0747 20.7707 19.9284 20.9202C19.782 21.0697 19.666 21.2472 19.5868 21.4426C19.5076 21.6381 19.4668 21.8476 19.4668 22.0591V23.767H72.8496Z" fill="#82C3FF"/>
<path id="Vector_14" d="M21.5035 22.7679C21.8607 22.7679 22.1503 22.4716 22.1503 22.1061C22.1503 21.7406 21.8607 21.4443 21.5035 21.4443C21.1462 21.4443 20.8566 21.7406 20.8566 22.1061C20.8566 22.4716 21.1462 22.7679 21.5035 22.7679Z" fill="#FF0000"/>
<path id="Vector_15" d="M24.0514 22.7679C24.4087 22.7679 24.6983 22.4716 24.6983 22.1061C24.6983 21.7406 24.4087 21.4443 24.0514 21.4443C23.6942 21.4443 23.4045 21.7406 23.4045 22.1061C23.4045 22.4716 23.6942 22.7679 24.0514 22.7679Z" fill="#FBDA4C"/>
<path id="Vector_16" d="M26.5972 22.7679C26.9545 22.7679 27.2441 22.4716 27.2441 22.1061C27.2441 21.7406 26.9545 21.4443 26.5972 21.4443C26.2399 21.4443 25.9503 21.7406 25.9503 22.1061C25.9503 22.4716 26.2399 22.7679 26.5972 22.7679Z" fill="#49F04F"/>
<path id="Vector_17" d="M46.7071 52.6234L34.8127 54.9653L23.8469 53.0866V26.2733L34.3014 28.1412L46.7029 25.81L58.6766 28.1412L69.5756 26.2562V53.0909L58.7329 54.9653L46.7071 52.6234Z" fill="#8CC8FF"/>
<path id="Vector_18" d="M35.9123 40.7154L36.4695 40.551V31.1684L34.3181 31.5719L27.1501 30.291V42.8673C30.1043 42.301 33.0288 41.5827 35.9123 40.7154Z" fill="white"/>
<path id="Vector_19" d="M34.9232 43.8044C32.3628 44.5132 29.7711 45.1536 27.1501 45.6019V50.2238L34.7709 51.5303L36.4695 51.1952V43.3646C35.9541 43.5141 35.4407 43.6614 34.9232 43.8044Z" fill="white"/>
<path id="Vector_20" d="M48.7687 40.647C47.4833 40.1795 46.7175 40.2072 45.4154 40.6812C44.3198 41.0783 43.1993 41.3729 42.0766 41.7016L39.1072 42.5876V50.6743L46.6987 49.1799L53.6496 50.5334V42.3677C52.0206 41.8069 50.3936 41.2334 48.7687 40.647Z" fill="white"/>
<path id="Vector_21" d="M42.9488 38.6403C45.1357 38.0212 46.7216 37.1459 49.0003 37.8739C50.557 38.3734 52.1117 38.8758 53.6642 39.3811V30.607L46.6924 29.2471L39.1134 30.6731V39.7632C40.3905 39.3811 41.6655 38.9989 42.9488 38.6403Z" fill="white"/>
<path id="Vector_22" d="M56.2997 43.2686V51.05L58.7683 51.5303L66.2805 50.2323V46.4815C62.9376 45.4375 59.6092 44.3765 56.2997 43.2686Z" fill="white"/>
<path id="Vector_23" d="M66.2701 43.4991V30.2632L58.6452 31.5762L56.3018 31.1214V40.2393C59.6238 41.3238 62.9466 42.4104 66.2701 43.4991Z" fill="white"/>
<path id="Vector_24" d="M65.6378 18.146C63.822 18.146 62.0805 18.884 60.7966 20.1975C59.5126 21.5111 58.7913 23.2927 58.7913 25.1503C58.7913 27.0098 59.82 28.8756 60.8112 30.1138L64.753 35.2374C64.8583 35.3742 64.9925 35.4847 65.1456 35.5607C65.2987 35.6368 65.4666 35.6763 65.6368 35.6763C65.8069 35.6763 65.9749 35.6368 66.128 35.5607C66.281 35.4847 66.4152 35.3742 66.5205 35.2374L70.4644 30.1138C72.234 27.9406 72.4823 26.0918 72.4823 25.1482C72.4823 23.2911 71.7612 21.5101 70.4776 20.1969C69.194 18.8837 67.4531 18.146 65.6378 18.146ZM65.6378 27.9427C65.0357 27.9427 64.447 27.76 63.9464 27.4178C63.4457 27.0755 63.0555 26.5891 62.825 26.0199C62.5946 25.4508 62.5343 24.8245 62.6518 24.2203C62.7693 23.6161 63.0592 23.0612 63.485 22.6256C63.9108 22.19 64.4533 21.8933 65.0439 21.7731C65.6344 21.653 66.2466 21.7146 66.8029 21.9504C67.3592 22.1861 67.8347 22.5853 68.1693 23.0976C68.5038 23.6098 68.6824 24.212 68.6824 24.828C68.6835 25.2377 68.6055 25.6437 68.453 26.0226C68.3005 26.4014 68.0764 26.7458 67.7936 27.0359C67.5108 27.3261 67.1748 27.5563 66.8048 27.7133C66.4349 27.8704 66.0383 27.9512 65.6378 27.9512V27.9427Z" fill="#FF497C"/>
<path id="Vector_25" d="M71.2699 58.9104H49.0233C48.0863 58.9104 47.3268 59.6875 47.3268 60.646V69.6891C47.3268 70.6477 48.0863 71.4247 49.0233 71.4247H71.2699C72.2069 71.4247 72.9665 70.6477 72.9665 69.6891V60.646C72.9665 59.6875 72.2069 58.9104 71.2699 58.9104Z" fill="white"/>
<path id="Vector_26" d="M71.27 59.1346C71.6646 59.1346 72.043 59.295 72.3221 59.5804C72.6011 59.8659 72.7578 60.253 72.7578 60.6567V69.6977C72.7578 70.1016 72.6011 70.489 72.3222 70.7748C72.0432 71.0606 71.6648 71.2214 71.27 71.222H49.0234C48.6286 71.2214 48.2501 71.0606 47.9712 70.7748C47.6922 70.489 47.5355 70.1016 47.5355 69.6977V60.646C47.5355 60.2424 47.6923 59.8552 47.9713 59.5697C48.2503 59.2843 48.6288 59.1239 49.0234 59.1239H71.27M71.27 58.697H49.0234C48.5184 58.6981 48.0345 58.9038 47.6774 59.2691C47.3203 59.6344 47.1193 60.1295 47.1182 60.646V69.687C47.1187 70.204 47.3196 70.6996 47.6767 71.0654C48.0338 71.4311 48.518 71.6371 49.0234 71.6383H71.27C71.7753 71.6371 72.2596 71.4311 72.6167 71.0654C72.9738 70.6996 73.1746 70.204 73.1752 69.687V60.646C73.1713 60.1313 72.969 59.6389 72.6123 59.276C72.2555 58.913 71.7731 58.7087 71.27 58.7076V58.697Z" fill="#82C3FF"/>
<path id="Vector_27" d="M69.1414 63.9828H51.1517V64.7407H69.1414V63.9828Z" fill="#DEDDFF"/>
<path id="Vector_28" d="M69.1414 65.9874H51.1517V66.7452H69.1414V65.9874Z" fill="#DEDDFF"/>
<path id="Vector_29" d="M69.1414 67.9919H51.1517V68.7498H69.1414V67.9919Z" fill="#DEDDFF"/>
<path id="Vector_30" d="M72.7577 61.6622V60.646C72.755 60.2442 72.597 59.8598 72.3183 59.5766C72.0395 59.2935 71.6627 59.1346 71.2699 59.1346H49.0232C48.6286 59.1346 48.2502 59.2949 47.9712 59.5804C47.6922 59.8659 47.5354 60.253 47.5354 60.6567V61.6729L72.7577 61.6622Z" fill="#82C3FF"/>
<path id="Vector_31" d="M49.6828 61.0538C50.04 61.0538 50.3297 60.7575 50.3297 60.392C50.3297 60.0265 50.04 59.7302 49.6828 59.7302C49.3255 59.7302 49.0359 60.0265 49.0359 60.392C49.0359 60.7575 49.3255 61.0538 49.6828 61.0538Z" fill="#FF0000"/>
<path id="Vector_32" d="M52.2306 61.0538C52.5879 61.0538 52.8775 60.7575 52.8775 60.392C52.8775 60.0265 52.5879 59.7302 52.2306 59.7302C51.8734 59.7302 51.5837 60.0265 51.5837 60.392C51.5837 60.7575 51.8734 61.0538 52.2306 61.0538Z" fill="#FBDA4C"/>
<path id="Vector_33" d="M54.7785 61.0538C55.1357 61.0538 55.4254 60.7575 55.4254 60.392C55.4254 60.0265 55.1357 59.7302 54.7785 59.7302C54.4212 59.7302 54.1316 60.0265 54.1316 60.392C54.1316 60.7575 54.4212 61.0538 54.7785 61.0538Z" fill="#49F04F"/>
<path id="Vector_34" d="M40.7432 58.9104H25.8314C24.8944 58.9104 24.1349 59.6875 24.1349 60.646V71.6105C24.1349 72.569 24.8944 73.3461 25.8314 73.3461H40.7432C41.6801 73.3461 42.4397 72.569 42.4397 71.6105V60.646C42.4397 59.6875 41.6801 58.9104 40.7432 58.9104Z" fill="white"/>
<path id="Vector_35" d="M40.741 59.1346C41.1356 59.1346 41.5141 59.295 41.7931 59.5804C42.0721 59.8659 42.2289 60.253 42.2289 60.6567V71.619C42.2289 72.0229 42.0722 72.4103 41.7932 72.6961C41.5143 72.9819 41.1358 73.1427 40.741 73.1433H25.8313C25.4365 73.1427 25.0581 72.9819 24.7791 72.6961C24.5002 72.4103 24.3435 72.0229 24.3435 71.619V60.646C24.3435 60.2424 24.5002 59.8552 24.7793 59.5697C25.0583 59.2843 25.4367 59.1239 25.8313 59.1239H40.741M40.741 58.697H25.8313C25.3262 58.6975 24.8419 58.9031 24.4848 59.2685C24.1276 59.6339 23.9267 60.1293 23.9261 60.646V71.6084C23.9261 72.1255 24.1268 72.6215 24.484 72.9873C24.8413 73.3532 25.3259 73.559 25.8313 73.5596H40.741C41.2465 73.559 41.7311 73.3532 42.0883 72.9873C42.4456 72.6215 42.6462 72.1255 42.6462 71.6084V60.646C42.6429 60.1311 42.4408 59.6385 42.0839 59.2754C41.727 58.9123 41.2443 58.7082 40.741 58.7076V58.697Z" fill="#82C3FF"/>
<path id="Vector_36" d="M42.2289 61.6622V60.646C42.2261 60.2442 42.0682 59.8598 41.7894 59.5766C41.5107 59.2935 41.1338 59.1346 40.741 59.1346H25.8313C25.4367 59.1346 25.0583 59.2949 24.7793 59.5804C24.5003 59.8659 24.3435 60.253 24.3435 60.6567V61.6729L42.2289 61.6622Z" fill="#82C3FF"/>
<path id="Vector_37" d="M26.4908 61.0538C26.848 61.0538 27.1376 60.7575 27.1376 60.392C27.1376 60.0265 26.848 59.7302 26.4908 59.7302C26.1335 59.7302 25.8439 60.0265 25.8439 60.392C25.8439 60.7575 26.1335 61.0538 26.4908 61.0538Z" fill="#FF0000"/>
<path id="Vector_38" d="M29.0387 61.0538C29.396 61.0538 29.6856 60.7575 29.6856 60.392C29.6856 60.0265 29.396 59.7302 29.0387 59.7302C28.6815 59.7302 28.3918 60.0265 28.3918 60.392C28.3918 60.7575 28.6815 61.0538 29.0387 61.0538Z" fill="#FBDA4C"/>
<path id="Vector_39" d="M31.5845 61.0538C31.9418 61.0538 32.2314 60.7575 32.2314 60.392C32.2314 60.0265 31.9418 59.7302 31.5845 59.7302C31.2272 59.7302 30.9376 60.0265 30.9376 60.392C30.9376 60.7575 31.2272 61.0538 31.5845 61.0538Z" fill="#49F04F"/>
<path id="Vector_40" d="M37.2854 72.3812H29.2181V67.0292L33.2852 63.1075L37.2854 67.0292V72.3812Z" fill="#DEDDFF"/>
<path id="Vector_41" d="M34.1636 68.7349H32.3398V72.3811H34.1636V68.7349Z" fill="white"/>
<path id="Vector_42" d="M38.2224 67.5138L33.2852 62.4649L28.3501 67.5138L28.8029 67.9791L33.2852 63.3936L37.7675 67.9791L38.2224 67.5138Z" fill="#DEDDFF"/>
<path id="Vector_43" d="M31.7681 67.9791H29.9547V69.8343H31.7681V67.9791Z" fill="white"/>
<path id="Vector_44" d="M30.9459 67.9023H30.7206V69.9176H30.9459V67.9023Z" fill="#DEDDFF"/>
<path id="Vector_45" d="M31.8182 69.0252V68.7947H29.8484V69.0252H31.8182Z" fill="#DEDDFF"/>
<path id="Vector_46" d="M36.6719 67.9791H34.8585V69.8343H36.6719V67.9791Z" fill="white"/>
<path id="Vector_47" d="M35.8498 67.9023H35.6244V69.9176H35.8498V67.9023Z" fill="#DEDDFF"/>
<path id="Vector_48" d="M36.722 69.0252V68.7947H34.7522V69.0252H36.722Z" fill="#DEDDFF"/>
<path id="Vector_49" d="M33.2518 67.2896C33.6839 67.2896 34.0343 66.9312 34.0343 66.489C34.0343 66.0469 33.6839 65.6885 33.2518 65.6885C32.8196 65.6885 32.4692 66.0469 32.4692 66.489C32.4692 66.9312 32.8196 67.2896 33.2518 67.2896Z" fill="white"/>
<path id="Vector_50" d="M33.3686 65.6052H33.1349V67.3494H33.3686V65.6052Z" fill="#DEDDFF"/>
<path id="Vector_51" d="M34.1031 66.5979V66.3567H32.3983V66.5979H34.1031Z" fill="#DEDDFF"/>
<path id="Vector_52" d="M18.0353 42.3912L17.3655 58.9211L17.0358 67.1829L16.729 75.4425L14.8176 75.4702C14.6402 72.7313 14.4232 69.9923 14.1916 67.2554C13.9599 64.5186 13.6908 61.7818 13.409 59.0471C13.1273 56.3123 12.8435 53.584 12.5389 50.8472C12.2342 48.1104 11.9129 45.3799 11.5999 42.6538L18.0353 42.3912Z" fill="#433D8A"/>
<path id="Vector_53" d="M17.8726 42.3634L17.8246 42.4275L17.7641 42.53L17.6368 42.7434L17.3801 43.1918C17.209 43.4906 17.0463 43.8109 16.8772 44.1204C16.5454 44.7608 16.2157 45.4013 15.8965 46.0524C15.2475 47.3525 14.6611 48.6996 14.0622 50.0467C12.8811 52.7494 11.8044 55.5225 10.7923 58.3234L10.0411 60.4326C9.79904 61.1442 9.56185 61.8522 9.32953 62.5567C8.84749 63.9721 8.4218 65.4067 7.98567 66.8392C7.75822 67.5543 7.56832 68.2781 7.35965 68.9975C7.15098 69.7169 6.96109 70.4428 6.76702 71.1665C6.57295 71.8902 6.40393 72.6203 6.22447 73.3482C6.04501 74.0762 5.86973 74.8042 5.70696 75.5364L4.19617 75.2611C4.30259 74.516 4.39232 73.7667 4.48414 73.0174L4.75332 70.7651C4.94948 69.2707 5.11433 67.7593 5.30422 66.2564L5.59219 63.9977C5.67775 63.242 5.78 62.4905 5.88433 61.737L6.18274 59.4719L6.51035 57.2069C6.959 54.1861 7.44521 51.1589 8.01071 48.1211L8.45936 45.8411C8.62421 45.0811 8.77446 44.3189 8.94348 43.5525C9.11251 42.7861 9.2857 42.0176 9.47142 41.2448L9.76565 40.0749L9.92424 39.4772L10.0119 39.1633L10.0578 39.0054L10.1204 38.8132L17.8726 42.3634Z" fill="#524AA8"/>
<path id="Vector_54" d="M19.7694 77.1205L14.7613 77.1867C14.6485 77.1884 14.5397 77.1445 14.4584 77.0645C14.3771 76.9846 14.33 76.875 14.3273 76.7597L14.3106 75.8439C14.3072 75.6506 14.3669 75.4616 14.4803 75.307C14.5937 75.1523 14.7542 75.0407 14.9366 74.9899C14.9366 74.9899 17.474 75.2739 18.484 75.5194C19.5587 75.7862 20.168 76.0104 20.2202 76.1598C20.3892 76.6914 20.095 77.0543 19.7694 77.1205Z" fill="#4458AB"/>
<path id="Vector_55" d="M8.981 77.1205L3.97284 77.1867C3.85989 77.1884 3.75082 77.1446 3.6692 77.0647C3.58759 76.9848 3.53999 76.8752 3.53672 76.7597L3.52211 75.8439C3.51872 75.6506 3.57845 75.4616 3.69183 75.307C3.80522 75.1523 3.96579 75.0407 4.14813 74.9899C4.14813 74.9899 6.68559 75.2739 7.69557 75.5194C8.77024 75.7862 9.37956 76.0104 9.43173 76.1598C9.60702 76.6914 9.3107 77.0543 8.981 77.1205Z" fill="#5068C9"/>
<path id="Vector_56" d="M25.6749 33.1346C25.8397 33.8925 26.0317 34.6418 26.2112 35.3975C26.3906 36.1532 26.591 36.8919 26.7913 37.6455C27.1857 39.1399 27.6051 40.6342 28.0287 42.1115L27.9849 41.9962C28.5024 43.3369 29.0283 44.6754 29.5729 46.0033C29.8442 46.6694 30.1217 47.329 30.4076 47.9887C30.6935 48.6483 30.9773 49.3059 31.2819 49.957C31.4108 50.2554 31.4211 50.5934 31.3106 50.8994C31.2001 51.2054 30.9775 51.4554 30.6899 51.5964C30.4023 51.7374 30.0724 51.7583 29.7701 51.6547C29.4677 51.5511 29.2166 51.3312 29.07 51.0415C29.0578 51.0188 29.0474 50.9953 29.0387 50.971C28.7758 50.3028 28.4857 49.6474 28.204 48.9857C27.9223 48.3239 27.6301 47.6706 27.3359 47.0173C26.7475 45.7087 26.136 44.4129 25.5205 43.117L25.4808 43.0103C24.9362 41.5671 24.3874 40.124 23.8114 38.6915C23.5332 37.9799 23.2424 37.2641 22.9392 36.5439C22.6324 35.8351 22.3424 35.1178 22.0231 34.4091C21.9062 34.1713 21.8372 33.9119 21.8202 33.6463C21.8032 33.3807 21.8386 33.1143 21.9243 32.863C22.0099 32.6117 22.1441 32.3806 22.3189 32.1834C22.4936 31.9861 22.7053 31.8269 22.9414 31.7151C23.1775 31.6033 23.4332 31.5411 23.6932 31.5324C23.9532 31.5237 24.2123 31.5686 24.4551 31.6644C24.6978 31.7602 24.9192 31.9049 25.1062 32.09C25.2932 32.2751 25.4419 32.4967 25.5434 32.7418C25.5993 32.8682 25.6433 32.9997 25.6749 33.1346Z" fill="#FFE7E6"/>
<path id="Vector_57" d="M25.487 32.2614L27.1209 38.0895L23.7717 39.4942L21.1195 32.1696L22.6762 29.1425L24.2162 29.9964C24.7442 30.4298 25.2679 31.5505 25.487 32.2614Z" fill="#D95C3F"/>
<path id="Vector_58" d="M31.695 51.4791C31.7163 51.5001 31.7365 51.5222 31.7555 51.5453L31.7868 51.5858C31.8015 51.6072 31.8202 51.6349 31.8307 51.6541C31.8411 51.6733 31.8807 51.7353 31.8974 51.7694C31.9327 51.8384 31.9633 51.9097 31.9893 51.9829C32.0374 52.1093 32.0765 52.2392 32.1061 52.3714C32.161 52.612 32.2007 52.8558 32.2251 53.1015C32.2655 53.5636 32.276 54.0279 32.2564 54.4913C32.254 54.5874 32.2169 54.6792 32.1522 54.749C32.0875 54.8187 31.9998 54.8614 31.9061 54.8689C31.8124 54.8763 31.7193 54.8479 31.6448 54.7892C31.5704 54.7305 31.5199 54.6457 31.503 54.5511C31.4306 54.135 31.3317 53.7243 31.2067 53.3214C31.1491 53.1354 31.0794 52.9536 30.9981 52.777C30.9618 52.6988 30.9192 52.6239 30.8708 52.5529C30.8524 52.5246 30.8314 52.4981 30.8082 52.4739C30.8017 52.4656 30.7939 52.4584 30.7852 52.4526C30.7852 52.4526 30.7852 52.4526 30.8165 52.4888C30.7516 52.4293 30.6987 52.3572 30.661 52.2767C30.6233 52.1963 30.6014 52.109 30.5967 52.0199C30.5919 51.9308 30.6044 51.8416 30.6333 51.7574C30.6623 51.6732 30.7072 51.5957 30.7654 51.5292C30.8236 51.4628 30.8941 51.4087 30.9727 51.3702C31.0514 51.3316 31.1367 51.3092 31.2238 51.3044C31.3109 51.2995 31.3981 51.3122 31.4804 51.3419C31.5627 51.3715 31.6384 51.4174 31.7034 51.4769L31.695 51.4791Z" fill="#FFE7E6"/>
<path id="Vector_59" d="M32.1437 50.6209C32.171 50.641 32.1961 50.6639 32.2188 50.6892L32.2564 50.7319C32.2751 50.7554 32.296 50.781 32.3085 50.8003C32.3349 50.8388 32.3593 50.8787 32.3816 50.9198C32.4202 50.9889 32.455 51.0602 32.4859 51.1333C32.5383 51.2591 32.5829 51.3881 32.6194 51.5197C32.6854 51.759 32.7376 52.0021 32.776 52.2477C32.8443 52.7115 32.8855 53.1792 32.8991 53.6481C32.9034 53.7441 32.8728 53.8383 32.8132 53.9126C32.7536 53.9868 32.6692 54.0359 32.5763 54.0502C32.4835 54.0645 32.3887 54.0432 32.3103 53.9902C32.232 53.9372 32.1756 53.8564 32.152 53.7634C32.0467 53.3444 31.9185 52.9317 31.7681 52.5273C31.6974 52.3382 31.6145 52.1542 31.5197 51.9765C31.4787 51.9017 31.432 51.8303 31.3799 51.7631C31.36 51.727 31.3362 51.6934 31.309 51.6627C31.2985 51.652 31.2902 51.6456 31.286 51.6456V51.6584C31.3001 51.6734 31.3154 51.687 31.3319 51.699C31.2582 51.647 31.1955 51.5803 31.1477 51.5028C31.0998 51.4253 31.0678 51.3388 31.0535 51.2483C31.0393 51.1579 31.043 51.0654 31.0646 50.9765C31.0862 50.8876 31.1252 50.804 31.1791 50.7309C31.2331 50.6578 31.301 50.5966 31.3787 50.5511C31.4564 50.5055 31.5424 50.4765 31.6313 50.4659C31.7203 50.4552 31.8104 50.463 31.8963 50.489C31.9822 50.5149 32.0621 50.5583 32.1312 50.6167L32.1437 50.6209Z" fill="#FFE7E6"/>
<path id="Vector_60" d="M30.9564 51.3318C30.9961 51.4001 31.0065 51.4279 31.0274 51.4685C31.0483 51.509 31.0587 51.5453 31.0754 51.5837C31.1046 51.6563 31.1338 51.7289 31.1568 51.7972C31.2068 51.9403 31.2444 52.0833 31.2799 52.2242C31.3461 52.5053 31.3942 52.7906 31.4239 53.0781C31.4536 53.3546 31.4689 53.6325 31.4698 53.9107C31.4698 54.1861 31.4573 54.4593 31.4385 54.7283C31.4309 54.8242 31.3889 54.9138 31.3205 54.9797C31.2521 55.0457 31.1623 55.0834 31.0683 55.0856C30.9743 55.0877 30.8829 55.0541 30.8118 54.9912C30.7406 54.9284 30.6948 54.8408 30.6831 54.7454V54.7347C30.6559 54.485 30.6226 54.2373 30.5767 53.9961C30.531 53.7562 30.4732 53.5189 30.4035 53.2852C30.3372 53.0584 30.2556 52.8365 30.1593 52.6213C30.1113 52.5188 30.0633 52.4078 30.0091 52.3224C29.9826 52.2754 29.9555 52.2306 29.9277 52.1879C29.9131 52.1687 29.9006 52.1452 29.8859 52.1281C29.8713 52.111 29.8546 52.0854 29.8609 52.1004C29.7618 51.9515 29.7247 51.7684 29.7575 51.5914C29.7904 51.4145 29.8906 51.2581 30.0362 51.1568C30.1817 51.0554 30.3607 51.0174 30.5337 51.051C30.7066 51.0846 30.8595 51.1872 30.9585 51.3361L30.9564 51.3318Z" fill="#FFE7E6"/>
<path id="Vector_61" d="M30.3242 51.2656C30.3951 51.5688 30.4452 51.8399 30.4953 52.1195C30.5454 52.3992 30.5871 52.6853 30.6226 52.9735C30.6977 53.5392 30.7499 54.1071 30.7812 54.6813C30.787 54.7786 30.7568 54.8746 30.6967 54.9502C30.6365 55.0258 30.5508 55.0755 30.4565 55.0895C30.3622 55.1034 30.2663 55.0807 30.1876 55.0256C30.109 54.9706 30.0535 54.8873 30.032 54.7923C29.911 54.2608 29.767 53.7249 29.6147 53.2168C29.5354 52.9585 29.4477 52.7002 29.358 52.4483C29.2683 52.1964 29.1702 51.9359 29.0742 51.7097C29.0031 51.5443 28.9991 51.3569 29.0631 51.1885C29.1271 51.0202 29.2538 50.8847 29.4154 50.812C29.577 50.7392 29.7602 50.7351 29.9248 50.8006C30.0893 50.866 30.2218 50.9957 30.2929 51.161C30.3058 51.195 30.3163 51.23 30.3242 51.2656Z" fill="#E3A5A2"/>
<path id="Vector_62" d="M28.7549 50.5611C28.7549 49.7392 30.0215 48.7572 30.0215 48.7572C31.4155 49.1479 31.9559 49.8246 32.2126 50.3306L31.9768 52.2263L31.1671 52.5166C30.8165 52.6664 30.4312 52.7101 30.057 52.6426C29.552 52.5166 28.7632 51.3382 28.7549 50.5611Z" fill="#FFE7E6"/>
<path id="Vector_63" d="M32.4337 51.7502C32.4093 51.6709 32.38 51.5931 32.3461 51.5175C32.3106 51.4366 32.2688 51.3587 32.2209 51.2848C32.1327 51.1477 32.0193 51.0296 31.887 50.9368C31.7616 50.8484 31.6194 50.788 31.4697 50.7596C31.3963 50.7423 31.3216 50.7315 31.2464 50.7276C31.1692 50.7276 31.0836 50.7276 31.0064 50.7276H30.9376C30.8468 50.7297 30.7567 50.7129 30.6725 50.6783C30.5883 50.6437 30.5119 50.5919 30.4478 50.5261C30.3838 50.4604 30.3335 50.382 30.3 50.2957C30.2664 50.2095 30.2504 50.1171 30.2528 50.0243C30.2552 49.9316 30.276 49.8402 30.314 49.7559C30.3519 49.6716 30.4062 49.596 30.4736 49.5338C30.5409 49.4716 30.6199 49.4241 30.7058 49.3941C30.7916 49.364 30.8826 49.3522 30.973 49.3592C31.0131 49.3598 31.053 49.3648 31.092 49.3741C31.2297 49.4019 31.3653 49.4254 31.5093 49.4659C31.6471 49.5066 31.7811 49.5595 31.91 49.6239C32.1744 49.7484 32.4114 49.9263 32.6069 50.1469C32.7944 50.3584 32.9429 50.6029 33.0452 50.8685C33.0916 50.9952 33.1292 51.125 33.1578 51.2571C33.1883 51.3975 33.2071 51.5403 33.2142 51.684C33.2196 51.7795 33.1912 51.8738 33.1342 51.9496C33.0771 52.0253 32.9953 52.0775 32.9036 52.0964C32.812 52.1154 32.7168 52.0999 32.6354 52.0527C32.5541 52.0056 32.4921 51.93 32.4609 51.8399L32.4337 51.7502Z" fill="#FFE7E6"/>
<path id="Vector_64" d="M24.2288 64.3243C23.7549 64.388 23.2731 64.3146 22.8379 64.1125C22.4027 63.9103 22.0316 63.5875 21.7666 63.1806C21.5016 62.7737 21.3533 62.299 21.3385 61.8103C21.3237 61.3215 21.4431 60.8384 21.683 60.4155C21.7303 60.3323 21.7818 60.2518 21.8374 60.1742L36.8786 39.253C36.9626 39.1225 37.0708 39.0102 37.1973 38.9225C37.3237 38.8348 37.4657 38.7734 37.6153 38.7419C37.7649 38.7104 37.9191 38.7093 38.0691 38.7388C38.2191 38.7682 38.362 38.8276 38.4895 38.9135C38.6171 38.9995 38.7269 39.1103 38.8126 39.2396C38.8983 39.3689 38.9582 39.5142 38.9891 39.6673C39.0199 39.8203 39.0209 39.9781 38.9921 40.1315C38.9633 40.285 38.9053 40.4311 38.8213 40.5616L26.1069 63.0413C25.9115 63.3887 25.6404 63.6852 25.3146 63.9077C24.9889 64.1303 24.6173 64.2728 24.2288 64.3243Z" fill="#5C92DE"/>
<path id="Vector_65" d="M28.5065 50.907L21.8289 60.1806C21.7734 60.2582 21.7218 60.3388 21.6745 60.4219C21.4981 60.7194 21.3814 61.0499 21.3315 61.3941C21.2815 61.7383 21.2991 62.0893 21.3834 62.4264C21.4677 62.7635 21.6169 63.0801 21.8223 63.3575C22.0277 63.6349 22.2851 63.8675 22.5795 64.0418C22.8739 64.2161 23.1993 64.3286 23.5367 64.3726C23.8741 64.4166 24.2167 64.3913 24.5445 64.2981C24.8722 64.2049 25.1784 64.0458 25.4453 63.8299C25.7121 63.6141 25.9341 63.346 26.0984 63.0413L31.5928 53.33C30.5689 52.5188 29.5401 51.7111 28.5065 50.907Z" fill="#32679C"/>
<path id="Vector_66" opacity="0.33" d="M46.5372 41.6503C54.1728 41.2299 60.0296 34.5567 59.6187 26.7451C59.2079 18.9336 52.6849 12.9418 45.0493 13.3621C37.4137 13.7824 31.5569 20.4557 31.9678 28.2673C32.3787 36.0788 38.9016 42.0706 46.5372 41.6503Z" fill="#D1E9FF"/>
<path id="Vector_67" opacity="0.33" d="M59.4798 29.5652C59.6655 28.2633 59.6739 26.9413 59.5049 25.6371C51.1997 29.0784 42.9842 32.8528 34.4641 35.6707C34.9667 36.4 35.5354 37.079 36.1627 37.6988C44.0675 35.4025 51.8504 32.6876 59.4798 29.5652Z" fill="white"/>
<path id="Vector_68" opacity="0.33" d="M32.9784 32.8763C36.9975 31.5868 40.9824 30.1914 44.9333 28.6899C49.5659 26.9222 54.1671 24.5761 58.9791 23.2162C58.3754 21.2546 57.3606 19.4515 56.0055 17.9325C51.8321 19.6105 47.7671 21.5852 43.6396 23.387C39.7958 25.0671 35.8936 26.5892 31.9539 28.043C32.0185 29.7027 32.3652 31.3383 32.9784 32.8763Z" fill="white"/>
<path id="Vector_69" opacity="0.45" d="M48.0029 19.8005C47.7317 20.2245 47.3438 20.5567 46.888 20.7551C46.4323 20.9536 45.9293 21.0093 45.4426 20.9152C44.9559 20.8212 44.5075 20.5816 44.1539 20.2268C43.8003 19.872 43.5575 19.4178 43.4562 18.9218C43.355 18.4259 43.3997 17.9103 43.5849 17.4403C43.77 16.9703 44.0872 16.5671 44.4964 16.2816C44.9056 15.9961 45.3883 15.8411 45.8836 15.8363C46.3788 15.8315 46.8644 15.977 47.2788 16.2545C47.8344 16.6266 48.2228 17.2091 48.3586 17.8741C48.4943 18.5391 48.3664 19.232 48.0029 19.8005Z" fill="white"/>
<path id="Vector_70" d="M47.8631 43.5504C44.2863 44.0329 40.6558 43.2496 37.574 41.3306C34.4923 39.4115 32.1446 36.4721 30.9206 33.0001C29.6966 29.5282 29.6698 25.7324 30.8448 22.2427C32.0198 18.753 34.3259 15.7793 37.3803 13.8151C40.4347 11.8508 44.0538 11.0141 47.6371 11.4439C51.2203 11.8736 54.5521 13.5439 57.0797 16.1776C59.6073 18.8113 61.1785 22.25 61.5328 25.9231C61.887 29.5962 61.0029 33.2827 59.0271 36.371C57.7813 38.3194 56.1388 39.9696 54.212 41.2087C52.2852 42.4478 50.1195 43.2465 47.8631 43.5504ZM44.0382 13.902C40.9177 14.3223 38.041 15.8516 35.9111 18.2223C33.7813 20.593 32.5338 23.6542 32.3869 26.8707C32.24 30.0871 33.203 33.254 35.1075 35.8175C37.012 38.3811 39.7368 40.1781 42.8053 40.8943C45.8739 41.6106 49.0909 41.2005 51.8938 39.7357C54.6966 38.271 56.907 35.8448 58.1383 32.8815C59.3696 29.9181 59.5434 26.6063 58.6295 23.5251C57.7155 20.444 55.7718 17.7895 53.1384 16.0261C50.4514 14.2263 47.2223 13.4726 44.0382 13.902Z" fill="#5C92DE"/>
<path id="Vector_71" d="M53.3742 15.6525C51.0829 14.1183 48.3984 13.3136 45.6602 13.3402C42.9219 13.3668 40.2528 14.2235 37.9905 15.802C35.7281 17.3805 33.9741 19.6099 32.9503 22.2082C31.9265 24.8065 31.6788 27.6571 32.2385 30.3995C32.7983 33.1418 34.1403 35.6528 36.095 37.6148C38.0497 39.5768 40.5292 40.9018 43.2199 41.4221C45.9107 41.9425 48.6918 41.6349 51.2117 40.5382C53.7315 39.4415 55.8769 37.605 57.3765 35.2609C59.3868 32.1175 60.0945 28.286 59.3439 24.6089C58.5934 20.9318 56.446 17.7102 53.3742 15.6525ZM57.0134 35.0111C55.3144 37.6659 52.7681 39.6359 49.8085 40.5854C46.8489 41.5349 43.6591 41.4053 40.7824 40.2185C37.9058 39.0318 35.5203 36.8613 34.0325 34.077C32.5447 31.2927 32.0465 28.0668 32.6229 24.9488C33.1992 21.8309 34.8145 19.0139 37.1934 16.9777C39.5724 14.9415 42.5678 13.8121 45.6694 13.782C48.7709 13.7519 51.7868 14.8229 54.2031 16.8125C56.6194 18.8022 58.2866 21.5873 58.9207 24.6935C59.2806 26.4572 59.2974 28.2761 58.9702 30.0464C58.6429 31.8167 57.978 33.5037 57.0134 35.0111Z" fill="#3C7DBD"/>
<path id="Vector_72" d="M17.9289 47.4464C18.5674 41.5586 24.9111 32.1013 24.9111 32.1013C25.3409 31.194 24.765 29.896 22.4842 29.0613L18.2231 27.3065C17.2048 26.8795 16.4181 27.1101 15.2725 28.4999C15.2725 28.4999 10.7484 32.9702 8.67212 44.5665C11.3849 45.9328 14.0976 46.8487 17.9289 47.4464Z" fill="#FF876B"/>
<path id="Vector_73" d="M19.3186 28.1796C19.3186 28.1796 19.1371 29.1488 20.2243 29.5929C21.3115 30.0369 21.8331 29.2065 21.8331 29.2065C22.0097 28.1439 22.4397 27.1422 23.0852 26.2903C23.0539 25.4919 21.3094 24.6038 20.435 25.2955C20.1962 26.3054 19.8204 27.2762 19.3186 28.1796Z" fill="#E3A5A2"/>
<path id="Vector_74" d="M25.2136 20.3363C25.2136 20.3363 26.4365 23.4019 24.7525 25.018L24.2162 24.8429L25.2136 20.3363Z" fill="#AD577F"/>
<path id="Vector_75" d="M25.7959 23.9378C25.4662 24.8344 24.8026 25.4065 24.3143 25.2187C23.826 25.0308 23.6987 24.1513 24.0284 23.2589C24.3581 22.3666 25.0217 21.7902 25.5079 21.978C25.9941 22.1659 26.1256 23.0433 25.7959 23.9378Z" fill="#FFE7E6"/>
<path id="Vector_76" d="M18.4088 19.0789C18.8232 18.5782 19.3466 18.1839 19.937 17.9277C20.5273 17.6715 21.1682 17.5606 21.8081 17.6038C21.8519 17.6038 21.8978 17.6038 21.9417 17.6187C21.9855 17.6337 22.0335 17.6187 22.0773 17.6187C23.3878 17.7233 23.8948 17.687 24.6315 18.7865C25.5788 20.2061 24.9758 22.7636 24.9111 23.5919C24.7316 25.9402 24.3664 27.6011 22.2359 27.4175C20.0073 27.2254 17.8746 25.4855 17.9289 23.0369C17.9539 22.215 17.8725 19.7023 18.4088 19.0789Z" fill="#FFE7E6"/>
<path id="Vector_77" d="M25.1594 21.3717C27.5508 20.5327 25.6269 17.4543 23.6633 16.7178C20.4768 15.5223 18.1418 15.8105 17.7161 17.8258C17.2359 18.2381 16.9029 18.8016 16.7693 19.4282C16.6356 20.0547 16.7088 20.709 16.9774 21.2884C16.9774 21.2884 16.1114 25.4086 19.0119 25.6435C19.0119 25.6435 18.3671 25.1204 17.8997 23.4297C17.8997 23.4297 19.7381 22.4114 18.8074 19.8005C18.8074 19.8005 22.7701 22.2021 25.1594 21.3717Z" fill="#063E70"/>
<path id="Vector_78" d="M16.56 23.1948C16.7478 24.132 17.3153 24.8045 17.8266 24.6892C18.3378 24.5739 18.5987 23.735 18.4088 22.7978C18.2189 21.8606 17.6534 21.1881 17.1442 21.3034C16.6351 21.4187 16.3721 22.2577 16.56 23.1948Z" fill="#FFE7E6"/>
<path id="Vector_79" d="M19.4022 32.4963L20.6793 41.5927L19.6902 40.5253L24.8506 42.0731L27.4319 42.8587L28.7236 43.2579L29.3747 43.4714L29.7044 43.576L30.055 43.6955C30.3635 43.8235 30.6133 44.0661 30.7543 44.3746C30.8953 44.6832 30.917 45.0349 30.815 45.3591C30.7131 45.6833 30.495 45.9561 30.2047 46.1227C29.9143 46.2893 29.5731 46.3374 29.2495 46.2573L29.2057 46.2424L28.9156 46.1506L28.6026 46.0545L27.9661 45.8667L26.6828 45.4931L24.0994 44.7544L18.9243 43.2942C18.7021 43.2316 18.4988 43.113 18.333 42.9493C18.1671 42.7856 18.044 42.5819 17.9749 42.357L17.9352 42.2246L15.2892 33.442C15.1232 32.8939 15.1768 32.3008 15.4382 31.7932C15.6996 31.2855 16.1475 30.9049 16.6832 30.735C17.2189 30.5652 17.7986 30.62 18.2949 30.8874C18.7911 31.1549 19.1631 31.613 19.3292 32.1611C19.3627 32.2705 19.3872 32.3826 19.4022 32.4963Z" fill="#FFE7E6"/>
<path id="Vector_80" d="M32.7467 43.9368C32.6216 43.942 32.4979 43.9657 32.3795 44.0072C32.2684 44.0465 32.1662 44.1082 32.079 44.1887C31.9999 44.2624 31.9342 44.3499 31.8849 44.447C31.8338 44.5467 31.7939 44.652 31.766 44.7608C31.7366 44.8617 31.6852 44.9545 31.6158 45.0322C31.5464 45.11 31.4607 45.1706 31.3651 45.2097C31.2695 45.2487 31.1665 45.2651 31.0638 45.2577C30.9612 45.2503 30.8615 45.2192 30.7722 45.1667C30.683 45.1143 30.6065 45.0419 30.5485 44.9549C30.4904 44.8679 30.4524 44.7687 30.4372 44.6645C30.422 44.5604 30.43 44.4541 30.4606 44.3536C30.4913 44.253 30.5437 44.1609 30.6141 44.0841L30.6412 44.0542C30.7163 43.9752 30.7852 43.8941 30.8645 43.8215C30.9447 43.7438 31.0305 43.6724 31.1212 43.608C31.2996 43.48 31.4989 43.3853 31.7096 43.3284C31.9132 43.2709 32.1257 43.2535 32.3356 43.2771C32.5345 43.2965 32.7286 43.3506 32.9095 43.4372C32.9698 43.4656 33.0167 43.5172 33.0401 43.5807C33.0636 43.6442 33.0616 43.7146 33.0347 43.7767C33.0162 43.8184 32.987 43.8543 32.9503 43.8806C32.9136 43.9068 32.8707 43.9226 32.826 43.9261L32.7467 43.9368Z" fill="#FFE7E6"/>
<path id="Vector_81" d="M31.1922 43.6806C30.8275 43.6129 30.4519 43.6445 30.1029 43.7724C29.8066 43.8898 29.3121 44.7203 29.3559 45.0875C29.4125 45.4587 29.5419 45.8144 29.7362 46.1332C29.9306 46.452 30.1859 46.7273 30.4869 46.9426C30.8753 47.2074 31.2795 47.447 31.6972 47.6599C31.8099 47.7304 31.9059 47.5724 31.9434 47.4464L32.7385 45.4611C32.2022 45.1494 31.1922 43.6806 31.1922 43.6806Z" fill="#FFE7E6"/>
<path id="Vector_82" d="M32.4066 45.1771L32.3878 45.1664H32.4066L32.4609 45.1942C32.5005 45.2113 32.5443 45.2305 32.5923 45.2476C32.6841 45.2817 32.7864 45.3116 32.8886 45.3415C33.0973 45.397 33.306 45.4418 33.5147 45.4845C33.9508 45.5635 34.3953 45.6212 34.8439 45.666C34.9186 45.6694 34.989 45.703 35.0394 45.7595C35.0899 45.8159 35.1164 45.8906 35.1131 45.967C35.1098 46.0434 35.0769 46.1154 35.0217 46.167C34.9666 46.2187 34.8936 46.2458 34.8189 46.2424C34.3577 46.2424 33.8944 46.2424 33.427 46.1997C33.1912 46.1805 32.9575 46.157 32.7175 46.1164C32.5965 46.0972 32.4755 46.0737 32.3503 46.0417C32.2898 46.0268 32.2251 46.0097 32.1583 45.9862C32.1228 45.9756 32.0879 45.9627 32.054 45.9478L31.9955 45.9222L31.9621 45.9051L31.9058 45.8731C31.8136 45.8071 31.7509 45.7064 31.7313 45.5931C31.7118 45.4798 31.737 45.3632 31.8015 45.2689C31.8659 45.1746 31.9644 45.1104 32.0751 45.0904C32.1859 45.0704 32.2999 45.0962 32.392 45.1622L32.4066 45.1771Z" fill="#FFE7E6"/>
<path id="Vector_83" d="M32.2355 45.7087L32.2188 45.6852C32.2283 45.6982 32.2395 45.7097 32.2522 45.7194C32.2841 45.7473 32.3183 45.7723 32.3544 45.7941C32.4401 45.8469 32.5302 45.8919 32.6236 45.9286C32.8325 46.0079 33.0475 46.0693 33.2663 46.1122C33.497 46.1556 33.7296 46.1869 33.9633 46.2061C34.1991 46.2275 34.437 46.236 34.677 46.2424C34.7517 46.2424 34.8233 46.2728 34.8762 46.3268C34.929 46.3809 34.9587 46.4542 34.9587 46.5306C34.9587 46.607 34.929 46.6803 34.8762 46.7344C34.8233 46.7884 34.7517 46.8188 34.677 46.8188C34.4266 46.8359 34.1762 46.853 33.9216 46.8551C33.667 46.8572 33.4103 46.8551 33.1516 46.8273C32.8844 46.8023 32.6198 46.7537 32.3607 46.6822C32.2173 46.6432 32.0776 46.5911 31.9434 46.5263C31.871 46.4903 31.8012 46.4489 31.7347 46.4025C31.697 46.3768 31.6608 46.349 31.6262 46.3193C31.6057 46.3019 31.5862 46.2834 31.5677 46.2637L31.5344 46.2275C31.5176 46.208 31.5022 46.1873 31.4884 46.1655C31.4586 46.1176 31.4382 46.0641 31.4286 46.0081C31.4189 45.9521 31.4201 45.8948 31.4321 45.8393C31.4441 45.7838 31.4667 45.7312 31.4986 45.6846C31.5304 45.6381 31.571 45.5984 31.6178 45.5678C31.6647 45.5372 31.717 45.5164 31.7717 45.5065C31.8264 45.4966 31.8825 45.4979 31.9368 45.5102C31.991 45.5225 32.0424 45.5456 32.0879 45.5782C32.1334 45.6108 32.1722 45.6522 32.2021 45.7002L32.2355 45.7087Z" fill="#FFE7E6"/>
<path id="Vector_84" d="M31.9789 46.3897C31.9435 46.3555 31.9539 46.3662 31.9456 46.3598C31.9456 46.3598 31.9456 46.3598 31.956 46.3598C31.9703 46.3701 31.9857 46.3787 32.0019 46.3854C32.0449 46.4068 32.0896 46.4247 32.1354 46.4388C32.2408 46.4733 32.3481 46.5011 32.4568 46.522C32.6915 46.5647 32.9284 46.5939 33.1663 46.6096C33.6605 46.6363 34.1557 46.6363 34.65 46.6096C34.7232 46.6055 34.7951 46.6308 34.8504 46.6802C34.9057 46.7296 34.94 46.799 34.946 46.8738C34.952 46.9487 34.9292 47.0229 34.8825 47.0808C34.8357 47.1387 34.7688 47.1757 34.6959 47.1838C34.1825 47.2583 33.6657 47.3047 33.1475 47.3226C32.8795 47.3306 32.6113 47.3227 32.3441 47.2991C32.2039 47.2854 32.0645 47.2633 31.9268 47.2329C31.8558 47.2158 31.7786 47.1945 31.6993 47.1667C31.6566 47.1515 31.6148 47.1337 31.5741 47.1134C31.5486 47.1031 31.5241 47.0902 31.5011 47.0749C31.4864 47.067 31.4724 47.0577 31.4593 47.0472C31.4329 47.031 31.4083 47.0117 31.3863 46.9896C31.3066 46.9086 31.2616 46.7986 31.2612 46.6837C31.2608 46.5688 31.3051 46.4584 31.3842 46.3769C31.4634 46.2953 31.5709 46.2493 31.6832 46.2489C31.7956 46.2485 31.9034 46.2938 31.9831 46.3747L31.9789 46.3897Z" fill="#FFE7E6"/>
<path id="Vector_85" d="M31.2381 46.4687C31.2381 46.4537 31.2506 46.4879 31.261 46.5028C31.2714 46.5178 31.2923 46.5434 31.3069 46.5647C31.3446 46.6079 31.3851 46.6486 31.4279 46.6864C31.5192 46.7679 31.6185 46.8395 31.7243 46.8999C31.9539 47.0306 32.2015 47.1249 32.4588 47.1796C32.7285 47.2403 33.0029 47.276 33.2789 47.2863H33.6962L34.124 47.2586H34.1407C34.2123 47.2556 34.2823 47.2806 34.3364 47.3285C34.3906 47.3765 34.4249 47.4437 34.4324 47.5166C34.4398 47.5895 34.4198 47.6625 34.3765 47.7209C34.3332 47.7792 34.2698 47.8185 34.1991 47.8307L33.74 47.8969C33.5856 47.914 33.4291 47.9225 33.2747 47.9353C32.9561 47.9493 32.6369 47.9336 32.3211 47.8883C31.9907 47.8442 31.6686 47.7499 31.3653 47.6087C31.2054 47.5334 31.0536 47.4411 30.9125 47.3333C30.8386 47.2774 30.7689 47.2161 30.7039 47.1497C30.6705 47.1134 30.6371 47.0814 30.6037 47.0408C30.5635 46.9942 30.5273 46.9442 30.4952 46.8914C30.4398 46.7912 30.4257 46.6726 30.4558 46.5617C30.4859 46.4508 30.5579 46.3567 30.6559 46.3C30.7538 46.2434 30.8697 46.2289 30.9781 46.2598C31.0865 46.2906 31.1785 46.3642 31.2339 46.4644L31.2381 46.4687Z" fill="#FFE7E6"/>
<path id="Vector_86" d="M15.9653 37.6881H20.2953L19.7506 32.1013L16.343 27.8167C16.343 27.8167 13.1065 30.0006 15.9653 37.6881Z" fill="#FF876B"/>
<path id="Vector_87" d="M19.7945 32.5496C19.9041 32.9681 19.9926 33.392 20.0595 33.8198C20.1304 34.2468 20.1805 34.6738 20.2264 35.1007C20.2723 35.5277 20.3016 35.9547 20.3162 36.3816C20.3363 36.815 20.3293 37.2493 20.2953 37.6817C20.1796 37.2644 20.089 36.8402 20.024 36.4115C19.9552 35.9845 19.903 35.5576 19.8633 35.1306C19.8237 34.7037 19.7924 34.2767 19.7799 33.8497C19.7618 33.4164 19.7666 32.9824 19.7945 32.5496Z" fill="#D95C3F"/>
<path id="Vector_88" d="M15.9654 37.6882C15.6691 37.0937 15.4267 36.4727 15.2413 35.833C15.049 35.1929 14.9026 34.5393 14.8031 33.8775C14.7095 33.2124 14.6753 32.54 14.7008 31.8686C14.7329 31.1976 14.8616 30.5351 15.0827 29.9025C14.9893 30.5548 14.9474 31.2137 14.9575 31.8729C14.9839 32.5268 15.0438 33.1788 15.1369 33.8263C15.235 34.4667 15.3602 35.12 15.5021 35.7626C15.644 36.4051 15.7943 37.0434 15.9654 37.6882Z" fill="#D95C3F"/>
</g>
</svg>
