<svg width="80" height="84" viewBox="0 0 80 84" fill="none" xmlns="http://www.w3.org/2000/svg">
<g id="Group">
<path id="Vector" d="M37.8885 80.5114C37.8885 80.5114 4.9663 78.1566 1.0078 62.5036C-2.95071 46.8506 5.82277 44.7211 8.81889 35.9539C11.815 27.1866 -1.77242 22.016 7.32083 10.0869C16.4141 -1.84223 29.8274 -2.05018 35.4795 3.56804C41.1315 9.18625 47.6493 0.13482 58.1388 5.23315C68.6282 10.3315 71.1987 20.6316 67.8817 28.6789C64.5648 36.7263 78.1675 44.4201 79.8718 53.5428C81.5761 62.6655 66.1831 84.5338 37.8885 80.5114Z" fill="#FFD0DE"/>
<g id="OBJECTS">
<path id="Vector_2" d="M70.0714 56.8487H20.4767C19.384 56.847 18.3367 56.412 17.5643 55.6391C16.792 54.8662 16.3578 53.8184 16.3569 52.7258V12.0641C16.3557 11.5221 16.4613 10.9852 16.6678 10.4841C16.8742 9.98302 17.1774 9.52754 17.5601 9.14373C17.9427 8.75992 18.3972 8.45532 18.8977 8.24735C19.3982 8.03937 19.9347 7.93211 20.4767 7.9317H70.0714C71.164 7.93254 72.2118 8.36675 72.9847 9.13908C73.7576 9.91141 74.1926 10.9588 74.1943 12.0515V52.7132C74.1951 53.2554 74.0891 53.7925 73.8824 54.2938C73.6756 54.7951 73.3722 55.2508 72.9893 55.6348C72.6065 56.0188 72.1517 56.3237 71.6511 56.532C71.1504 56.7402 70.6136 56.8479 70.0714 56.8487ZM20.4767 8.71657C19.5927 8.71823 18.7455 9.07012 18.1204 9.69517C17.4954 10.3202 17.1435 11.1675 17.1418 12.0515V52.7132C17.1426 53.5977 17.4942 54.4458 18.1193 55.0715C18.7444 55.6972 19.5922 56.0495 20.4767 56.0512H70.0714C70.9561 56.0504 71.8044 55.6983 72.4297 55.0724C73.055 54.4465 73.4063 53.5979 73.4063 52.7132V12.0515C73.4054 11.1672 73.0538 10.3195 72.4286 9.69426C71.8033 9.06902 70.9556 8.7174 70.0714 8.71657H20.4767Z" fill="#BF81EA"/>
<path id="Vector_3" d="M45.873 15.194H21.0504C19.8684 15.194 18.9102 16.1523 18.9102 17.3343V44.5303C18.9102 45.7124 19.8684 46.6706 21.0504 46.6706H45.873C47.055 46.6706 48.0132 45.7124 48.0132 44.5303V17.3343C48.0132 16.1523 47.055 15.194 45.873 15.194Z" fill="#EBD4FF"/>
<path id="Vector_4" d="M73.4662 12.9907H16.7478V13.7756H73.4662V12.9907Z" fill="#BF81EA"/>
<path id="Vector_5" d="M70.7144 34.6171H51.1148C50.4185 34.6171 49.854 35.1816 49.854 35.878V38.346C49.854 39.0424 50.4185 39.6069 51.1148 39.6069H70.7144C71.4107 39.6069 71.9752 39.0424 71.9752 38.346V35.878C71.9752 35.1816 71.4107 34.6171 70.7144 34.6171Z" fill="#6085EF"/>
<path id="Vector_6" d="M55.1023 37.0536V37.2711H54.6484V37.725H54.4309V37.2711H53.9675V37.0536H54.4214V36.5966H54.6389V37.0505L55.1023 37.0536Z" fill="white"/>
<path id="Vector_7" d="M56.2623 36.4106H56.6342L57.1543 37.8511H56.7855L56.6878 37.5359H56.2024L56.1047 37.8511H55.739L56.2623 36.4106ZM56.278 37.2901H56.5932L56.5396 37.1167C56.5207 37.06 56.5018 37.0001 56.4829 36.937L56.4325 36.7605C56.4325 36.8141 56.4009 36.8708 56.3789 36.9339L56.3221 37.1167L56.278 37.2901Z" fill="white"/>
<path id="Vector_8" d="M58.0115 36.2152H58.3488V37.8574H58.1155L58.0808 37.7377C58.0532 37.7793 58.0152 37.813 57.9705 37.8354C57.9069 37.8701 57.8349 37.8865 57.7625 37.8827C57.6941 37.8834 57.6264 37.8694 57.5639 37.8417C57.5034 37.8164 57.4495 37.7776 57.4063 37.7282C57.3608 37.6753 57.3255 37.6144 57.3023 37.5485C57.2763 37.4714 57.2635 37.3904 57.2645 37.309C57.2638 37.2289 57.2755 37.1491 57.2991 37.0726C57.3192 37.0051 57.3536 36.9427 57.4 36.8898C57.444 36.8399 57.499 36.801 57.5607 36.7763C57.6295 36.7474 57.7037 36.7334 57.7782 36.7353C57.8262 36.735 57.8739 36.7413 57.9201 36.7542C57.9575 36.7661 57.9927 36.7842 58.0241 36.8078L58.0115 36.2152ZM58.0115 37.0505C57.992 37.0297 57.9697 37.0117 57.9453 36.9969C57.9165 36.9805 57.8839 36.9718 57.8507 36.9717C57.8162 36.9716 57.782 36.978 57.7499 36.9906C57.7186 37.0013 57.6911 37.0211 57.6711 37.0474C57.6443 37.0747 57.6248 37.1083 57.6143 37.1451C57.5994 37.1941 57.592 37.2451 57.5923 37.2964C57.586 37.3859 57.6105 37.4748 57.6616 37.5485C57.6823 37.5745 57.7087 37.5954 57.7388 37.6097C57.7688 37.6239 57.8017 37.631 57.835 37.6305C57.8755 37.6312 57.9152 37.619 57.9485 37.5958C57.9745 37.5766 57.9961 37.5518 58.0115 37.5233V37.0505Z" fill="white"/>
<path id="Vector_9" d="M59.3261 36.2152H59.6633V37.8574H59.4301L59.3954 37.7377C59.3661 37.7778 59.3285 37.8112 59.2851 37.8354C59.2212 37.8694 59.1494 37.8857 59.0771 37.8827C59.0086 37.884 58.9408 37.87 58.8785 37.8417C58.8175 37.8172 58.7634 37.7783 58.7209 37.7282C58.6753 37.6753 58.64 37.6144 58.6168 37.5485C58.5908 37.4714 58.578 37.3904 58.579 37.309C58.5774 37.229 58.588 37.1493 58.6105 37.0726C58.6319 37.0056 58.6662 36.9435 58.7114 36.8898C58.756 36.8406 58.8109 36.8018 58.8722 36.7763C58.9411 36.7479 59.0151 36.734 59.0897 36.7353C59.1386 36.7352 59.1874 36.7415 59.2347 36.7542C59.2713 36.7658 59.3054 36.7839 59.3355 36.8078L59.3261 36.2152ZM59.3261 37.0505C59.3086 37.0289 59.2872 37.0107 59.263 36.9969C59.2329 36.9809 59.1994 36.9722 59.1653 36.9717C59.1318 36.9715 59.0986 36.978 59.0676 36.9906C59.0354 37.0013 59.0069 37.021 58.9856 37.0474C58.961 37.0762 58.9418 37.1093 58.9289 37.1451C58.9152 37.1943 58.9088 37.2453 58.91 37.2964C58.9028 37.3855 58.9261 37.4744 58.9762 37.5485C58.9974 37.5748 59.0243 37.5958 59.0549 37.61C59.0855 37.6242 59.119 37.6312 59.1527 37.6305C59.1923 37.6316 59.2312 37.6194 59.263 37.5958C59.2891 37.5766 59.3106 37.5518 59.3261 37.5233V37.0505Z" fill="white"/>
<path id="Vector_10" d="M61.1385 36.9969H60.858V37.4603C60.856 37.4791 60.8581 37.4981 60.864 37.516C60.87 37.534 60.8798 37.5504 60.8927 37.5643C60.9049 37.5756 60.9193 37.5843 60.935 37.5897C60.9508 37.5951 60.9675 37.5972 60.9841 37.5958C61.0145 37.5989 61.0451 37.5989 61.0755 37.5958C61.1007 37.5908 61.1251 37.5824 61.148 37.5706L61.1984 37.8007C61.1605 37.8197 61.1202 37.8334 61.0786 37.8417C61.0239 37.8545 60.9678 37.8609 60.9116 37.8606C60.8 37.8735 60.6875 37.8443 60.5964 37.7786C60.5653 37.7454 60.5415 37.7061 60.5263 37.6633C60.5111 37.6205 60.5049 37.575 60.5081 37.5296V37.0064H60.3379V36.7542H60.5081V36.4169H60.8454V36.7542H61.1259L61.1385 36.9969Z" fill="white"/>
<path id="Vector_11" d="M62.4338 37.2963C62.4359 37.3794 62.4209 37.462 62.3897 37.539C62.3622 37.608 62.3203 37.6704 62.2668 37.7218C62.2153 37.7732 62.1528 37.812 62.0839 37.8353C62.0117 37.8637 61.9346 37.8776 61.857 37.8763C61.7808 37.8768 61.705 37.864 61.6332 37.8385C61.5666 37.8154 61.5054 37.779 61.4535 37.7313C61.4014 37.6817 61.3605 37.6215 61.3337 37.5548C61.304 37.4795 61.289 37.3993 61.2896 37.3184C61.2885 37.2333 61.3035 37.1488 61.3337 37.0694C61.3627 37.0002 61.4044 36.9371 61.4567 36.8834C61.5098 36.8334 61.5718 36.7939 61.6395 36.7668C61.7125 36.7415 61.7892 36.7287 61.8664 36.7289C61.9435 36.7271 62.0204 36.7389 62.0934 36.7636C62.1607 36.7866 62.2221 36.8243 62.2731 36.8739C62.3242 36.9243 62.3649 36.9843 62.3928 37.0505C62.4222 37.129 62.4362 37.2125 62.4338 37.2963ZM62.0871 37.2963C62.0882 37.2452 62.0819 37.1942 62.0682 37.145C62.0579 37.1075 62.0408 37.0723 62.0177 37.041C61.9988 37.0162 61.9739 36.9967 61.9452 36.9843C61.9185 36.972 61.8895 36.9656 61.8601 36.9653C61.833 36.9606 61.8053 36.9606 61.7782 36.9653C61.7488 36.9765 61.7235 36.9962 61.7057 37.0221C61.6825 37.0517 61.6663 37.0862 61.6584 37.123C61.6445 37.1743 61.6382 37.2274 61.6395 37.2806C61.6311 37.3683 61.6558 37.456 61.7088 37.5264C61.7277 37.5503 61.7517 37.5697 61.7789 37.5833C61.8061 37.5969 61.836 37.6044 61.8664 37.6052C61.8949 37.6054 61.9229 37.5989 61.9484 37.5863C61.977 37.5754 62.0021 37.5569 62.0209 37.5327C62.0422 37.502 62.0582 37.4679 62.0682 37.4319C62.0796 37.3908 62.086 37.3484 62.0871 37.3058V37.2963Z" fill="white"/>
<path id="Vector_12" d="M63.7672 37.6305C63.8113 37.6323 63.8554 37.6247 63.8964 37.6084C63.9261 37.6003 63.9546 37.5886 63.9815 37.5737L64.0446 37.8038C64.0038 37.8253 63.9603 37.8412 63.9153 37.8511C63.8494 37.8678 63.7816 37.8763 63.7136 37.8763C63.6332 37.8771 63.5533 37.8643 63.4772 37.8385C63.4072 37.8168 63.3427 37.7802 63.2881 37.7313C63.2332 37.6816 63.1901 37.6202 63.162 37.5517C63.1314 37.4734 63.1164 37.3899 63.1179 37.3058C63.1158 37.2258 63.1308 37.1463 63.162 37.0726C63.1886 37.0031 63.2307 36.9406 63.2849 36.8897C63.3389 36.837 63.4033 36.7962 63.4741 36.77C63.5527 36.7411 63.6361 36.7272 63.7199 36.729C63.7712 36.7232 63.823 36.7232 63.8744 36.729C63.9337 36.7404 63.9911 36.7606 64.0446 36.7889L63.9752 37.0221C63.9424 37.0026 63.9075 36.9868 63.8712 36.9748C63.8347 36.9624 63.7963 36.956 63.7577 36.9559C63.7183 36.9545 63.679 36.961 63.6422 36.9751C63.6054 36.9891 63.5718 37.0105 63.5434 37.0379C63.5143 37.0709 63.4921 37.1093 63.478 37.151C63.4639 37.1927 63.4583 37.2367 63.4614 37.2806C63.4596 37.3335 63.4693 37.3862 63.4898 37.435C63.5038 37.475 63.5277 37.5108 63.5592 37.5391C63.5863 37.5661 63.6199 37.5857 63.6569 37.5958C63.6915 37.6133 63.7288 37.6251 63.7672 37.6305Z" fill="white"/>
<path id="Vector_13" d="M64.2433 36.8488C64.3094 36.81 64.3805 36.7803 64.4545 36.7605C64.5336 36.739 64.6153 36.7284 64.6972 36.729C64.8102 36.7255 64.9212 36.7599 65.0124 36.8267C65.056 36.8661 65.0898 36.9151 65.1111 36.9698C65.1324 37.0245 65.1407 37.0834 65.1354 37.1419V37.8574H64.8769L64.8485 37.7471C64.8147 37.7904 64.7701 37.8241 64.7193 37.8448C64.6598 37.8712 64.5952 37.8841 64.5302 37.8827C64.4755 37.8844 64.4209 37.8759 64.3694 37.8574C64.3253 37.8428 64.2854 37.818 64.2528 37.7849C64.2226 37.7543 64.199 37.7178 64.1834 37.6778C64.1672 37.6344 64.1587 37.5885 64.1582 37.5422C64.1577 37.4846 64.1729 37.4279 64.2023 37.3783C64.2297 37.3313 64.2688 37.2923 64.3158 37.2649C64.3684 37.234 64.426 37.2126 64.486 37.2018C64.5545 37.1876 64.6242 37.1802 64.6941 37.1797H64.8075V37.123C64.8085 37.1044 64.8051 37.0858 64.7974 37.0688C64.7897 37.0518 64.778 37.0369 64.7634 37.0253C64.727 37.0016 64.6838 36.9905 64.6405 36.9938C64.5946 36.9936 64.549 37 64.5049 37.0127C64.4551 37.0313 64.4066 37.0534 64.36 37.0789L64.2433 36.8488ZM64.8107 37.3783H64.735C64.6995 37.3727 64.6634 37.3727 64.6279 37.3783C64.602 37.3827 64.5774 37.3924 64.5554 37.4067C64.5404 37.4179 64.5276 37.4318 64.5176 37.4477C64.5142 37.4643 64.5142 37.4815 64.5176 37.4981C64.5149 37.5161 64.5173 37.5345 64.5246 37.5512C64.5318 37.5679 64.5436 37.5823 64.5585 37.5927C64.5874 37.6119 64.6215 37.6218 64.6562 37.621C64.6922 37.6203 64.7272 37.6094 64.7571 37.5895C64.7832 37.5703 64.8047 37.5455 64.8201 37.517L64.8107 37.3783Z" fill="white"/>
<path id="Vector_14" d="M65.397 37.8574V36.7542H65.6618L65.6964 36.9465C65.7089 36.9168 65.7259 36.8891 65.7469 36.8645C65.7659 36.8377 65.7893 36.8142 65.8162 36.7952C65.8449 36.7735 65.8768 36.7565 65.9108 36.7448C65.9504 36.7382 65.9909 36.7382 66.0305 36.7448C66.0619 36.74 66.0938 36.74 66.1251 36.7448C66.149 36.7491 66.1717 36.7588 66.1913 36.7731L66.1377 37.0348C66.1174 37.0247 66.0963 37.0163 66.0747 37.0095C66.0422 37.006 66.0094 37.006 65.977 37.0095C65.9117 37.0076 65.8483 37.0314 65.8004 37.0757C65.7481 37.1441 65.7234 37.2296 65.7311 37.3153V37.8574H65.397Z" fill="white"/>
<path id="Vector_15" d="M67.0517 36.9969H66.768V37.4603C66.766 37.4791 66.7681 37.4981 66.774 37.516C66.78 37.534 66.7898 37.5504 66.8027 37.5643C66.815 37.5754 66.8294 37.584 66.8451 37.5894C66.8608 37.5948 66.8775 37.597 66.8941 37.5958C66.9244 37.5991 66.9551 37.5991 66.9855 37.5958C67.0108 37.5914 67.0353 37.5828 67.058 37.5706L67.1084 37.8007C67.0707 37.8202 67.0303 37.834 66.9886 37.8417C66.9339 37.8547 66.8778 37.8611 66.8216 37.8606C66.7151 37.871 66.6085 37.8418 66.5221 37.7786C66.4903 37.746 66.4659 37.7068 66.4506 37.6638C66.4354 37.6208 66.4297 37.575 66.4339 37.5296V37.0064H66.2605V36.7542H66.4339V36.4169H66.768V36.7542H67.0517V36.9969Z" fill="white"/>
<path id="Vector_16" d="M70.8153 45.9142H51.2125C50.8525 45.9133 50.5074 45.7699 50.2528 45.5153C49.9982 45.2607 49.8548 44.9157 49.854 44.5556V42.0875C49.8548 41.7275 49.9982 41.3824 50.2528 41.1278C50.5074 40.8732 50.8525 40.7298 51.2125 40.729H70.8153C71.1756 40.729 71.5211 40.8721 71.7759 41.1269C72.0307 41.3817 72.1738 41.7272 72.1738 42.0875V44.5556C72.1738 44.9159 72.0307 45.2615 71.7759 45.5163C71.5211 45.771 71.1756 45.9142 70.8153 45.9142ZM51.2125 40.9244C50.9046 40.9253 50.6096 41.0482 50.3921 41.2662C50.1747 41.4842 50.0526 41.7796 50.0526 42.0875V44.5556C50.0526 44.8635 50.1747 45.1589 50.3921 45.377C50.6096 45.595 50.9046 45.7179 51.2125 45.7187H70.8153C71.1238 45.7187 71.4196 45.5962 71.6377 45.3781C71.8558 45.1599 71.9784 44.8641 71.9784 44.5556V42.0875C71.9776 41.7793 71.8547 41.484 71.6368 41.266C71.4189 41.0481 71.1235 40.9253 70.8153 40.9244H51.2125Z" fill="#6085EF"/>
<path id="Vector_17" d="M61.2802 30.4343H51.1305C50.7705 30.4335 50.4254 30.2901 50.1708 30.0355C49.9162 29.7809 49.7728 29.4358 49.772 29.0758V26.6045C49.7736 26.245 49.9174 25.9008 50.1719 25.6469C50.4264 25.3929 50.771 25.25 51.1305 25.2491H61.2802C61.6402 25.25 61.9853 25.3934 62.2399 25.648C62.4945 25.9026 62.6379 26.2476 62.6387 26.6077V29.0789C62.6371 29.4384 62.4933 29.7827 62.2388 30.0366C61.9843 30.2905 61.6397 30.4335 61.2802 30.4343ZM51.1305 25.4446C50.8229 25.4446 50.5278 25.5668 50.3103 25.7843C50.0928 26.0019 49.9706 26.2969 49.9706 26.6045V29.0758C49.9706 29.3834 50.0928 29.6784 50.3103 29.896C50.5278 30.1135 50.8229 30.2357 51.1305 30.2357H61.2802C61.5881 30.2357 61.8835 30.1136 62.1015 29.8962C62.3195 29.6787 62.4425 29.3837 62.4433 29.0758V26.6045C62.4425 26.2966 62.3195 26.0016 62.1015 25.7841C61.8835 25.5667 61.5881 25.4446 61.2802 25.4446H51.1305Z" fill="#6085EF"/>
<path id="Vector_18" d="M56.5458 42.6202C56.6765 42.6124 56.8061 42.6478 56.9146 42.7211C56.9597 42.7514 56.9961 42.7929 57.0204 42.8415C57.0447 42.8901 57.056 42.9442 57.0533 42.9984C57.0535 43.0397 57.0449 43.0806 57.0281 43.1182C57.0126 43.1522 56.9913 43.1831 56.965 43.2096C56.9394 43.2341 56.9108 43.2553 56.8799 43.2727C56.8506 43.2888 56.8185 43.2995 56.7854 43.3042C56.8263 43.3135 56.8663 43.3261 56.9052 43.342C56.9413 43.3596 56.9743 43.383 57.0029 43.4114C57.0321 43.441 57.0546 43.4764 57.0691 43.5154C57.0874 43.5582 57.096 43.6044 57.0943 43.6509C57.0948 43.7078 57.0819 43.764 57.0565 43.8148C57.0303 43.8669 56.9912 43.9114 56.943 43.9441C56.8905 43.9841 56.8305 44.0131 56.7665 44.0292C56.6908 44.0515 56.6121 44.0622 56.5332 44.0607H56.0037V42.6202H56.5458ZM56.3504 43.1876H56.4891C56.543 43.1899 56.5962 43.1744 56.6404 43.1434C56.6572 43.1285 56.6704 43.11 56.6791 43.0892C56.6878 43.0685 56.6918 43.0461 56.6908 43.0237C56.6918 43.003 56.6878 42.9825 56.679 42.9638C56.6702 42.9451 56.6569 42.9289 56.6404 42.9165C56.5955 42.8876 56.5423 42.8743 56.4891 42.8787H56.3472L56.3504 43.1876ZM56.3504 43.7991H56.4891C56.5526 43.8023 56.6158 43.7881 56.6719 43.7581C56.6934 43.7426 56.7109 43.7223 56.7229 43.6987C56.735 43.6751 56.7413 43.649 56.7413 43.6226C56.7413 43.5961 56.735 43.57 56.7229 43.5464C56.7109 43.5229 56.6934 43.5025 56.6719 43.487C56.6174 43.4558 56.5549 43.4415 56.4922 43.446H56.3535L56.3504 43.7991Z" fill="#0F4593"/>
<path id="Vector_19" d="M58.0146 42.9637H58.3519V44.0607H58.1029L58.0682 43.9409L58.0146 43.9913C57.9897 44.0092 57.9633 44.025 57.9358 44.0386C57.9033 44.053 57.8695 44.0646 57.835 44.0733C57.792 44.0784 57.7487 44.0784 57.7057 44.0733C57.6548 44.0766 57.6037 44.0696 57.5556 44.0529C57.5074 44.0361 57.463 44.0098 57.4252 43.9756C57.3898 43.9364 57.3627 43.8906 57.3454 43.8408C57.328 43.791 57.3209 43.7382 57.3243 43.6856V42.9637H57.6648V43.6698C57.6628 43.6925 57.6654 43.7153 57.6725 43.737C57.6795 43.7587 57.6908 43.7787 57.7057 43.7959C57.7354 43.8217 57.7737 43.8352 57.8129 43.8337C57.8591 43.8361 57.9051 43.8251 57.9453 43.8022C57.9749 43.7831 58.0014 43.7598 58.0241 43.7329L58.0146 42.9637Z" fill="#0F4593"/>
<path id="Vector_20" d="M58.5002 42.9637H58.8722L59.0519 43.4523L59.1275 43.7202L59.1968 43.446L59.3545 42.9637H59.7012L59.3261 44.0827C59.3069 44.146 59.2815 44.2072 59.2504 44.2656C59.2218 44.3248 59.1869 44.3808 59.1464 44.4326C59.1003 44.4855 59.0485 44.533 58.992 44.5745C58.9265 44.6203 58.8541 44.6554 58.7776 44.6785L58.6389 44.4168C58.7229 44.3878 58.7993 44.3404 58.8627 44.2782C58.9192 44.2215 58.9595 44.1508 58.9794 44.0733V44.0544L58.5002 42.9637Z" fill="#0F4593"/>
<path id="Vector_21" d="M60.4041 42.6202H60.7193L61.0345 43.1025C61.0912 43.1876 61.1448 43.279 61.1984 43.3673C61.2442 43.4473 61.2842 43.5306 61.3182 43.6163C61.3182 43.5217 61.3182 43.4303 61.3182 43.3389C61.3182 43.2475 61.3182 43.1561 61.3182 43.0647V42.6202H61.6334V44.0607H61.3182L60.984 43.569C60.9291 43.4899 60.8786 43.4079 60.8327 43.3231C60.7856 43.2376 60.7466 43.148 60.7161 43.0552C60.7161 43.1529 60.7161 43.2443 60.7319 43.3326V44.0607H60.4167L60.4041 42.6202Z" fill="#0F4593"/>
<path id="Vector_22" d="M63.0075 43.5059C63.0086 43.5892 62.9925 43.6718 62.9602 43.7486C62.9327 43.8169 62.892 43.879 62.8404 43.9315C62.7873 43.9822 62.7239 44.0209 62.6545 44.0449C62.5832 44.073 62.5072 44.0869 62.4307 44.0859C62.3534 44.0867 62.2766 44.0739 62.2037 44.0481C62.1371 44.0251 62.076 43.9886 62.0241 43.9409C61.9719 43.8914 61.9311 43.8311 61.9043 43.7644C61.8434 43.6083 61.8434 43.4351 61.9043 43.279C61.9309 43.2094 61.9717 43.146 62.0241 43.093C62.0778 43.0423 62.141 43.0027 62.21 42.9764C62.3564 42.928 62.5144 42.928 62.6608 42.9764C62.7281 42.9994 62.7895 43.037 62.8404 43.0867C62.8926 43.1363 62.9334 43.1965 62.9602 43.2632C62.9915 43.3403 63.0075 43.4227 63.0075 43.5059ZM62.6576 43.5059C62.6588 43.4548 62.6524 43.4039 62.6387 43.3546C62.6297 43.3167 62.6125 43.2812 62.5883 43.2506C62.5694 43.2258 62.5444 43.2063 62.5158 43.1939C62.4891 43.1816 62.4601 43.1752 62.4307 43.175C62.4036 43.1702 62.3758 43.1702 62.3487 43.175C62.3193 43.1861 62.2941 43.2059 62.2762 43.2317C62.2537 43.2617 62.2376 43.2961 62.2289 43.3326C62.2151 43.3839 62.2087 43.437 62.21 43.4902C62.2016 43.5779 62.2264 43.6656 62.2794 43.736C62.2978 43.7604 62.3216 43.7802 62.349 43.7939C62.3763 43.8075 62.4064 43.8147 62.437 43.8148C62.4654 43.815 62.4935 43.8085 62.5189 43.7959C62.5476 43.785 62.5726 43.7665 62.5914 43.7423C62.6139 43.7123 62.63 43.678 62.6387 43.6415C62.649 43.6055 62.6553 43.5685 62.6576 43.5311V43.5059Z" fill="#0F4593"/>
<path id="Vector_23" d="M63.0896 42.9637H63.4426L63.5687 43.5091L63.6097 43.8243L63.657 43.5091L63.7767 42.9637H64.1298L64.2496 43.5091L64.2968 43.8243L64.3441 43.5091L64.4639 42.9637H64.8075L64.5143 44.0607H64.1172L63.9879 43.4933L63.9407 43.2285L63.8934 43.4933L63.7673 44.0607H63.367L63.0896 42.9637Z" fill="#0F4593"/>
<path id="Vector_24" d="M51.1748 22.2043C51.2616 22.2053 51.3483 22.1968 51.4333 22.1791C51.4951 22.163 51.5545 22.1386 51.6098 22.1066L51.7106 22.4754C51.6427 22.5136 51.5694 22.5412 51.4931 22.5573C51.3715 22.5875 51.2465 22.6012 51.1212 22.5983C50.9632 22.6004 50.8062 22.5737 50.6578 22.5195C50.5243 22.4712 50.402 22.3961 50.2985 22.2988C50.1985 22.1993 50.1202 22.0802 50.0684 21.949C50.0097 21.8027 49.9808 21.6463 49.9833 21.4888C49.9819 21.3347 50.0097 21.1817 50.0653 21.038C50.112 20.905 50.1898 20.785 50.2922 20.6881C50.3945 20.5886 50.5171 20.5122 50.6515 20.4643C50.8039 20.4083 50.9652 20.3805 51.1275 20.3824C51.2509 20.3797 51.374 20.3946 51.4931 20.4265C51.569 20.4484 51.6429 20.4769 51.7138 20.5116L51.6003 20.8899C51.5417 20.8563 51.4793 20.8298 51.4143 20.8111C51.3377 20.7878 51.258 20.7762 51.1779 20.7764C51.0911 20.7754 51.0048 20.7892 50.9226 20.8174C50.8455 20.8413 50.7752 20.8835 50.7177 20.9403C50.6549 21.0007 50.6073 21.0753 50.579 21.1578C50.544 21.2591 50.5269 21.3658 50.5286 21.473C50.5264 21.58 50.5424 21.6866 50.5759 21.7882C50.6055 21.8729 50.6527 21.9502 50.7146 22.0152C50.7715 22.0748 50.8417 22.1202 50.9195 22.1475C51.0001 22.1828 51.0868 22.2021 51.1748 22.2043Z" fill="#0F4593"/>
<path id="Vector_25" d="M53.5419 21.7378C53.5434 21.8607 53.5209 21.9828 53.4757 22.0971C53.4346 22.1986 53.3735 22.2908 53.296 22.3682C53.2188 22.4436 53.1264 22.5016 53.0249 22.5384C52.9173 22.5795 52.8029 22.5998 52.6877 22.5983C52.5738 22.5993 52.4607 22.5801 52.3536 22.5416C52.2544 22.5083 52.164 22.4534 52.0888 22.3808C52.0108 22.3094 51.9504 22.2209 51.9123 22.1223C51.8668 22.0114 51.8443 21.8924 51.8461 21.7725C51.8441 21.6454 51.8665 21.5191 51.9123 21.4005C51.9533 21.2973 52.0156 21.2039 52.0951 21.1263C52.1718 21.0503 52.2644 20.9922 52.3662 20.9561C52.4727 20.9151 52.5861 20.8947 52.7003 20.8962C52.8138 20.8955 52.9267 20.9136 53.0344 20.9498C53.1335 20.9849 53.2246 21.0396 53.3023 21.1105C53.3788 21.1857 53.4389 21.2758 53.4788 21.3753C53.5225 21.4911 53.5439 21.6141 53.5419 21.7378ZM53.0281 21.7378C53.0298 21.6622 53.0203 21.5868 52.9997 21.514C52.9842 21.4583 52.9586 21.4059 52.9241 21.3595C52.8961 21.3226 52.8593 21.2933 52.8169 21.2744C52.7775 21.2557 52.7344 21.246 52.6908 21.2461C52.6486 21.2462 52.6068 21.2547 52.5679 21.2713C52.5263 21.287 52.4902 21.3143 52.4639 21.3501C52.43 21.3957 52.4044 21.4469 52.3882 21.5014C52.3703 21.5789 52.3619 21.6583 52.363 21.7378C52.3528 21.8667 52.3886 21.9951 52.4639 22.1003C52.4922 22.1352 52.5276 22.1637 52.5679 22.1838C52.6081 22.204 52.6522 22.2152 52.6971 22.2169C52.7404 22.2164 52.7831 22.2079 52.8232 22.1917C52.8633 22.172 52.8988 22.1441 52.9272 22.1097C52.9613 22.0658 52.9859 22.0154 52.9997 21.9616C53.0166 21.8936 53.0241 21.8236 53.0218 21.7536L53.0281 21.7378Z" fill="#0F4593"/>
<path id="Vector_26" d="M55.4616 21.7378C55.4631 21.8607 55.4406 21.9828 55.3954 22.0971C55.3543 22.1986 55.2932 22.2908 55.2157 22.3682C55.1385 22.4435 55.046 22.5015 54.9446 22.5384C54.837 22.5794 54.7225 22.5997 54.6074 22.5983C54.4935 22.5992 54.3804 22.58 54.2732 22.5415C54.1745 22.5076 54.0842 22.4527 54.0085 22.3808C53.9305 22.3094 53.8701 22.2209 53.8319 22.1223C53.7865 22.0113 53.764 21.8923 53.7658 21.7724C53.7637 21.6454 53.7862 21.5191 53.8319 21.4005C53.873 21.2973 53.9352 21.2038 54.0148 21.1263C54.0915 21.0503 54.1841 20.9922 54.2858 20.956C54.3934 20.9148 54.5079 20.8945 54.6231 20.8962C54.7367 20.8958 54.8495 20.9139 54.9572 20.9497C55.055 20.9857 55.145 21.0403 55.222 21.1105C55.2984 21.1857 55.3585 21.2758 55.3985 21.3753C55.4437 21.4906 55.4652 21.6139 55.4616 21.7378ZM54.9478 21.7378C54.9495 21.6622 54.94 21.5867 54.9194 21.514C54.9049 21.4585 54.8803 21.4061 54.8469 21.3595C54.8169 21.3233 54.7793 21.2942 54.7366 21.2744C54.6972 21.2557 54.6541 21.246 54.6105 21.246C54.5683 21.2468 54.5267 21.2554 54.4876 21.2713C54.446 21.2869 54.4099 21.3143 54.3836 21.3501C54.3497 21.3957 54.3241 21.4469 54.3079 21.5014C54.29 21.5789 54.2815 21.6582 54.2827 21.7378C54.2725 21.8667 54.3082 21.9951 54.3836 22.1002C54.4119 22.1352 54.4473 22.1637 54.4876 22.1838C54.5278 22.2039 54.5719 22.2152 54.6168 22.2169C54.66 22.2164 54.7028 22.2078 54.7429 22.1917C54.783 22.172 54.8184 22.1441 54.8469 22.1097C54.8809 22.0658 54.9056 22.0154 54.9194 21.9616C54.9384 21.8939 54.948 21.8238 54.9478 21.7535V21.7378Z" fill="#0F4593"/>
<path id="Vector_27" d="M55.783 22.5604V20.1365H56.2778V22.5604H55.783Z" fill="#0F4593"/>
<path id="Vector_28" d="M58.2606 20.4233C58.4175 20.4214 58.5738 20.4437 58.724 20.4895C58.8541 20.5276 58.9745 20.5932 59.077 20.6818C59.1759 20.768 59.2536 20.8759 59.3039 20.997C59.3609 21.1381 59.3888 21.2893 59.3859 21.4415C59.3892 21.6115 59.3559 21.7803 59.2882 21.9363C59.23 22.0703 59.1415 22.189 59.0297 22.2831C58.9161 22.3758 58.7855 22.4454 58.6452 22.4879C58.4927 22.5328 58.3344 22.5551 58.1755 22.5541H57.4978V20.4233H58.2606ZM58.0147 22.1664H58.1471C58.2353 22.167 58.3232 22.1564 58.4088 22.1349C58.4907 22.1121 58.5669 22.0724 58.6326 22.0183C58.6997 21.9565 58.7515 21.8798 58.7838 21.7945C58.8249 21.6836 58.8442 21.5659 58.8406 21.4478C58.8467 21.3617 58.8343 21.2752 58.8045 21.1943C58.7746 21.1133 58.7278 21.0396 58.6672 20.9781C58.5386 20.8658 58.3712 20.8081 58.2007 20.8173H58.0147V22.1664Z" fill="#0F4593"/>
<path id="Vector_29" d="M59.7043 22.5605V20.934H60.0984L60.1488 21.2177C60.1687 21.1753 60.193 21.1352 60.2213 21.0979C60.2514 21.0578 60.2875 21.0227 60.3285 20.9939C60.371 20.964 60.4177 20.9406 60.4671 20.9245C60.525 20.9049 60.5857 20.8953 60.6468 20.8962C60.6927 20.8956 60.7384 20.902 60.7824 20.9151C60.8177 20.924 60.8517 20.9378 60.8832 20.9561L60.8013 21.3469L60.7067 21.3091C60.6596 21.3034 60.612 21.3034 60.5649 21.3091C60.5172 21.3079 60.4699 21.3163 60.4255 21.3336C60.3811 21.3509 60.3406 21.3769 60.3064 21.41C60.227 21.5096 60.1897 21.6363 60.2024 21.763V22.5762L59.7043 22.5605Z" fill="#0F4593"/>
<path id="Vector_30" d="M62.4306 21.8922H61.3778C61.3748 21.9415 61.3856 21.9906 61.409 22.034C61.4324 22.0775 61.4674 22.1135 61.5102 22.1381C61.6122 22.1948 61.7278 22.222 61.8443 22.2169C61.9261 22.218 62.0077 22.2084 62.0871 22.1885C62.1484 22.1753 62.2078 22.1541 62.2636 22.1255L62.355 22.4722C62.281 22.5049 62.2039 22.5303 62.1249 22.5479C62.011 22.5724 61.8947 22.5841 61.7781 22.5825C61.6609 22.583 61.5442 22.567 61.4314 22.5352C61.3271 22.5034 61.2297 22.4521 61.1446 22.3839C61.0599 22.3137 60.9921 22.2254 60.946 22.1255C60.8954 22.007 60.8707 21.8791 60.8735 21.7504C60.8718 21.63 60.8921 21.5104 60.9334 21.3973C60.9695 21.2944 61.0264 21.2 61.1005 21.12C61.1731 21.0434 61.2612 20.9832 61.3589 20.9434C61.4647 20.8996 61.5785 20.8781 61.693 20.8804C61.7914 20.8753 61.8898 20.8906 61.982 20.9253C62.0742 20.9601 62.1583 21.0134 62.2289 21.0821C62.2996 21.1604 62.3539 21.252 62.3886 21.3517C62.4232 21.4513 62.4375 21.5569 62.4306 21.6621V21.8922ZM61.9168 21.5518C61.9218 21.5141 61.9218 21.476 61.9168 21.4383C61.9084 21.4038 61.8946 21.3708 61.8759 21.3406C61.857 21.3122 61.8309 21.2894 61.8002 21.2744C61.7665 21.2558 61.7283 21.2471 61.6899 21.2492C61.6534 21.2483 61.6171 21.2551 61.5834 21.2692C61.5497 21.2834 61.5194 21.3045 61.4945 21.3312C61.4379 21.3935 61.4055 21.474 61.4031 21.5581L61.9168 21.5518Z" fill="#0F4593"/>
<path id="Vector_31" d="M63.7388 21.35C63.6775 21.3199 63.613 21.2967 63.5465 21.2807C63.4826 21.2648 63.417 21.2563 63.3511 21.2555C63.3008 21.2529 63.2508 21.2638 63.2061 21.287C63.1903 21.2942 63.1769 21.3057 63.1674 21.3202C63.1579 21.3347 63.1528 21.3516 63.1525 21.369C63.1526 21.3884 63.1575 21.4076 63.1669 21.4246C63.1762 21.4417 63.1897 21.4562 63.2061 21.4667C63.271 21.5048 63.3411 21.5335 63.4141 21.5518L63.515 21.5802C63.6349 21.609 63.7442 21.6713 63.8302 21.7598C63.8688 21.8021 63.8983 21.852 63.9167 21.9062C63.9351 21.9605 63.9422 22.0179 63.9374 22.075C63.9375 22.1514 63.9203 22.2269 63.887 22.2957C63.853 22.3641 63.8033 22.4235 63.742 22.469C63.6743 22.5177 63.5985 22.554 63.5182 22.5762C63.4238 22.6024 63.3261 22.6151 63.2282 22.614C63.1222 22.6163 63.0164 22.6057 62.913 22.5825C62.8263 22.5645 62.7426 22.5348 62.664 22.4943L62.7743 22.1318C62.8397 22.1666 62.9083 22.1951 62.9792 22.2169C63.05 22.2368 63.1231 22.2474 63.1967 22.2484C63.26 22.2545 63.3237 22.2413 63.3795 22.2106C63.3971 22.1981 63.4108 22.1806 63.4186 22.1605C63.4265 22.1403 63.4282 22.1182 63.4236 22.0971C63.4269 22.0794 63.4269 22.0612 63.4236 22.0435C63.412 22.0268 63.3969 22.0129 63.3795 22.0025C63.3528 21.9864 63.3242 21.9737 63.2944 21.9647L63.1494 21.9174L63.0454 21.8859C62.9323 21.8573 62.8303 21.7959 62.7522 21.7094C62.6863 21.618 62.654 21.5066 62.6608 21.3942C62.6608 21.3235 62.6759 21.2537 62.7049 21.1893C62.7348 21.1272 62.7778 21.0724 62.831 21.0285C62.8916 20.9789 62.9611 20.9415 63.0359 20.9182C63.126 20.8919 63.2195 20.8792 63.3133 20.8804C63.4107 20.8798 63.5078 20.8894 63.6033 20.9088C63.687 20.9255 63.7684 20.9519 63.846 20.9876L63.7388 21.35Z" fill="#0F4593"/>
<path id="Vector_32" d="M65.2487 21.35C65.1871 21.3204 65.1227 21.2971 65.0564 21.2807C64.9924 21.265 64.9269 21.2565 64.861 21.2555C64.8107 21.2529 64.7607 21.2638 64.716 21.287C64.7002 21.2942 64.6868 21.3057 64.6773 21.3202C64.6678 21.3347 64.6626 21.3516 64.6624 21.3689C64.6625 21.3884 64.6674 21.4075 64.6768 21.4246C64.6861 21.4417 64.6996 21.4561 64.716 21.4667C64.7809 21.5048 64.851 21.5335 64.924 21.5518L65.0249 21.5801C65.1448 21.609 65.2541 21.6713 65.3401 21.7598C65.3781 21.8025 65.4071 21.8524 65.4255 21.9066C65.4439 21.9607 65.4513 22.018 65.4473 22.075C65.4478 22.1518 65.4294 22.2276 65.3937 22.2956C65.361 22.364 65.3123 22.4234 65.2518 22.469C65.1842 22.5177 65.1084 22.554 65.028 22.5762C64.9336 22.6021 64.836 22.6149 64.738 22.614C64.6321 22.6163 64.5262 22.6057 64.4228 22.5825C64.3361 22.5649 64.2523 22.5352 64.1738 22.4942L64.2841 22.1317C64.3493 22.1671 64.418 22.1956 64.489 22.2168C64.5598 22.237 64.6329 22.2476 64.7065 22.2484C64.7699 22.2545 64.8336 22.2413 64.8893 22.2105C64.9046 22.2014 64.9172 22.1884 64.9261 22.173C64.9349 22.1575 64.9396 22.1401 64.9398 22.1223C64.943 22.1046 64.943 22.0864 64.9398 22.0687C64.9282 22.052 64.9131 22.0381 64.8957 22.0277C64.869 22.0116 64.8404 21.9989 64.8105 21.9899L64.6656 21.9426L64.5615 21.9111C64.4481 21.8834 64.3459 21.8219 64.2684 21.7346C64.2025 21.6432 64.1702 21.5318 64.177 21.4194C64.177 21.3487 64.192 21.2789 64.2211 21.2145C64.251 21.1524 64.294 21.0976 64.3472 21.0537C64.4073 21.0035 64.477 20.966 64.5521 20.9434C64.6421 20.9168 64.7356 20.904 64.8295 20.9056C64.9268 20.905 65.024 20.9145 65.1194 20.934C65.2031 20.9507 65.2846 20.9771 65.3622 21.0128L65.2487 21.35Z" fill="#0F4593"/>
<path id="Vector_33" d="M56.1455 26.7432H56.5679V28.8803H56.0699V27.194L55.6664 27.3862L55.5435 27.0206L56.1455 26.7432Z" fill="#0F4593"/>
<g id="Group_2" opacity="0.25">
<path id="Vector_34" d="M61.1635 27.7015V28.0167H60.4858V28.6912H60.1706V28.0198H59.4961V27.7046H60.1706V27.0269H60.4858V27.7015H61.1635Z" fill="#6085EF"/>
</g>
<g id="Group_3" opacity="0.25">
<path id="Vector_35" d="M52.2558 27.7172V28.086H51.5088V27.7172H52.2558Z" fill="#6085EF"/>
</g>
<g id="Group_4" opacity="0.25">
<path id="Vector_36" d="M33.6083 49.4066H19.424C19.3584 49.407 19.2933 49.3944 19.2325 49.3696C19.1717 49.3447 19.1164 49.3081 19.0698 49.2618C19.0233 49.2156 18.9863 49.1605 18.9611 49.0999C18.9358 49.0392 18.9229 48.9742 18.9229 48.9086C18.9237 48.7762 18.9769 48.6495 19.0708 48.5562C19.1647 48.4629 19.2917 48.4105 19.424 48.4105H33.6083C33.674 48.4101 33.7391 48.4227 33.7999 48.4475C33.8607 48.4724 33.916 48.509 33.9625 48.5553C34.0091 48.6016 34.0461 48.6566 34.0713 48.7172C34.0965 48.7779 34.1095 48.8429 34.1095 48.9086C34.1095 48.9742 34.0965 49.0392 34.0713 49.0999C34.0461 49.1605 34.0091 49.2156 33.9625 49.2618C33.916 49.3081 33.8607 49.3447 33.7999 49.3696C33.7391 49.3944 33.674 49.407 33.6083 49.4066Z" fill="#6085EF"/>
</g>
<g id="Group_5" opacity="0.25">
<path id="Vector_37" d="M47.3481 51.5154H19.4113C19.3455 51.5154 19.2803 51.5024 19.2195 51.4772C19.1587 51.452 19.1035 51.4151 19.0569 51.3686C19.0104 51.322 18.9735 51.2668 18.9483 51.206C18.9231 51.1452 18.9102 51.08 18.9102 51.0142C18.911 50.8818 18.9642 50.7552 19.0581 50.6618C19.152 50.5685 19.279 50.5162 19.4113 50.5162H47.3481C47.4802 50.5162 47.6069 50.5686 47.7003 50.662C47.7937 50.7554 47.8462 50.8821 47.8462 51.0142C47.8462 51.1466 47.7938 51.2736 47.7005 51.3675C47.6072 51.4614 47.4805 51.5145 47.3481 51.5154Z" fill="#6085EF"/>
</g>
<g id="Group_6" opacity="0.25">
<path id="Vector_38" d="M47.3481 53.6178H19.4113C19.279 53.6178 19.152 53.5654 19.0581 53.4721C18.9642 53.3788 18.911 53.2521 18.9102 53.1197C18.9102 53.0541 18.9231 52.9891 18.9484 52.9284C18.9736 52.8678 19.0106 52.8128 19.0571 52.7665C19.1037 52.7202 19.159 52.6836 19.2198 52.6587C19.2806 52.6339 19.3457 52.6213 19.4113 52.6217H47.3481C47.4802 52.6217 47.6069 52.6742 47.7003 52.7676C47.7937 52.861 47.8462 52.9877 47.8462 53.1197C47.8462 53.2518 47.7937 53.3785 47.7003 53.4719C47.6069 53.5653 47.4802 53.6178 47.3481 53.6178Z" fill="#6085EF"/>
</g>
<path id="Vector_39" d="M51.2158 16.1932L51.49 16.7448L52.0984 16.8362C52.1335 16.8394 52.167 16.8529 52.1945 16.875C52.2221 16.8971 52.2425 16.9268 52.2533 16.9604C52.264 16.994 52.2646 17.0301 52.255 17.0641C52.2454 17.098 52.226 17.1284 52.1992 17.1514L51.7611 17.5707L51.8651 18.1822C51.8708 18.2153 51.8671 18.2494 51.8545 18.2806C51.8418 18.3117 51.8206 18.3387 51.7933 18.3584C51.7661 18.3781 51.7338 18.3897 51.7003 18.392C51.6667 18.3943 51.6332 18.3871 51.6035 18.3713L51.0582 18.0813L50.5097 18.3713C50.4801 18.3863 50.447 18.3928 50.4139 18.3901C50.3809 18.3874 50.3493 18.3756 50.3225 18.356C50.2957 18.3364 50.2749 18.3098 50.2623 18.2791C50.2498 18.2484 50.2459 18.2149 50.2512 18.1822L50.3553 17.5707L49.914 17.142C49.8873 17.1192 49.8679 17.089 49.8581 17.0553C49.8484 17.0216 49.8487 16.9858 49.8591 16.9522C49.8695 16.9187 49.8895 16.889 49.9166 16.8667C49.9437 16.8444 49.9768 16.8305 50.0117 16.8268L50.6232 16.7354L50.8974 16.1838C50.9127 16.1541 50.936 16.1294 50.9647 16.1125C50.9934 16.0956 51.0263 16.0872 51.0596 16.0882C51.0929 16.0891 51.1252 16.0995 51.1529 16.1181C51.1805 16.1367 51.2023 16.1627 51.2158 16.1932Z" fill="black"/>
<path id="Vector_40" d="M54.04 16.1932L54.3142 16.7385L54.9257 16.8299C54.9606 16.8336 54.9937 16.8475 55.0208 16.8698C55.0479 16.8921 55.0679 16.9219 55.0783 16.9554C55.0887 16.9889 55.089 17.0247 55.0793 17.0585C55.0695 17.0922 55.0501 17.1223 55.0235 17.1451L54.5979 17.5707L54.7019 18.1822C54.7073 18.2149 54.7034 18.2484 54.6908 18.2791C54.6783 18.3098 54.6575 18.3364 54.6307 18.356C54.6039 18.3756 54.5723 18.3873 54.5392 18.39C54.5062 18.3928 54.4731 18.3863 54.4435 18.3713L53.895 18.0813L53.3497 18.3713C53.32 18.3871 53.2865 18.3943 53.2529 18.392C53.2194 18.3897 53.1871 18.3781 53.1599 18.3584C53.1326 18.3387 53.1114 18.3117 53.0987 18.2806C53.086 18.2494 53.0824 18.2153 53.0881 18.1822L53.1921 17.5707L52.7508 17.142C52.724 17.119 52.7046 17.0886 52.695 17.0546C52.6854 17.0206 52.686 16.9846 52.6968 16.9509C52.7075 16.9173 52.728 16.8876 52.7555 16.8655C52.7831 16.8434 52.8165 16.83 52.8517 16.8268L53.46 16.7354L53.7343 16.1838C53.7506 16.1574 53.7735 16.1358 53.8008 16.1211C53.8282 16.1064 53.8589 16.0992 53.8899 16.1001C53.9209 16.1011 53.9511 16.1102 53.9774 16.1265C54.0038 16.1429 54.0254 16.1659 54.04 16.1932Z" fill="black"/>
<path id="Vector_41" d="M56.8673 16.1932L57.1383 16.7449L57.7498 16.8363C57.785 16.8395 57.8185 16.8529 57.846 16.875C57.8736 16.8971 57.894 16.9268 57.9047 16.9604C57.9155 16.9941 57.9161 17.0301 57.9065 17.0641C57.8969 17.0981 57.8775 17.1285 57.8507 17.1515L57.4063 17.5802L57.5103 18.1917C57.5156 18.2244 57.5118 18.2579 57.4992 18.2886C57.4866 18.3193 57.4658 18.3459 57.439 18.3655C57.4123 18.385 57.3806 18.3968 57.3476 18.3995C57.3145 18.4022 57.2814 18.3958 57.2518 18.3808L56.7034 18.0908L56.1581 18.3808C56.1285 18.3958 56.0953 18.4022 56.0623 18.3995C56.0292 18.3968 55.9976 18.385 55.9708 18.3655C55.9441 18.3459 55.9233 18.3193 55.9107 18.2886C55.8981 18.2579 55.8943 18.2244 55.8996 18.1917L56.0036 17.5802L55.5592 17.1515C55.5324 17.1285 55.513 17.0981 55.5034 17.0641C55.4938 17.0301 55.4944 16.9941 55.5051 16.9604C55.5159 16.9268 55.5363 16.8971 55.5639 16.875C55.5914 16.8529 55.6249 16.8395 55.66 16.8363L56.2715 16.7449L56.5426 16.1932C56.5572 16.1625 56.5802 16.1366 56.6089 16.1184C56.6376 16.1002 56.6709 16.0906 56.7049 16.0906C56.7389 16.0906 56.7722 16.1002 56.801 16.1184C56.8297 16.1366 56.8527 16.1625 56.8673 16.1932Z" fill="black"/>
<path id="Vector_42" d="M59.6915 16.1933L59.9563 16.7386L60.5647 16.83C60.5998 16.8332 60.6333 16.8466 60.6608 16.8687C60.6884 16.8908 60.7088 16.9205 60.7196 16.9542C60.7303 16.9878 60.7309 17.0238 60.7213 17.0578C60.7117 17.0918 60.6923 17.1222 60.6655 17.1452L60.2242 17.5739L60.3283 18.1854C60.334 18.2185 60.3303 18.2526 60.3176 18.2838C60.3049 18.3149 60.2837 18.3419 60.2565 18.3616C60.2292 18.3813 60.197 18.3929 60.1634 18.3952C60.1298 18.3975 60.0963 18.3903 60.0666 18.3745L59.5213 18.0845L58.9729 18.3745C58.9433 18.3895 58.9101 18.396 58.8771 18.3933C58.8441 18.3906 58.8124 18.3788 58.7856 18.3592C58.7589 18.3396 58.7381 18.313 58.7255 18.2823C58.7129 18.2517 58.7091 18.2181 58.7144 18.1854L58.8184 17.5739L58.3803 17.142C58.3536 17.1192 58.3342 17.0891 58.3244 17.0554C58.3147 17.0216 58.315 16.9858 58.3254 16.9523C58.3358 16.9188 58.3558 16.889 58.3829 16.8667C58.41 16.8444 58.4431 16.8305 58.478 16.8268L59.0895 16.7354L59.3637 16.1838C59.3777 16.1514 59.4012 16.1239 59.431 16.1049C59.4607 16.086 59.4955 16.0764 59.5308 16.0774C59.5661 16.0784 59.6003 16.09 59.629 16.1107C59.6576 16.1313 59.6794 16.1601 59.6915 16.1933Z" fill="black"/>
<path id="Vector_43" d="M62.5158 16.1932L62.7932 16.7385L63.4047 16.83C63.4396 16.8337 63.4727 16.8475 63.4998 16.8698C63.5269 16.8921 63.5469 16.9219 63.5573 16.9554C63.5677 16.9889 63.568 17.0248 63.5583 17.0585C63.5485 17.0922 63.5291 17.1223 63.5024 17.1452L63.0612 17.5738L63.1652 18.1853C63.1705 18.2181 63.1667 18.2516 63.1541 18.2823C63.1415 18.313 63.1207 18.3396 63.0939 18.3592C63.0672 18.3787 63.0355 18.3905 63.0025 18.3932C62.9694 18.3959 62.9363 18.3894 62.9067 18.3745L62.3582 18.0845L61.8129 18.3745C61.7833 18.3903 61.7497 18.3975 61.7162 18.3952C61.6826 18.3929 61.6504 18.3813 61.6231 18.3616C61.5958 18.3419 61.5747 18.3149 61.562 18.2837C61.5493 18.2526 61.5456 18.2185 61.5513 18.1853L61.6553 17.5738L61.2172 17.142C61.1905 17.1192 61.1711 17.0891 61.1614 17.0553C61.1516 17.0216 61.152 16.9858 61.1624 16.9523C61.1727 16.9187 61.1927 16.889 61.2198 16.8667C61.247 16.8444 61.28 16.8305 61.3149 16.8268L61.9264 16.7354L62.2006 16.1838C62.2162 16.155 62.2395 16.1312 62.2678 16.1148C62.2962 16.0985 62.3285 16.0904 62.3612 16.0914C62.3938 16.0924 62.4256 16.1024 62.4529 16.1204C62.4803 16.1384 62.502 16.1636 62.5158 16.1932Z" fill="black"/>
<g id="Group_7" opacity="0.25">
<path id="Vector_44" d="M62.2827 48.1395C62.1701 48.0505 62.0376 47.9899 61.8966 47.963C61.7556 47.9362 61.6101 47.9437 61.4726 47.9851C61.33 48.0307 61.2039 48.1173 61.1101 48.2341C61.0667 48.2879 61.0307 48.3472 61.003 48.4106C60.973 48.3478 60.936 48.2886 60.8927 48.2341C60.8001 48.1174 60.6751 48.0307 60.5333 47.9851C60.3958 47.9437 60.2504 47.9362 60.1094 47.963C59.9683 47.9899 59.8359 48.0505 59.7232 48.1395C59.159 48.5556 59.3481 49.3783 59.8462 49.7155C60.2171 49.9419 60.575 50.1893 60.9179 50.4563C60.9179 50.4563 60.9683 50.5004 61.003 50.5382C61.0293 50.5089 61.0578 50.4815 61.0881 50.4563C61.4312 50.1861 61.7901 49.9367 62.1629 49.7092C62.6547 49.3783 62.8469 48.5556 62.2827 48.1395Z" fill="#6085EF"/>
</g>
<g id="Group_8" opacity="0.25">
<path id="Vector_45" d="M55.7799 48.8172C55.7196 48.5416 55.5658 48.2953 55.3446 48.12C55.1234 47.9448 54.8485 47.8515 54.5663 47.8558H54.0021C53.6882 47.8505 53.3843 47.967 53.1545 48.181C52.9247 48.3949 52.7867 48.6896 52.7697 49.0032C52.7646 49.1614 52.7914 49.319 52.8486 49.4667C52.9057 49.6143 52.9921 49.7489 53.1024 49.8625C53.2127 49.976 53.3447 50.0662 53.4907 50.1276C53.6366 50.189 53.7934 50.2204 53.9517 50.2199H54.6168C54.7178 50.2203 54.8185 50.2076 54.9162 50.1821L54.7807 50.5981C54.7753 50.6161 54.7754 50.6352 54.7809 50.6531C54.7864 50.6709 54.7971 50.6868 54.8116 50.6986C54.8261 50.7104 54.8438 50.7177 54.8624 50.7194C54.881 50.7212 54.8997 50.7173 54.9162 50.7085C55.1563 50.5467 55.3579 50.334 55.5066 50.0856C55.6553 49.8372 55.7475 49.5591 55.7767 49.2711C55.8062 49.1213 55.8073 48.9674 55.7799 48.8172Z" fill="#6085EF"/>
</g>
<path id="Vector_46" d="M24.9401 24.9718C24.8424 24.9718 24.7479 24.9497 24.6564 24.9434C24.6564 24.8079 24.6312 24.6849 24.6155 24.5777C24.584 24.335 24.4673 24.2909 24.4358 24.2846C24.4074 24.2846 24.2908 24.335 24.2593 24.5777C24.2593 24.6849 24.2278 24.811 24.2183 24.9497C24.0796 24.9497 23.9535 24.9749 23.8464 24.9907C23.6037 25.0222 23.5595 25.1388 23.5532 25.1703C23.5532 25.1987 23.6037 25.3153 23.8464 25.3469C23.9535 25.3626 24.0765 25.3784 24.212 25.3878C24.212 25.4792 24.212 25.5738 24.2404 25.6715C24.2814 25.9521 24.3507 26.0687 24.439 26.0529C24.5272 26.0372 24.5997 25.9521 24.6407 25.6715C24.6407 25.577 24.6628 25.4824 24.6659 25.391C24.7599 25.3887 24.8536 25.3803 24.9464 25.3658C25.227 25.3248 25.3436 25.2554 25.3278 25.1672C25.3121 25.0789 25.2207 25.0127 24.9401 24.9718Z" fill="white"/>
<path id="Vector_47" d="M27.6225 21.0474C27.5248 21.0317 27.4302 21.0254 27.3388 21.0191C27.3388 20.8835 27.3136 20.7606 27.301 20.6534C27.2663 20.4107 27.1497 20.3666 27.1213 20.3603C27.093 20.3603 26.9732 20.4107 26.9417 20.6534C26.9417 20.7606 26.9133 20.8867 26.9038 21.0254C26.7651 21.0254 26.6391 21.0506 26.5287 21.0664C26.286 21.0979 26.2419 21.2145 26.2356 21.246C26.2356 21.2744 26.286 21.391 26.5287 21.4225C26.6359 21.4225 26.762 21.4541 26.8975 21.4635C26.8975 21.5549 26.8975 21.6495 26.9227 21.7472C26.9637 22.0277 27.0331 22.1444 27.1245 22.1286C27.2159 22.1128 27.2821 22.0277 27.3231 21.7472C27.3231 21.6526 27.3451 21.5581 27.3514 21.4667C27.4443 21.4644 27.537 21.456 27.6288 21.4414C27.9093 21.4005 28.026 21.3311 28.0134 21.2429C28.0008 21.1546 27.903 21.0884 27.6225 21.0474Z" fill="white"/>
<path id="Vector_48" d="M42.185 23.9189C42.0873 23.9032 41.9927 23.8969 41.9013 23.8906C41.9013 23.755 41.8761 23.6321 41.8603 23.5249C41.8288 23.2822 41.7122 23.2381 41.6838 23.2286C41.6555 23.2286 41.5357 23.2822 41.5042 23.5249C41.5042 23.6321 41.4758 23.7582 41.4632 23.8969C41.3276 23.8969 41.2016 23.9221 41.0912 23.9379C40.8485 23.9694 40.8044 24.086 40.7981 24.1144C40.7981 24.1427 40.8485 24.2625 41.0912 24.294C41.1984 24.3087 41.3213 24.3214 41.46 24.3319C41.46 24.4264 41.46 24.521 41.4852 24.6187C41.5262 24.8992 41.5956 25.0159 41.687 25.0001C41.7784 24.9843 41.8446 24.8992 41.8856 24.6187C41.8856 24.5241 41.9076 24.4296 41.9139 24.3382C42.0022 24.3382 42.0967 24.3382 42.1913 24.3129C42.4718 24.272 42.5885 24.2026 42.5759 24.1112C42.5633 24.0198 42.4655 23.9599 42.185 23.9189Z" fill="white"/>
<path id="Vector_49" d="M36.8737 19.0238C36.7792 19.0238 36.6815 19.0018 36.59 18.9986C36.59 18.8631 36.5648 18.737 36.5522 18.633C36.5175 18.3871 36.4009 18.343 36.3725 18.3367C36.3442 18.3367 36.2244 18.3871 36.1929 18.633C36.1929 18.7401 36.1645 18.8662 36.1551 19.0049C36.0164 19.0049 35.8903 19.0301 35.7831 19.0427C35.5372 19.0743 35.4931 19.194 35.4868 19.2224C35.4868 19.2508 35.5372 19.3674 35.7831 19.4021C35.8871 19.4021 36.0132 19.4304 36.1488 19.4399C36.1488 19.5313 36.1488 19.629 36.174 19.7236C36.2149 20.0073 36.2843 20.1239 36.3757 20.1081C36.4671 20.0924 36.5365 20.0073 36.5774 19.7236C36.5774 19.629 36.5963 19.5376 36.6026 19.4462C36.6941 19.4462 36.7855 19.4462 36.88 19.4178C37.1637 19.38 37.2803 19.3107 37.2646 19.2192C37.2488 19.1278 37.1574 19.0648 36.8737 19.0238Z" fill="white"/>
<path id="Vector_50" d="M19.9377 11.8749C20.4129 11.8749 20.7982 11.4896 20.7982 11.0144C20.7982 10.5391 20.4129 10.1539 19.9377 10.1539C19.4624 10.1539 19.0771 10.5391 19.0771 11.0144C19.0771 11.4896 19.4624 11.8749 19.9377 11.8749Z" fill="#6085EF"/>
<path id="Vector_51" d="M23.7359 11.0144C23.7365 11.1853 23.6864 11.3526 23.5919 11.4951C23.4973 11.6375 23.3627 11.7487 23.2049 11.8146C23.0471 11.8804 22.8734 11.898 22.7057 11.865C22.5379 11.832 22.3837 11.75 22.2626 11.6294C22.1415 11.5087 22.059 11.3548 22.0254 11.1872C21.9918 11.0196 22.0087 10.8458 22.074 10.6878C22.1393 10.5298 22.25 10.3947 22.3921 10.2996C22.5341 10.2046 22.7013 10.1539 22.8722 10.1539C23.1007 10.1539 23.3199 10.2444 23.4818 10.4057C23.6437 10.567 23.735 10.7859 23.7359 11.0144Z" fill="#FFCC66"/>
<g id="Group_9" opacity="0.25">
<path id="Vector_52" d="M25.8068 11.8749C26.2821 11.8749 26.6673 11.4896 26.6673 11.0144C26.6673 10.5391 26.2821 10.1539 25.8068 10.1539C25.3316 10.1539 24.9463 10.5391 24.9463 11.0144C24.9463 11.4896 25.3316 11.8749 25.8068 11.8749Z" fill="#6085EF"/>
</g>
<path id="Vector_53" d="M40.9808 43.8149C40.7064 36.9445 39.7562 30.1178 38.144 23.4336L38.9477 20.105L37.6869 19.9474L37.4663 23.2003L33.7468 25.1987L29.8477 23.3579L29.3812 20.023L28.1204 20.2437L29.0912 23.6259C27.4364 29.6148 26.8659 42.201 26.7965 43.8621C26.7798 43.9195 26.7713 43.9789 26.7713 44.0387C26.7693 44.2024 26.8281 44.3611 26.9363 44.484C27.0445 44.6069 27.1945 44.6853 27.3571 44.7041C27.5198 44.723 27.6837 44.6808 27.8171 44.5858C27.9505 44.4909 28.0439 44.3498 28.0794 44.19C28.1131 44.346 28.2022 44.4845 28.3303 44.5797C28.4584 44.6749 28.6167 44.7204 28.7758 44.7077C28.9349 44.6949 29.084 44.6249 29.1953 44.5106C29.3067 44.3962 29.3727 44.2453 29.3812 44.0859C29.3923 44.244 29.4597 44.3929 29.5712 44.5055C29.6827 44.6181 29.831 44.6869 29.9889 44.6995C30.1469 44.7121 30.3041 44.6676 30.4321 44.5741C30.56 44.4806 30.6502 44.3443 30.6862 44.19C30.7187 44.3362 30.8002 44.467 30.9171 44.5607C31.034 44.6544 31.1793 44.7055 31.3292 44.7055C31.479 44.7055 31.6244 44.6544 31.7413 44.5607C31.8582 44.467 31.9396 44.3362 31.9722 44.19C32.0062 44.3354 32.0883 44.4652 32.2054 44.558C32.3224 44.6509 32.4674 44.7014 32.6168 44.7014C32.7662 44.7014 32.9112 44.6509 33.0282 44.558C33.1453 44.4652 33.2274 44.3354 33.2614 44.19C33.2974 44.3395 33.3844 44.4719 33.5074 44.5643C33.6304 44.6568 33.7818 44.7034 33.9355 44.6963C34.0892 44.6892 34.2356 44.6288 34.3496 44.5255C34.4636 44.4222 34.538 44.2823 34.5601 44.1301C34.5821 44.2823 34.6566 44.4222 34.7705 44.5255C34.8845 44.6288 35.031 44.6892 35.1846 44.6963C35.3383 44.7034 35.4897 44.6568 35.6127 44.5643C35.7357 44.4719 35.8227 44.3395 35.8587 44.19C35.8904 44.3276 35.9653 44.4516 36.0724 44.5437C36.1796 44.6357 36.3134 44.6911 36.4543 44.7017C36.5952 44.7122 36.7357 44.6774 36.8554 44.6024C36.9751 44.5273 37.0677 44.4159 37.1195 44.2845C37.1714 44.4159 37.2639 44.5273 37.3836 44.6024C37.5033 44.6774 37.6439 44.7122 37.7848 44.7017C37.9257 44.6911 38.0595 44.6357 38.1666 44.5437C38.2738 44.4516 38.3487 44.3276 38.3804 44.19C38.4143 44.3354 38.4965 44.4652 38.6135 44.558C38.7306 44.6509 38.8756 44.7014 39.025 44.7014C39.1744 44.7014 39.3194 44.6509 39.4364 44.558C39.5534 44.4652 39.6356 44.3354 39.6696 44.19H39.6948C39.7329 44.3471 39.827 44.4849 39.9594 44.5776C40.0918 44.6704 40.2535 44.7118 40.4142 44.694C40.5748 44.6762 40.7235 44.6005 40.8325 44.4811C40.9414 44.3616 41.0031 44.2066 41.006 44.045C41.0113 43.9674 41.0028 43.8895 40.9808 43.8149Z" fill="#3261D8"/>
<path id="Vector_54" d="M10.2419 60.7004L10.5162 77.17H14.7683L15.7297 60.7004H10.2419Z" fill="#FFE7E6"/>
<path id="Vector_55" d="M18.5571 60.7004L18.8314 77.17H23.0867L24.048 60.7004H18.5571Z" fill="#FFE7E6"/>
<path id="Vector_56" d="M11.405 29.1735L11.6603 35.9378H23.4459L23.8242 28.6187L11.405 29.1735Z" fill="#FFE7E6"/>
<path id="Vector_57" d="M11.5279 35.3673L15.1559 35.6258C17.0383 35.7582 18.9283 35.7392 20.8076 35.5691L23.676 35.3074C23.676 35.3074 26.7083 44.0702 27.8178 69.0346H7.92822C7.92822 69.0346 9.20796 40.8267 11.5279 35.3673Z" fill="#3261D8"/>
<path id="Vector_58" d="M14.844 46.7305C14.6202 46.5445 13.0315 45.7313 13.0315 45.7313C13.0315 45.7313 10.7368 36.5619 10.5729 34.699C10.409 32.8362 12.5146 26.8189 12.5146 26.8189L8.00399 23.071C8.00399 23.071 5.08517 31.4272 5.69352 35.4744C6.04025 37.7691 10.491 46.3964 10.491 46.3964C10.491 46.3964 10.3397 48.6848 10.5477 49.4066C10.5477 49.4066 10.5887 49.6556 10.7967 49.5705C10.9007 49.5295 10.9669 49.0094 11.0836 48.3885C11.1876 49.2395 11.4776 49.9046 11.9756 49.9046C12.1679 49.9046 11.8495 49.4066 11.7108 48.8077C11.6532 48.5963 11.6393 48.3754 11.6698 48.1584C11.6698 48.1584 12.1332 50.5004 12.8203 50.1946C13.0694 50.0843 12.7352 49.6556 12.5713 48.9748C12.4074 48.2939 12.3349 47.8936 12.3349 47.8936C12.3349 47.8936 13.0095 50.4153 13.6367 50.2923C13.911 50.245 13.4287 49.4885 13.1797 48.5587C13.047 47.9589 12.9971 47.3438 13.0315 46.7305C13.0315 46.7305 15.4271 47.2159 14.844 46.7305Z" fill="#FFE7E6"/>
<path id="Vector_59" d="M27.3733 24.3319L29.5798 30.6361C29.5798 30.6361 37.1195 27.421 38.229 25.9773C38.9071 25.105 39.7329 24.3582 40.6688 23.7709L39.8902 25.6621C39.8902 25.6621 42.3299 23.8875 42.8847 24.2185C43.4394 24.5494 36.2306 33.5328 30.7996 34.3051C25.3686 35.0774 22.0369 25.9868 22.0369 25.9868L27.3733 24.3319Z" fill="#FFE7E6"/>
<path id="Vector_60" d="M9.52337 26.6486C9.52337 26.6486 7.99777 10.7496 12.1837 9.0191C16.3697 7.28861 18.8567 9.12311 18.8567 9.12311L22.7936 27.7708L9.52337 26.6486Z" fill="#212568"/>
<path id="Vector_61" d="M42.847 33.2712C41.9846 33.2703 41.1577 32.9273 40.5478 32.3175C39.9379 31.7076 39.5949 30.8807 39.5941 30.0182V27.8717C39.5805 27.4358 39.6547 27.0016 39.8121 26.5949C39.9696 26.1881 40.2071 25.8172 40.5107 25.5041C40.8142 25.1909 41.1776 24.9419 41.5792 24.7719C41.9808 24.6019 42.4125 24.5143 42.8486 24.5143C43.2847 24.5143 43.7164 24.6019 44.118 24.7719C44.5196 24.9419 44.883 25.1909 45.1866 25.5041C45.4901 25.8172 45.7277 26.1881 45.8851 26.5949C46.0426 27.0016 46.1167 27.4358 46.1031 27.8717V30.0182C46.1015 30.881 45.7578 31.7079 45.1474 32.3177C44.537 32.9274 43.7098 33.2703 42.847 33.2712ZM42.847 25.1168C42.1177 25.1193 41.4191 25.4105 40.904 25.9268C40.3889 26.4431 40.0993 27.1424 40.0984 27.8717V30.0182C40.0859 30.3876 40.1479 30.7558 40.2806 31.1008C40.4134 31.4457 40.6142 31.7604 40.8711 32.0262C41.128 32.2919 41.4357 32.5033 41.776 32.6476C42.1163 32.7919 42.4821 32.8663 42.8518 32.8663C43.2214 32.8663 43.5872 32.7919 43.9275 32.6476C44.2678 32.5033 44.5755 32.2919 44.8325 32.0262C45.0894 31.7604 45.2902 31.4457 45.4229 31.1008C45.5556 30.7558 45.6176 30.3876 45.6051 30.0182V27.8717C45.6043 27.1407 45.3133 26.44 44.7962 25.9235C44.279 25.4069 43.578 25.1168 42.847 25.1168Z" fill="#CEA04E"/>
<path id="Vector_62" d="M41.9517 32.7731C41.0892 32.7723 40.2623 32.4293 39.6524 31.8195C39.0426 31.2096 38.6996 30.3827 38.6987 29.5202V27.3705C38.6987 26.9433 38.7829 26.5203 38.9463 26.1256C39.1098 25.731 39.3494 25.3724 39.6515 25.0703C39.9536 24.7683 40.3122 24.5286 40.7068 24.3652C41.1015 24.2017 41.5245 24.1176 41.9517 24.1176C42.3788 24.1176 42.8018 24.2017 43.1965 24.3652C43.5912 24.5286 43.9498 24.7683 44.2518 25.0703C44.5539 25.3724 44.7935 25.731 44.957 26.1256C45.1205 26.5203 45.2046 26.9433 45.2046 27.3705V29.5202C45.2038 30.3827 44.8608 31.2096 44.2509 31.8195C43.6411 32.4293 42.8141 32.7723 41.9517 32.7731ZM41.9517 24.6156C41.2216 24.6164 40.5217 24.907 40.0057 25.4236C39.4897 25.9401 39.1999 26.6404 39.1999 27.3705V29.5202C39.1999 30.25 39.4898 30.9499 40.0059 31.466C40.5219 31.982 41.2219 32.272 41.9517 32.272C42.6815 32.272 43.3814 31.982 43.8975 31.466C44.4135 30.9499 44.7034 30.25 44.7034 29.5202V27.3705C44.7026 26.6409 44.4124 25.9415 43.8965 25.4256C43.3807 24.9098 42.6812 24.6196 41.9517 24.6187V24.6156Z" fill="#FFC85A"/>
<path id="Vector_63" d="M35.5247 29.0915H48.9021C49.1519 29.0921 49.3934 29.1815 49.5834 29.3437C49.7734 29.506 49.8994 29.7305 49.9391 29.9772L51.1999 44.5146C51.2241 44.6652 51.2153 44.8194 51.1741 44.9663C51.133 45.1132 51.0605 45.2495 50.9616 45.3658C50.8628 45.482 50.7399 45.5754 50.6015 45.6396C50.463 45.7038 50.3123 45.7372 50.1597 45.7376H34.2355C34.0834 45.7377 33.9332 45.7048 33.7951 45.6411C33.6571 45.5774 33.5345 45.4845 33.4359 45.3688C33.3372 45.2531 33.2649 45.1173 33.2239 44.9709C33.1829 44.8245 33.1742 44.671 33.1984 44.5209L34.4845 29.9772C34.5242 29.73 34.6508 29.505 34.8414 29.3427C35.032 29.1804 35.2743 29.0913 35.5247 29.0915Z" fill="#FFC85A"/>
<path id="Vector_64" d="M16.1206 18.2168V14.4753H19.9756V18.1034C19.9747 18.317 20.0477 18.5243 20.1821 18.6903C20.3165 18.8563 20.5041 18.9707 20.7132 19.0143C22.3283 19.3722 23.9174 19.8388 25.4696 20.4107C25.4696 20.4107 22.0717 25.1041 18.4342 25.3185C14.7967 25.5328 10.0024 20.7196 10.0024 20.7196C11.3925 19.6416 13.7219 19.2318 15.4429 18.9891C15.6301 18.964 15.8019 18.8719 15.9265 18.73C16.051 18.588 16.12 18.4057 16.1206 18.2168Z" fill="#FFE7E6"/>
<path id="Vector_65" d="M23.0772 22.9954C22.7437 23.2922 22.3955 23.572 22.0339 23.8338C21.8098 22.2397 21.4887 20.6608 21.0725 19.1057C21.4917 19.1971 21.9204 19.3043 22.3333 19.4209C22.663 20.5939 22.9115 21.7882 23.0772 22.9954Z" fill="#3261D8"/>
<path id="Vector_66" d="M20.7384 19.0206C20.5231 18.9832 20.328 18.8704 20.1883 18.7023C20.0485 18.5343 19.9731 18.3219 19.9756 18.1034V14.4753H16.1206V18.2168C16.1202 18.4048 16.0522 18.5863 15.9289 18.7281C15.8055 18.8699 15.6353 18.9626 15.4492 18.9891C13.9331 19.2003 11.9378 19.547 10.5352 20.3634C10.7348 20.4074 10.9398 20.4212 11.1435 20.4044C12.6317 20.3272 14.1235 20.4437 15.5816 20.7511C16.1257 20.8907 16.6952 20.8983 17.2428 20.7732L20.0418 19.7677C20.1799 19.7359 20.3013 19.6539 20.3822 19.5376L20.7384 19.0206Z" fill="#FFD3D1"/>
<g id="Group_10" style="mix-blend-mode:multiply">
<path id="Vector_67" d="M12.4832 20.3761L9.61792 20.1712C9.6656 20.1158 9.71954 20.0661 9.77868 20.0231C10.1412 19.7804 11.0773 19.5912 12.3192 19.4557C12.3386 19.7677 12.3936 20.0765 12.4832 20.3761Z" fill="#D8CDCB"/>
</g>
<path id="Vector_68" d="M12.896 7.59753L21.0472 8.0073H21.3215C21.4948 8.77326 21.8132 13.9962 21.6115 15.3926C21.5011 16.1081 20.1426 17.2775 19.985 17.5266L19.9377 17.5991C19.9062 17.6463 19.8747 17.6842 19.8495 17.7157L19.7959 17.7724C19.7714 17.7965 19.7451 17.8187 19.7171 17.8386C19.4998 18.0264 19.2226 18.1304 18.9354 18.1318C17.2175 18.1318 15.3325 16.934 13.3814 14.1854L12.896 7.59753Z" fill="#FFE7E6"/>
<g id="Group_11" style="mix-blend-mode:multiply">
<path id="Vector_69" d="M19.1434 14.3713C19.1639 14.3777 19.1859 14.3777 19.2064 14.3713C19.2193 14.3666 19.2311 14.3592 19.241 14.3495C19.2508 14.3399 19.2585 14.3284 19.2636 14.3156C19.2686 14.3028 19.2709 14.289 19.2703 14.2753C19.2697 14.2616 19.2662 14.2481 19.26 14.2358C19.0044 13.7627 18.9262 13.2138 19.0394 12.6881C19.0432 12.6747 19.0442 12.6606 19.0424 12.6467C19.0406 12.6329 19.0361 12.6195 19.029 12.6074C19.0219 12.5954 19.0125 12.5849 19.0013 12.5765C18.9901 12.5682 18.9773 12.5622 18.9637 12.5589C18.937 12.5507 18.908 12.5529 18.8829 12.5652C18.8577 12.5775 18.8382 12.5989 18.8282 12.6251C18.6968 13.1999 18.7798 13.8029 19.0614 14.3209C19.0706 14.3348 19.0826 14.3465 19.0968 14.3552C19.111 14.3639 19.1269 14.3694 19.1434 14.3713Z" fill="#CEBAB6"/>
</g>
<path id="Vector_70" d="M19.0363 16.0136C19.5753 16.1271 19.6667 15.6039 19.9535 15.3296C19.9774 15.3024 19.9928 15.2688 19.9978 15.233C20.0028 15.1972 19.9973 15.1606 19.9819 15.1279C19.9769 15.1132 19.9681 15.1 19.9566 15.0897C19.945 15.0793 19.931 15.072 19.9159 15.0685C19.9008 15.0651 19.885 15.0655 19.8701 15.0698C19.8551 15.0741 19.8416 15.0822 19.8306 15.0932C19.6381 15.2877 19.3826 15.4073 19.11 15.4304C18.8373 15.4535 18.5653 15.3787 18.3428 15.2193C18.2892 15.1815 18.2231 15.2193 18.1947 15.2792C18.1803 15.3125 18.1765 15.3494 18.1838 15.385C18.1912 15.4205 18.2093 15.4529 18.2357 15.4778C18.4563 15.6385 18.7841 16.0073 19.0363 16.0136Z" fill="#B24B5A"/>
<path id="Vector_71" d="M19.7485 11.9695C19.7699 11.9685 19.7902 11.9595 19.8053 11.9443C19.9057 11.84 20.0361 11.7694 20.1784 11.7423C20.3206 11.7152 20.4678 11.7329 20.5996 11.793C20.6192 11.8026 20.6419 11.804 20.6626 11.7969C20.6833 11.7898 20.7003 11.7748 20.7099 11.7552C20.7195 11.7355 20.7209 11.7129 20.7139 11.6922C20.7068 11.6715 20.6917 11.6545 20.6721 11.6448C20.509 11.5718 20.3275 11.5501 20.1518 11.5828C19.9762 11.6155 19.8146 11.7009 19.6886 11.8277C19.6738 11.8434 19.6655 11.8643 19.6655 11.886C19.6655 11.9076 19.6738 11.9285 19.6886 11.9443C19.7045 11.9603 19.726 11.9693 19.7485 11.9695Z" fill="#1E1913"/>
<path id="Vector_72" d="M16.6438 12.2563C16.6663 12.2562 16.6879 12.2471 16.7037 12.2311C16.8052 12.1284 16.9355 12.0589 17.0773 12.0318C17.2192 12.0048 17.3659 12.0216 17.498 12.0798C17.5077 12.0846 17.5183 12.0875 17.5291 12.0882C17.54 12.0889 17.5508 12.0875 17.5611 12.084C17.5714 12.0804 17.5808 12.0749 17.5889 12.0677C17.597 12.0605 17.6036 12.0518 17.6084 12.042C17.6173 12.0222 17.6183 11.9998 17.6113 11.9793C17.6043 11.9588 17.5897 11.9418 17.5705 11.9317C17.4071 11.8604 17.2261 11.8397 17.0508 11.8723C16.8755 11.9049 16.714 11.9892 16.5871 12.1145C16.5722 12.1303 16.564 12.1511 16.564 12.1728C16.564 12.1945 16.5722 12.2153 16.5871 12.2311C16.6021 12.2464 16.6224 12.2554 16.6438 12.2563Z" fill="#1E1913"/>
<path id="Vector_73" d="M12.8329 14.0278C15.5122 13.6685 17.4034 11.3233 17.0567 8.78906L12.1804 9.20514L12.8329 14.0278Z" fill="#212568"/>
<path id="Vector_74" d="M23.0772 11.0648C21.4318 11.3044 17.6147 11.5251 16.4011 8.70395L16.9023 6.68032C16.9023 6.68032 21.4098 4.88049 23.5563 10.1192C23.6 10.2117 23.6219 10.3129 23.6205 10.4152C23.619 10.5174 23.5943 10.618 23.5481 10.7092C23.5018 10.8004 23.4354 10.8799 23.3538 10.9415C23.2722 11.0032 23.1776 11.0453 23.0772 11.0648Z" fill="#212568"/>
<path id="Vector_75" d="M11.988 9.40053C11.9907 9.28659 12.0002 9.17292 12.0164 9.06011C12.1928 8.05711 12.7107 7.14601 13.4823 6.48131C14.2539 5.81661 15.2316 5.43923 16.2496 5.41316C17.2873 5.33146 18.3297 5.49225 19.2945 5.88282C19.8105 6.06459 20.2821 6.35356 20.6783 6.73073C21.5141 7.4732 22.1035 8.45297 22.3678 9.53922C22.3914 9.62491 22.395 9.71484 22.3785 9.80215C22.362 9.88947 22.3257 9.97185 22.2725 10.043C22.2193 10.1142 22.1505 10.1722 22.0714 10.2128C21.9923 10.2533 21.905 10.2752 21.8162 10.2768C21.5546 10.2768 21.252 10.2768 20.9273 10.261C20.8902 10.288 20.8455 10.3025 20.7997 10.3025C20.7538 10.3025 20.7091 10.288 20.672 10.261C19.9214 10.2281 19.1823 10.0649 18.4876 9.77878C17.0219 10.0278 15.2378 10.4596 14.8281 9.60227L11.9912 9.39423L11.988 9.40053Z" fill="#212568"/>
<path id="Vector_76" d="M14.68 13.3942C14.68 13.3942 13.6398 12.7638 13.2206 13.5266C12.8013 14.2894 13.81 16.2279 14.9763 15.2886L14.68 13.3942Z" fill="#FFE7E6"/>
<g id="Group_12" style="mix-blend-mode:multiply">
<path id="Vector_77" d="M13.8227 14.9892H13.8448C13.8604 14.9841 13.8745 14.975 13.8855 14.9629C13.8966 14.9507 13.9043 14.9359 13.9079 14.9198C13.9394 14.8253 14.0182 14.6929 14.0781 14.6834C14.1159 14.6834 14.1695 14.7276 14.2231 14.8158C14.2293 14.8295 14.2386 14.8415 14.2502 14.851C14.2618 14.8605 14.2755 14.8672 14.2901 14.8705C14.3048 14.8739 14.32 14.8738 14.3346 14.8703C14.3492 14.8669 14.3628 14.8601 14.3744 14.8505C14.3986 14.8287 14.4145 14.7991 14.4191 14.7668C14.4237 14.7345 14.4168 14.7017 14.3996 14.674C14.2893 14.4975 14.1695 14.4155 14.0465 14.4313C13.9835 14.4486 13.9252 14.48 13.8761 14.5231C13.8269 14.5663 13.7882 14.62 13.7629 14.6803C13.6767 14.5985 13.614 14.4952 13.5813 14.381C13.5486 14.2668 13.5471 14.1459 13.5769 14.031C13.6809 13.5802 14.2546 13.7693 14.2798 13.7756C14.2941 13.7799 14.3092 13.7809 14.324 13.7788C14.3387 13.7767 14.3529 13.7714 14.3655 13.7634C14.378 13.7553 14.3887 13.7446 14.3968 13.732C14.4048 13.7195 14.4101 13.7053 14.4122 13.6905C14.4193 13.6592 14.4154 13.6264 14.401 13.5976C14.3867 13.5689 14.3627 13.546 14.3334 13.5329C14.056 13.4352 13.4949 13.4005 13.3657 13.9522C13.3181 14.1425 13.3297 14.3429 13.399 14.5265C13.4683 14.7101 13.5919 14.8682 13.7534 14.9797C13.7637 14.9859 13.7752 14.99 13.7871 14.9916C13.799 14.9932 13.8112 14.9924 13.8227 14.9892Z" fill="#CEBAB6"/>
</g>
<path id="Vector_78" d="M19.9788 12.7732C19.9867 12.8274 20.0106 12.878 20.0473 12.9186C20.084 12.9593 20.1319 12.9881 20.1849 13.0016C20.238 13.0151 20.2939 13.0126 20.3455 12.9943C20.3971 12.9761 20.4422 12.943 20.4751 12.8992C20.5079 12.8554 20.5271 12.8028 20.5301 12.7482C20.5332 12.6935 20.52 12.6391 20.4922 12.592C20.4644 12.5448 20.4232 12.5069 20.3739 12.4831C20.3246 12.4592 20.2694 12.4505 20.2152 12.458C20.1787 12.4626 20.1435 12.4745 20.1118 12.493C20.08 12.5115 20.0522 12.5361 20.0302 12.5655C20.0081 12.5949 19.9922 12.6285 19.9834 12.6641C19.9745 12.6998 19.973 12.7369 19.9788 12.7732Z" fill="#1E1913"/>
<path id="Vector_79" d="M16.9749 13.1799C16.9828 13.2341 17.0067 13.2847 17.0434 13.3253C17.0801 13.3659 17.1279 13.3948 17.181 13.4083C17.2341 13.4218 17.29 13.4192 17.3416 13.401C17.3932 13.3828 17.4383 13.3497 17.4712 13.3059C17.504 13.2621 17.5232 13.2095 17.5262 13.1548C17.5293 13.1002 17.5161 13.0458 17.4883 12.9986C17.4605 12.9515 17.4193 12.9136 17.37 12.8897C17.3207 12.8659 17.2655 12.8572 17.2113 12.8647C17.1748 12.8693 17.1396 12.8812 17.1079 12.8997C17.0761 12.9181 17.0483 12.9428 17.0263 12.9722C17.0042 13.0016 16.9883 13.0351 16.9795 13.0708C16.9706 13.1065 16.9691 13.1436 16.9749 13.1799Z" fill="#1E1913"/>
<path id="Vector_80" d="M13.8607 19.2602C14.2767 19.1783 14.6865 19.1089 15.071 19.0522C14.7937 20.105 14.2673 22.2043 14.012 23.8717C13.5265 23.5754 13.0663 23.2602 12.6313 22.945C13.0222 21.7314 13.5076 20.2437 13.8607 19.2602Z" fill="#3261D8"/>
<path id="Vector_81" d="M4.79517 30.1097C4.79517 30.1097 8.57765 20.8426 9.77859 20.0231C10.1411 19.7804 11.0772 19.5912 12.3192 19.4557C12.4673 21.9395 14.8818 23.9159 17.8573 23.9159C20.8329 23.9159 23.2159 21.971 23.3892 19.503C24.1053 19.5578 24.8079 19.7281 25.4696 20.0073C27.6382 21.2681 29.9077 30.0435 30.3112 30.4974C30.3112 30.4974 27.0898 32.1806 24.3884 32.4233C24.3825 33.1224 24.4716 33.8191 24.6532 34.4942C24.6532 34.4942 15.9314 35.6037 10.9039 34.2011L10.8787 32.0261C10.8787 32.0261 5.6021 30.9229 4.79517 30.1097Z" fill="#ED96ED"/>
<g id="Group_13" style="mix-blend-mode:multiply">
<path id="Vector_82" d="M24.483 32.4295C23.5626 28.9434 24.7572 21.9867 24.3916 24.5714C24.0764 26.8756 26.7682 30.5604 27.6288 31.6604C26.6134 32.0373 25.5577 32.2954 24.483 32.4295Z" fill="#E8E8E8"/>
</g>
<g id="Group_14" style="mix-blend-mode:multiply">
<path id="Vector_83" d="M11.282 31.2381H10.9668C10.9668 31.1751 11.1559 24.934 10.0842 20.4423L10.3805 20.3729C11.4711 24.8867 11.2852 31.1814 11.282 31.2381Z" fill="#E8E8E8"/>
</g>
<g id="Group_15" style="mix-blend-mode:multiply">
<path id="Vector_84" opacity="0.5" d="M23.9849 31.2381C23.9849 31.1813 23.7454 25.4099 24.9306 20.3666L25.23 20.4359C24.0637 25.4383 24.2844 31.153 24.3001 31.2255L23.9849 31.2381Z" fill="#E8E8E8"/>
</g>
<path id="Vector_85" d="M9.87939 71.8557H15.944C15.944 71.8557 14.7588 78.6578 15.3514 79.9123C15.944 81.1669 17.126 82.724 16.8297 83.3796C16.5334 84.0353 12.6154 84.1929 12.1016 83.7484C11.6316 83.2729 11.2093 82.7524 10.8408 82.1944L11.654 83.304H10.1757L9.87939 71.8557Z" fill="#3261D8"/>
<path id="Vector_86" d="M18.1978 71.8557H24.2592C24.2592 71.8557 23.0772 78.6578 23.6666 79.9123C24.256 81.1669 25.4412 82.724 25.1481 83.3796C24.8549 84.0353 20.9338 84.1929 20.42 83.7484C19.9489 83.2737 19.5266 82.7532 19.1591 82.1944L19.9724 83.304H18.494L18.1978 71.8557Z" fill="#3261D8"/>
<path id="Vector_87" d="M65.3716 75.4301C65.2014 73.3686 65.1005 71.2914 65.0753 69.2174C65.0501 67.1433 65.1163 65.0629 65.277 62.9889C65.4036 60.9078 65.6999 58.8405 66.1627 56.8077C66.4074 55.7921 66.7159 54.793 67.0863 53.8164C67.1777 53.5705 67.2754 53.3278 67.3826 53.0914C67.4898 52.855 67.5843 52.6091 67.6978 52.379C67.8113 52.1489 67.9311 51.9125 68.0603 51.6855C68.1895 51.4586 68.3251 51.2348 68.4574 51.0142L68.5016 51.0362C68.4007 51.2758 68.2967 51.5122 68.1864 51.7486C68.076 51.985 67.9972 52.2277 67.9027 52.4673C67.8081 52.7068 67.7262 52.9527 67.6411 53.1954C67.556 53.4381 67.474 53.6808 67.4015 53.9298C67.0955 54.912 66.8409 55.9094 66.6387 56.918C66.2071 58.9348 65.8809 60.9728 65.6616 63.0235C65.4535 65.0818 65.3464 67.1496 65.3148 69.2174C65.2833 71.2851 65.3148 73.3592 65.4094 75.4301H65.3716Z" fill="#99D6BF"/>
<path id="Vector_88" d="M68.9241 65.9108C69.5987 65.6776 70.3898 65.5956 70.9194 66.2071C70.9954 66.2849 71.0488 66.3819 71.0738 66.4876C71.0823 66.6285 71.0488 66.7687 70.9776 66.8905C70.9063 67.0122 70.8005 67.1101 70.6735 67.1716C69.6909 67.823 68.6064 68.3056 67.4647 68.5995C67.0581 68.7036 66.6452 68.7792 66.2417 68.9147C65.9486 69.0093 65.3402 69.4884 65.1101 69.4128C65.6901 67.6476 67.6192 66.3553 68.9241 65.9108Z" fill="#99D6BF"/>
<path id="Vector_89" d="M62.2573 67.3009C61.9232 66.8722 61.649 66.3238 61.8097 65.8068C61.8244 65.7392 61.861 65.6783 61.9137 65.6335C62.0556 65.5231 62.2605 65.6335 62.396 65.7564C63.0647 66.3296 63.6522 66.9914 64.1422 67.7233C64.3219 67.9912 64.489 68.2686 64.6844 68.5239C64.8231 68.713 65.2675 69.0377 65.2959 69.2205C64.1801 69.2111 62.8972 68.1173 62.2573 67.3009Z" fill="#99D6BF"/>
<path id="Vector_90" d="M69.277 61.6366C69.983 61.4286 70.8089 61.3687 71.3636 61.9014C71.441 61.9683 71.4978 62.0557 71.5275 62.1536C71.5874 62.4215 71.3353 62.6358 71.1178 62.7588C70.0668 63.3484 68.9346 63.7797 67.7577 64.0385C67.3321 64.1299 66.9035 64.1993 66.4811 64.3159C66.1659 64.4042 65.5355 64.8297 65.2959 64.7603C65.8948 63.2001 67.909 62.0433 69.277 61.6366Z" fill="#99D6BF"/>
<path id="Vector_91" d="M62.4212 61.9361C62.1281 61.4129 61.9169 60.7604 62.1817 60.2182C62.2105 60.1476 62.2599 60.0872 62.3235 60.0449C62.5 59.9472 62.7049 60.1111 62.8373 60.2624C63.4695 61.0072 63.9995 61.8329 64.4133 62.7178C64.5646 63.033 64.7002 63.3766 64.8704 63.6918C64.9965 63.9188 65.4283 64.3538 65.4283 64.5586C64.2148 64.3601 62.9886 62.9574 62.4212 61.9361Z" fill="#99D6BF"/>
<path id="Vector_92" d="M69.0594 56.6532C69.652 56.442 70.3455 56.3822 70.8151 56.918C70.8809 56.9893 70.9275 57.076 70.9507 57.1702C70.9595 57.2945 70.9312 57.4186 70.8695 57.5269C70.8078 57.6352 70.7154 57.7228 70.6039 57.7785C69.743 58.3628 68.789 58.7966 67.7828 59.0614C67.4235 59.156 67.061 59.2253 66.708 59.3451C66.4495 59.4302 65.9136 59.8589 65.7119 59.7895C66.2162 58.2198 67.9089 57.063 69.0594 56.6532Z" fill="#99D6BF"/>
<path id="Vector_93" d="M63.2189 56.8928C62.9667 56.4358 62.7839 55.8715 63.0109 55.4019C63.0356 55.3393 63.0798 55.2862 63.1369 55.2506C63.2882 55.1655 63.4522 55.3073 63.5782 55.4397C64.1328 56.0842 64.5972 56.801 64.9588 57.5705C65.0912 57.851 65.2079 58.1379 65.356 58.4121C65.4632 58.6107 65.8383 58.9858 65.8383 59.1654C64.776 58.9921 63.7106 57.7754 63.2189 56.8928Z" fill="#99D6BF"/>
<path id="Vector_94" d="M69.6049 52.8329C70.1439 52.6501 70.7775 52.5996 71.203 53.063C71.2625 53.1233 71.3049 53.1984 71.3259 53.2805C71.3318 53.3896 71.305 53.4981 71.2488 53.5919C71.1926 53.6857 71.1097 53.7605 71.0107 53.8069C70.2187 54.312 69.3501 54.6857 68.4386 54.9133C68.1234 54.9952 67.783 55.052 67.4583 55.156C67.2251 55.2316 66.7365 55.6004 66.5505 55.5437C67.0139 54.1883 68.5584 53.1859 69.6049 52.8329Z" fill="#99D6BF"/>
<path id="Vector_95" d="M64.943 53.4602C64.8278 53.2939 64.7532 53.1029 64.7253 52.9025C64.6973 52.7021 64.7168 52.498 64.7822 52.3066C64.8008 52.2579 64.8338 52.2161 64.8768 52.1868C64.9966 52.1237 65.1353 52.2309 65.2235 52.3349C65.6526 52.8348 66.012 53.3904 66.2921 53.9866C66.3929 54.2041 66.4875 54.4279 66.6073 54.6422C66.6892 54.7967 66.9824 55.0867 66.9824 55.2254C66.1502 55.093 65.3149 54.1474 64.943 53.4602Z" fill="#99D6BF"/>
<path id="Vector_96" d="M70.125 49.7313C70.2853 49.6557 70.4642 49.6289 70.6396 49.6541C70.815 49.6793 70.9791 49.7555 71.1116 49.8732C71.1473 49.9104 71.1733 49.9559 71.1873 50.0055C71.2157 50.1505 71.0959 50.264 70.9919 50.3208C70.5077 50.6331 69.9751 50.8632 69.4158 51.0016C69.2172 51.052 69.0124 51.0899 68.8138 51.1529C68.6688 51.197 68.3693 51.4271 68.2559 51.3893C68.5301 50.5666 69.482 49.9488 70.125 49.7313Z" fill="#99D6BF"/>
<path id="Vector_97" d="M67.039 49.5831C66.9778 49.4396 66.9563 49.2822 66.9768 49.1274C66.9973 48.9727 67.0591 48.8263 67.1556 48.7037C67.183 48.6698 67.2206 48.6455 67.2628 48.6344C67.3763 48.6091 67.4708 48.7163 67.5213 48.8077C67.7736 49.2506 67.9584 49.7287 68.0697 50.2262C68.1075 50.4058 68.1359 50.5886 68.1895 50.7652C68.2431 50.9417 68.407 51.1655 68.3786 51.2663C67.7072 51.011 67.2061 50.1505 67.039 49.5831Z" fill="#99D6BF"/>
<path id="Vector_98" d="M63.9027 74.8406C63.5717 73.6649 63.2061 72.5113 62.8026 71.3734C62.3991 70.2355 61.9705 69.0944 61.4819 67.9912C60.9933 66.888 60.4322 65.8131 59.8554 64.7635C59.2891 63.7004 58.6231 62.6935 57.8665 61.7564L57.9011 61.7186C58.1375 61.914 58.3613 62.122 58.5977 62.3238C58.8341 62.5255 59.0138 62.7777 59.2282 63.0078C59.4276 63.2428 59.6148 63.488 59.7892 63.7422L60.054 64.1204L60.2967 64.5145C60.448 64.7792 60.6119 65.0409 60.7538 65.3151L61.1572 66.1409C61.3968 66.7051 61.6458 67.2631 61.8601 67.8367C62.7414 70.1098 63.4433 72.4485 63.9594 74.8312L63.9027 74.8406Z" fill="#99D6BF"/>
<path id="Vector_99" d="M60.2528 69.7784C60.0515 69.7485 59.8459 69.7811 59.6638 69.8719C59.4817 69.9627 59.3319 70.1072 59.2347 70.2859C59.2073 70.3405 59.1963 70.4018 59.2031 70.4624C59.222 70.6326 59.3954 70.7209 59.5183 70.7587C60.1595 70.9335 60.8249 71.0027 61.4884 70.9636C61.7248 70.9478 61.958 70.9163 62.1976 70.9163C62.371 70.9163 62.7807 71.0676 62.8911 70.9857C62.2922 70.1472 61.0313 69.7942 60.2528 69.7784Z" fill="#99D6BF"/>
<path id="Vector_100" d="M64.0698 69.3781C64.1358 69.2402 64.1683 69.0886 64.1645 68.9358C64.1606 68.7829 64.1206 68.6331 64.0477 68.4987C64.0283 68.4649 63.9984 68.4384 63.9626 68.4231C63.868 68.3884 63.7766 68.4861 63.7262 68.5744C63.4687 68.9986 63.2694 69.4555 63.1336 69.9329C63.0832 70.1094 63.0454 70.2859 62.9855 70.4561C62.9256 70.6264 62.7617 70.8344 62.7774 70.9384C63.3732 70.7209 63.8712 69.9171 64.0698 69.3781Z" fill="#99D6BF"/>
<path id="Vector_101" d="M59.3259 67.5563C59.1183 67.5383 58.9097 67.5758 58.7214 67.665C58.5331 67.7542 58.3718 67.8918 58.2542 68.0637C58.2248 68.112 58.2105 68.168 58.2132 68.2245C58.2132 68.3789 58.3992 68.4514 58.5284 68.4798C59.1945 68.6116 59.8765 68.6435 60.552 68.5744C60.7948 68.5523 61.0375 68.5113 61.2865 68.5019C61.4661 68.5019 61.8822 68.6122 61.9988 68.5334C61.4031 67.8021 60.1202 67.5342 59.3259 67.5563Z" fill="#99D6BF"/>
<path id="Vector_102" d="M63.0454 66.516C63.0914 66.3557 63.0997 66.1869 63.0696 66.0228C63.0396 65.8588 62.9719 65.7039 62.8721 65.5704C62.8441 65.537 62.8068 65.5129 62.7649 65.501C62.6546 65.4789 62.5726 65.6019 62.5285 65.709C62.3174 66.2185 62.1754 66.7538 62.1061 67.3008C62.0809 67.5026 62.0683 67.7043 62.0305 67.9029C62.0053 68.0479 61.8476 68.3536 61.8855 68.464C62.5064 68.1172 62.9194 67.1716 63.0454 66.516Z" fill="#99D6BF"/>
<path id="Vector_103" d="M58.5632 64.8454C58.3857 64.8191 58.2044 64.8483 58.0442 64.9289C57.8839 65.0096 57.7525 65.1379 57.668 65.2962C57.6452 65.3454 57.6354 65.3997 57.6396 65.4538C57.6586 65.6082 57.8099 65.687 57.9328 65.7217C58.4968 65.8829 59.084 65.9479 59.6696 65.914C59.8776 65.914 60.0825 65.8762 60.3 65.8762C60.4513 65.8762 60.8138 66.0149 60.9115 65.9424C60.3599 65.189 59.2504 64.8643 58.5632 64.8454Z" fill="#99D6BF"/>
<path id="Vector_104" d="M61.7341 63.9534C61.7757 63.812 61.7837 63.6629 61.7575 63.5178C61.7312 63.3728 61.6714 63.2359 61.5828 63.1181C61.5584 63.0901 61.5268 63.0694 61.4914 63.0582C61.3937 63.0393 61.3243 63.1465 61.2865 63.2379C61.1038 63.6798 60.9809 64.1441 60.9209 64.6185C60.8988 64.795 60.8862 64.9684 60.8547 65.1417C60.8326 65.2678 60.6971 65.5326 60.7286 65.6303C61.2676 65.3529 61.6238 64.5145 61.7341 63.9534Z" fill="#99D6BF"/>
<path id="Vector_105" d="M57.6019 62.8975C57.4415 62.8762 57.2784 62.9028 57.1331 62.9741C56.9878 63.0453 56.8669 63.158 56.7855 63.2978C56.7632 63.3405 56.7533 63.3885 56.7571 63.4365C56.7729 63.5689 56.9084 63.6351 57.0188 63.6635C57.5329 63.796 58.0651 63.845 58.5948 63.8085C58.7839 63.7927 58.973 63.7675 59.1622 63.7643C59.3009 63.7643 59.6287 63.8778 59.7169 63.8148C59.2284 63.1686 58.226 62.9007 57.6019 62.8975Z" fill="#99D6BF"/>
<path id="Vector_106" d="M60.2085 62.4152C60.2391 62.3084 60.2448 62.1961 60.2251 62.0868C60.2055 61.9775 60.1609 61.8741 60.095 61.7848C60.0758 61.7624 60.0507 61.746 60.0225 61.7375C59.9468 61.7375 59.8933 61.8068 59.8617 61.8793C59.7199 62.2224 59.6245 62.5828 59.5781 62.951C59.5623 63.0866 59.5528 63.2221 59.5276 63.3545C59.5024 63.4869 59.4047 63.6697 59.4299 63.7327C59.8491 63.5026 60.1265 62.8502 60.2085 62.4152Z" fill="#99D6BF"/>
<path id="Vector_107" d="M56.779 61.3246C56.6802 61.312 56.5799 61.3289 56.4907 61.3732C56.4015 61.4176 56.3274 61.4873 56.2778 61.5736C56.2635 61.5996 56.2569 61.6291 56.2589 61.6587C56.2589 61.7407 56.3535 61.7817 56.4197 61.7974C56.7352 61.8795 57.0621 61.9093 57.3873 61.8857C57.504 61.8857 57.6174 61.8605 57.7372 61.8605C57.857 61.8605 58.0241 61.9298 58.0776 61.892C57.9127 61.7121 57.712 61.5686 57.4883 61.4709C57.2647 61.3732 57.0231 61.3234 56.779 61.3246Z" fill="#99D6BF"/>
<path id="Vector_108" d="M58.4561 60.773C58.4648 60.685 58.4494 60.5963 58.4117 60.5164C58.3739 60.4365 58.3152 60.3683 58.2417 60.3191C58.219 60.3129 58.1951 60.3129 58.1724 60.3191C58.1062 60.3191 58.0747 60.3979 58.0621 60.4546C58.0051 60.7367 57.9902 61.0256 58.0179 61.312C58.0179 61.416 58.0432 61.5169 58.0495 61.6272C58.0558 61.7375 57.999 61.8794 58.0495 61.9424C58.195 61.7866 58.3064 61.6021 58.3765 61.4007C58.4465 61.1993 58.4736 60.9855 58.4561 60.773Z" fill="#99D6BF"/>
<path id="Vector_109" d="M66.3047 74.1062C66.7124 73.1333 67.1494 72.1698 67.6159 71.2157C68.0825 70.2617 68.5878 69.3308 69.1321 68.423C69.3969 67.9597 69.6869 67.5152 69.9674 67.0613C70.2621 66.615 70.5831 66.1866 70.9288 65.7784C71.1021 65.5767 71.2755 65.3718 71.4678 65.1858C71.6601 64.9999 71.8334 64.795 72.0478 64.6279C72.2621 64.4609 72.4575 64.2812 72.6782 64.1204C72.8988 63.9597 73.1321 63.8304 73.3622 63.6981L73.3905 63.739C72.6343 64.4624 71.9424 65.2503 71.3228 66.0936C70.6924 66.9226 70.062 67.7516 69.4788 68.6342C68.8957 69.5168 68.3567 70.412 67.8429 71.3324C67.3291 72.2528 66.8248 73.1795 66.3551 74.1283L66.3047 74.1062Z" fill="#99D6BF"/>
<path id="Vector_110" d="M70.0619 70.3237C70.2254 70.3374 70.3799 70.4043 70.5017 70.5142C70.6236 70.6241 70.706 70.7709 70.7365 70.9321C70.7488 70.985 70.7488 71.04 70.7365 71.0928C70.7124 71.1557 70.6688 71.2092 70.612 71.2455C70.5553 71.2818 70.4885 71.299 70.4213 71.2946C69.906 71.3446 69.386 71.2954 68.8894 71.1496C68.7128 71.096 68.5426 71.0329 68.3598 70.992C68.2274 70.9668 67.8901 71.0266 67.8208 70.9384C68.1234 70.6729 68.4824 70.4796 68.8706 70.3731C69.2588 70.2666 69.6662 70.2497 70.0619 70.3237Z" fill="#99D6BF"/>
<path id="Vector_111" d="M67.2441 69.3214C67.221 69.189 67.2253 69.0533 67.2568 68.9227C67.2882 68.792 67.3461 68.6692 67.4269 68.5618C67.4471 68.5363 67.4746 68.5177 67.5057 68.5082C67.5845 68.5082 67.6349 68.5964 67.657 68.6815C67.7736 69.0975 67.8381 69.5263 67.8493 69.9581C67.8493 70.1189 67.8493 70.2733 67.865 70.4372C67.8808 70.6012 67.9627 70.8029 67.9312 70.888C67.5214 70.6169 67.2913 69.8384 67.2441 69.3214Z" fill="#99D6BF"/>
<path id="Vector_112" d="M71.1873 68.5302C71.3549 68.5546 71.5117 68.6272 71.6387 68.7391C71.7658 68.851 71.8575 68.9975 71.9028 69.1606C71.9171 69.209 71.9171 69.2604 71.9028 69.3087C71.865 69.4411 71.72 69.4727 71.6097 69.4758C71.0814 69.4811 70.5559 69.3969 70.0557 69.2268C69.8761 69.1669 69.6995 69.0913 69.5136 69.044C69.3812 69.0062 69.0408 69.044 68.9683 68.9526C69.5609 68.401 70.5821 68.3789 71.1873 68.5302Z" fill="#99D6BF"/>
<path id="Vector_113" d="M68.5584 67.0173C68.551 66.8677 68.5753 66.7182 68.6296 66.5786C68.6839 66.439 68.767 66.3125 68.8736 66.2072C68.8989 66.1841 68.9309 66.1698 68.965 66.1662C69.0564 66.1662 69.0942 66.286 69.1068 66.3837C69.1715 66.8666 69.1778 67.3555 69.1257 67.8399C69.1068 68.0165 69.0816 68.1961 69.0722 68.3726C69.0627 68.5492 69.1226 68.7982 69.0722 68.8864C68.6624 68.505 68.53 67.5972 68.5584 67.0173Z" fill="#99D6BF"/>
<path id="Vector_114" d="M72.2683 66.2986C72.4133 66.3087 72.5507 66.3674 72.6582 66.4652C72.7658 66.563 72.8372 66.6942 72.8609 66.8376C72.8717 66.8842 72.8717 66.9327 72.8609 66.9794C72.8368 67.0318 72.7987 67.0765 72.7509 67.1087C72.7032 67.141 72.6474 67.1595 72.5899 67.1622C72.1358 67.2104 71.6767 67.1708 71.2376 67.0456C71.08 67.0015 70.9224 66.9447 70.7711 66.9101C70.6198 66.8754 70.3519 66.9447 70.292 66.8659C70.5574 66.6286 70.873 66.4544 71.2153 66.3561C71.5575 66.2579 71.9175 66.2382 72.2683 66.2986Z" fill="#99D6BF"/>
<path id="Vector_115" d="M70.0431 65.003C70.0377 64.8735 70.059 64.7443 70.1056 64.6234C70.1523 64.5025 70.2232 64.3924 70.3142 64.3001C70.3365 64.2792 70.3656 64.2669 70.3961 64.2654C70.4718 64.2654 70.5033 64.3695 70.5159 64.4546C70.5727 64.8726 70.579 65.2959 70.5348 65.7154C70.5159 65.8698 70.4938 66.0306 70.4844 66.1788C70.4749 66.3269 70.5317 66.5475 70.4844 66.6232C70.1251 66.2954 70.0116 65.5074 70.0431 65.003Z" fill="#99D6BF"/>
<path id="Vector_116" d="M73.3621 64.7604C73.4921 64.7747 73.6145 64.8291 73.7122 64.9161C73.8099 65.0031 73.8781 65.1183 73.9074 65.2458C73.9183 65.286 73.9183 65.3285 73.9074 65.3687C73.8881 65.4159 73.8548 65.456 73.8119 65.4836C73.7691 65.5112 73.7188 65.525 73.6679 65.5232C73.2576 65.5548 72.845 65.5099 72.4512 65.3908C72.3093 65.3467 72.1738 65.2931 72.0288 65.2615C71.8838 65.23 71.6537 65.2836 71.6001 65.2143C71.8405 65.0105 72.1239 64.8638 72.429 64.7851C72.7342 64.7065 73.0532 64.6981 73.3621 64.7604Z" fill="#99D6BF"/>
<path id="Vector_117" d="M71.4771 63.9156C71.4727 63.8155 71.4893 63.7156 71.5256 63.6223C71.562 63.5289 71.6174 63.4442 71.6883 63.3734C71.7051 63.3566 71.7275 63.3465 71.7513 63.345C71.8112 63.345 71.8364 63.4238 71.8459 63.49C71.8837 63.8157 71.8837 64.1446 71.8459 64.4703C71.8459 64.5901 71.8143 64.7099 71.808 64.8297C71.8206 64.9449 71.8206 65.0611 71.808 65.1764C71.5464 64.9179 71.4582 64.3096 71.4771 63.9156Z" fill="#99D6BF"/>
<path id="Vector_118" d="M74.2825 63.5311C74.3626 63.5382 74.4383 63.5708 74.4985 63.6241C74.5586 63.6775 74.6001 63.7487 74.6167 63.8274C74.6229 63.8522 74.6229 63.8782 74.6167 63.903C74.6039 63.9318 74.5832 63.9564 74.5569 63.9737C74.5307 63.991 74.5 64.0004 74.4685 64.0008C74.2155 64.0201 73.9612 63.9923 73.7183 63.9188C73.6337 63.8878 73.5474 63.8615 73.4598 63.84C73.3936 63.8242 73.2297 63.84 73.1951 63.8085C73.3438 63.6835 73.5188 63.5936 73.7071 63.5456C73.8954 63.4976 74.0921 63.4926 74.2825 63.5311Z" fill="#99D6BF"/>
<path id="Vector_119" d="M73.1163 62.7746C73.1247 62.6987 73.1519 62.6262 73.1954 62.5634C73.2389 62.5007 73.2972 62.4498 73.3653 62.4152C73.3826 62.409 73.4016 62.409 73.4189 62.4152C73.4693 62.4152 73.4788 62.5003 73.4756 62.5539C73.4673 62.8085 73.4249 63.0608 73.3495 63.3041C73.3212 63.3924 73.2896 63.4775 73.2676 63.5689C73.2455 63.6603 73.2676 63.7958 73.2235 63.8336C73.0575 63.5062 73.0193 63.1286 73.1163 62.7746Z" fill="#99D6BF"/>
<path id="Vector_120" d="M69.4125 83.7295H61.4756L60.9209 80.5775C60.6552 79.0746 60.4836 77.5565 60.4071 76.0322L60.2085 72.1457H70.6734L70.5757 75.4144C70.529 77.0911 70.3509 78.7616 70.043 80.4104L69.4125 83.7295Z" fill="#FFC85A"/>
<g id="Group_16" opacity="0.5">
<path id="Vector_121" d="M70.043 80.4104C70.3554 78.7598 70.5378 77.0872 70.5883 75.408L70.686 72.1393H69.4409C69.0879 75.8336 67.5087 81.3655 61.4851 83.7232H69.4126L70.043 80.4104Z" fill="#F4BB56"/>
</g>
</g>
</g>
</svg>
