<svg width="72" height="78" viewBox="0 0 72 78" fill="none" xmlns="http://www.w3.org/2000/svg">
<g id="Group">
<g id="Layer 1">
<path id="Vector" d="M35.3512 70.3665C35.3512 70.3665 6.87155 68.3084 3.44721 54.6278C0.0228705 40.9472 7.61245 39.086 10.2043 31.4235C12.7961 23.761 1.04216 19.2419 8.90836 8.81588C16.7746 -1.61009 28.3778 -1.79184 33.2672 3.11844C38.1566 8.02873 43.7949 0.117832 52.8689 4.57374C61.9429 9.02966 64.1665 18.0319 61.2971 25.0652C58.4278 32.0985 70.195 38.8229 71.6693 46.7961C73.1436 54.7693 59.8277 73.8821 35.3512 70.3665Z" fill="#CBD8E1"/>
<path id="Vector_2" d="M6.49487 78H23.5606L24.9755 74.2581C25.2251 73.6023 25.6047 73.0016 26.0921 72.4908C26.5795 71.98 27.1652 71.5692 27.8153 71.2821C29.0517 70.7326 30.715 69.7351 32.3272 67.957C35.4652 64.4951 37.1285 60.7848 37.1285 60.7848L26.5524 60.7341C26.5524 60.7341 27.5043 54.922 22.2475 47.2028C21.6859 46.3757 21.4282 45.3852 21.5168 44.3948L22.015 38.7653C22.015 38.7653 25.5873 34.8434 23.3954 29.9781C23.3954 29.9781 21.3001 27.1276 20.4684 28.171C20.4684 28.171 14.1382 42.9802 13.562 45.1824C12.9859 47.3846 12.2172 48.7685 12.9854 55.6888C13.1889 57.521 13.2621 59.0486 13.2594 60.3053C13.254 62.717 12.7067 65.0977 11.6565 67.2776L6.49487 78Z" fill="#FFC0BB"/>
<g id="Vector_3" style="mix-blend-mode:multiply" opacity="0.2">
<path d="M22.4118 68.3936C20.8261 66.6661 18.6272 66.9387 16.3133 66.1507C13.9994 65.3627 13.2585 59.6804 13.2585 59.6804C13.2621 59.8951 13.2637 60.1029 13.2634 60.304C13.258 62.7157 12.7106 65.0964 11.6605 67.2763L6.49487 78H23.5606L24.9755 74.2581C25.2251 73.6023 25.6047 73.0016 26.0921 72.4908C26.5795 71.98 27.1652 71.5692 27.8153 71.2821C28.8676 70.8144 30.2287 70.022 31.6035 68.7004C26.9052 70.6391 23.9958 70.1215 22.4118 68.3936Z" fill="#FFC0BB"/>
</g>
<path id="Vector_4" d="M36.3736 11.4192C36.3559 11.3439 36.3229 11.2728 36.2767 11.2102C36.2306 11.1476 36.1721 11.0947 36.1047 11.0546C36.0374 11.0146 35.9626 10.9882 35.8847 10.977C35.8068 10.9658 35.7274 10.9701 35.6512 10.9895C35.5816 10.8427 35.4707 10.7185 35.3316 10.6315C35.1926 10.5445 35.0312 10.4983 34.8663 10.4984C34.7788 10.4985 34.6918 10.5114 34.6082 10.5369C34.5041 10.3672 34.3532 10.23 34.173 10.141C33.9928 10.0521 33.7906 10.015 33.5899 10.0342C33.3892 10.0534 33.1981 10.128 33.0388 10.2495C32.8794 10.3709 32.7583 10.5341 32.6894 10.7204C32.5779 10.6594 32.452 10.6281 32.3243 10.6296C32.1967 10.6311 32.0716 10.6653 31.9616 10.7289C31.8515 10.7924 31.7603 10.8831 31.6969 10.992C31.6335 11.1009 31.6001 11.2241 31.6001 11.3496C31.6001 11.3729 31.6001 11.3963 31.6036 11.4192H36.3736Z" fill="white"/>
<path id="Vector_5" d="M52.8701 8.79943C52.8238 8.60271 52.7379 8.4171 52.6174 8.25355C52.4969 8.09 52.3442 7.95183 52.1684 7.8472C51.9927 7.74256 51.7973 7.67359 51.594 7.64434C51.3906 7.61509 51.1834 7.62616 50.9844 7.6769C50.7523 7.1902 50.3487 6.80247 49.8483 6.58532C49.3478 6.36817 48.7843 6.33627 48.2618 6.49552C47.9899 6.05252 47.5959 5.69418 47.1254 5.46192C46.6548 5.22966 46.127 5.13297 45.6029 5.18303C45.0788 5.23309 44.5799 5.42786 44.1637 5.74482C43.7475 6.06177 43.4312 6.48797 43.2513 6.97413C42.9599 6.81486 42.6312 6.73317 42.2977 6.73714C41.9643 6.74112 41.6377 6.83063 41.3503 6.9968C41.063 7.16297 40.8248 7.40004 40.6594 7.6845C40.494 7.96896 40.4072 8.29095 40.4075 8.61854C40.4074 8.67953 40.4105 8.74048 40.4167 8.80116L52.8701 8.79943Z" fill="white"/>
<path id="Vector_6" d="M19.0849 20.3271C19.0462 20.1624 18.9743 20.0069 18.8735 19.8699C18.7726 19.7329 18.6448 19.6172 18.4976 19.5295C18.3505 19.4419 18.1869 19.3841 18.0166 19.3596C17.8463 19.3351 17.6728 19.3443 17.5062 19.3868C17.3123 18.9792 16.9746 18.6544 16.5556 18.4726C16.1367 18.2908 15.6649 18.2643 15.2276 18.398C15 18.0272 14.6703 17.7273 14.2765 17.5329C13.8827 17.3385 13.4409 17.2576 13.0023 17.2995C12.5636 17.3414 12.146 17.5044 11.7977 17.7697C11.4494 18.035 11.1847 18.3918 11.0341 18.7987C10.7904 18.6657 10.5156 18.5976 10.2368 18.601C9.95807 18.6043 9.68504 18.6792 9.44476 18.8181C9.20448 18.9569 9.00527 19.1551 8.86684 19.3928C8.72842 19.6305 8.65557 19.8996 8.65552 20.1735C8.65552 20.225 8.65816 20.2761 8.66301 20.3263L19.0849 20.3271Z" fill="white"/>
<path id="Vector_7" d="M14.8655 10.9099C18.7889 16.9916 28.4589 22.4112 28.4589 22.4112C28.4589 22.4112 20.772 21.7981 16.9587 16.9176L18.3422 15.7925C18.3422 15.7925 17.241 15.8968 16.3217 16.0015C15.4716 14.6185 14.9219 12.9416 14.8655 10.9099Z" fill="#E6A748"/>
<path id="Vector_8" d="M25.1596 13.425C24.5632 13.6911 23.6805 14.0962 23.6805 14.0962L24.5311 12.8958C23.5404 12.1389 22.4507 11.6343 21.3706 11.3042C20.9327 11.9303 20.4182 12.6301 20.4182 12.6301L20.3161 11.0324C17.4212 10.4201 14.8655 10.9099 14.8655 10.9099C18.7889 16.9916 28.4589 22.4113 28.4589 22.4113C28.4148 17.9428 27.0299 15.1525 25.1596 13.425Z" fill="#FFCB83"/>
<path id="Vector_9" d="M13.425 19.4907C14.4867 18.874 15.6647 18.4755 16.8877 18.3193C17.2304 18.7036 17.6511 19.1558 17.6511 19.1558L17.6744 18.2505C22.0471 18.0445 25.7353 20.7504 25.7353 20.7504C23.2325 22.246 21.0789 22.6653 19.3042 22.5411C19.1923 22.2252 19.0333 21.7535 19.0333 21.7535L18.7364 22.4818C17.9535 22.3724 17.1912 22.1504 16.4741 21.8228C16.6313 21.445 16.7965 21.0131 16.7965 21.0131L15.864 21.5151C14.2651 20.6254 13.425 19.4907 13.425 19.4907Z" fill="#FF6E53"/>
<path id="Vector_10" d="M19.3038 22.541C19.1919 22.2251 19.0329 21.7535 19.0329 21.7535L18.736 22.4818C17.9532 22.3723 17.1911 22.1503 16.4741 21.8227C16.6314 21.4449 16.7966 21.013 16.7966 21.013L15.8641 21.515C14.2633 20.6253 13.4233 19.4907 13.4233 19.4907C18.511 18.9195 25.7327 20.7504 25.7327 20.7504C23.2316 22.2459 21.0781 22.6652 19.3038 22.541Z" fill="#E74A60"/>
<path id="Vector_11" d="M56.4853 18.8675L56.1179 21.5973L58.0931 20.1805L64.1348 17.147L59.4603 17.5693C59.4603 17.5693 57.0786 18.1375 56.9496 18.2522C56.8205 18.3669 56.4853 18.8675 56.4853 18.8675Z" fill="#E74A60"/>
<path id="Vector_12" d="M54.415 17.2166L64.1357 17.147L56.4853 18.8662L54.415 17.2166Z" fill="#FF6E53"/>
<path id="Vector_13" d="M59.6101 21.6137L57.0632 19.6041L64.1357 17.147L59.6101 21.6137Z" fill="#FF6E53"/>
<path id="Vector_14" d="M55.4831 20.2891C55.6921 20.209 55.9098 20.1528 56.1319 20.1217L56.1139 19.952C55.877 19.9847 55.6448 20.0442 55.4219 20.1294L55.4831 20.2891Z" fill="#65CEFE"/>
<path id="Vector_15" d="M49.3579 35.5007C49.7457 35.3089 50.1215 35.0946 50.4833 34.859L50.5794 35.0009C50.2112 35.2405 49.8287 35.4582 49.4341 35.6531L49.3579 35.5007ZM51.5075 34.0762C51.8273 33.7904 52.1197 33.4763 52.381 33.138L52.5197 33.2405C52.2521 33.5873 51.9526 33.9091 51.6251 34.2021L51.5075 34.0762ZM53.0518 32.0527C53.1368 31.877 53.2152 31.6944 53.2848 31.5092C53.3633 31.2993 53.4328 31.0799 53.491 30.8575L53.6593 30.9007C53.5994 31.1288 53.5271 31.3538 53.4474 31.5689C53.3765 31.7588 53.2959 31.9467 53.2086 32.1267L53.0518 32.0527ZM53.7531 28.3233L53.9266 28.3194C53.9379 28.7527 53.9232 29.1861 53.8826 29.6177L53.7099 29.6016C53.7498 29.1767 53.7642 28.7499 53.7531 28.3233ZM53.506 25.7671L53.6778 25.7429C53.7504 26.2419 53.8024 26.6517 53.8412 27.026L53.6685 27.0433C53.6297 26.6694 53.5782 26.2639 53.506 25.7671ZM53.3117 24.4832C53.2446 24.0551 53.2226 23.6214 53.2461 23.1889L53.4192 23.1993C53.3965 23.6198 53.4181 24.0415 53.4835 24.4577V24.4676L53.3113 24.491L53.3117 24.4832ZM53.532 21.9075C53.7009 21.496 53.958 21.125 54.2856 20.8196L54.4046 20.9438C54.095 21.2325 53.8522 21.5831 53.6927 21.972L53.532 21.9075Z" fill="#65CEFE"/>
<path id="Vector_16" d="M47.5724 36.4207C47.7957 36.3446 48.016 36.2645 48.2265 36.1832L48.1631 36.0244C47.9543 36.1053 47.7367 36.1845 47.5151 36.2598L47.5724 36.4207Z" fill="#65CEFE"/>
<path id="Vector_17" d="M46.6727 18.295C46.6727 18.295 50.2873 15.9184 51.1128 17.4841C51.9382 19.0497 46.4167 24.591 46.4167 24.591L46.6727 18.295Z" fill="#EAA0A0"/>
<path id="Vector_18" d="M46.6727 28.6509C46.6727 28.6509 50.2873 26.2738 51.1128 27.8399C51.9382 29.406 46.4167 34.9464 46.4167 34.9464L46.6727 28.6509Z" fill="#EAA0A0"/>
<path id="Vector_19" d="M46.6727 35.7062C46.6727 35.7062 50.2873 33.3296 51.1128 34.8953C51.9382 36.4609 46.4167 42.0022 46.4167 42.0022L46.6727 35.7062Z" fill="#EAA0A0"/>
<path id="Vector_20" d="M44.1759 15.6315H24.332C23.9804 15.6315 23.6324 15.6996 23.3076 15.8318C22.9829 15.964 22.6878 16.1577 22.4393 16.402C22.1908 16.6462 21.9937 16.9362 21.8593 17.2553C21.7249 17.5744 21.6558 17.9164 21.656 18.2617V58.1044C21.6561 58.8016 21.9381 59.4702 22.4399 59.9632C22.9417 60.4562 23.6223 60.7332 24.332 60.7333H44.1759C44.8856 60.7333 45.5662 60.4563 46.068 59.9633C46.5699 59.4703 46.8518 58.8016 46.8518 58.1044V18.2617C46.8519 17.9164 46.7828 17.5744 46.6484 17.2554C46.514 16.9363 46.3169 16.6463 46.0684 16.4021C45.8199 16.1579 45.5249 15.9641 45.2001 15.8319C44.8754 15.6997 44.5274 15.6316 44.1759 15.6315Z" fill="#063E70"/>
<g id="Vector_21" style="mix-blend-mode:multiply" opacity="0.2">
<path d="M23.4638 49.132C23.4638 49.132 19.8748 57.7638 20.2227 59.3957C20.5707 61.0275 22.7494 63.2103 28.0933 62.4828C33.4373 61.7554 37.133 60.7826 37.133 60.7826C37.133 60.7826 37.3563 49.1333 37.133 48.5426C36.9097 47.9519 27.2991 43.7587 26.9212 43.7587C26.5433 43.7587 23.4638 49.132 23.4638 49.132Z" fill="#FFC0BB"/>
</g>
<path id="Vector_22" d="M45.5547 19.2146H22.9534V57.1489H45.5547V19.2146Z" fill="white"/>
<path id="Vector_23" d="M28.8013 27.8685H39.7069C40.1073 27.8685 40.4914 28.0248 40.7746 28.303C41.0578 28.5812 41.2168 28.9585 41.2168 29.352V43.609C41.2168 43.8037 41.1777 43.9966 41.1018 44.1765C41.0258 44.3564 40.9146 44.5198 40.7744 44.6575C40.6342 44.7951 40.4677 44.9043 40.2846 44.9788C40.1014 45.0533 39.9051 45.0916 39.7069 45.0915H28.8013C28.4009 45.0915 28.017 44.9353 27.7339 44.6572C27.4508 44.3791 27.2917 44.0019 27.2917 43.6085V29.3511C27.292 28.9579 27.4511 28.5809 27.7342 28.3029C28.0172 28.0249 28.401 27.8686 28.8013 27.8685Z" fill="#C9EDF9"/>
<path id="Vector_24" d="M25.2961 33.7976L27.373 43.0457C27.4129 43.239 27.5236 43.4135 27.6862 43.5396C27.8489 43.6658 28.0535 43.7359 28.2655 43.7381H40.5449C40.7569 43.7358 40.9614 43.6656 41.1241 43.5395C41.2867 43.4133 41.3974 43.2389 41.4375 43.0457L43.5093 33.7976H25.2961ZM28.9583 42.8395C28.8923 42.8395 28.8269 42.8274 28.7658 42.804C28.7048 42.7805 28.6493 42.7461 28.6026 42.7027C28.5559 42.6594 28.5189 42.6079 28.4936 42.5512C28.4683 42.4946 28.4553 42.4339 28.4553 42.3725L27.7583 35.8179C27.7583 35.694 27.8113 35.5752 27.9057 35.4877C28 35.4001 28.128 35.3509 28.2614 35.3509C28.3948 35.3509 28.5227 35.4001 28.6171 35.4877C28.7114 35.5752 28.7644 35.694 28.7644 35.8179L29.4614 42.3725C29.4614 42.4964 29.4084 42.6152 29.3141 42.7027C29.2197 42.7903 29.0918 42.8395 28.9583 42.8395ZM31.4877 42.8395C31.4216 42.8395 31.3562 42.8274 31.2951 42.804C31.2341 42.7805 31.1787 42.7461 31.1319 42.7027C31.0852 42.6594 31.0482 42.6079 31.0229 42.5512C30.9976 42.4946 30.9846 42.4339 30.9846 42.3725L30.7053 35.8179C30.7053 35.7565 30.7183 35.6958 30.7436 35.6392C30.7689 35.5825 30.8059 35.531 30.8527 35.4877C30.8994 35.4443 30.9548 35.4099 31.0159 35.3864C31.0769 35.363 31.1423 35.3509 31.2084 35.3509C31.2744 35.3509 31.3398 35.363 31.4009 35.3864C31.4619 35.4099 31.5174 35.4443 31.5641 35.4877C31.6108 35.531 31.6478 35.5825 31.6731 35.6392C31.6984 35.6958 31.7114 35.7565 31.7114 35.8179L31.9899 42.3725C31.99 42.4338 31.9771 42.4945 31.9519 42.5512C31.9267 42.6078 31.8897 42.6593 31.8431 42.7027C31.7964 42.7461 31.741 42.7805 31.68 42.8039C31.619 42.8274 31.5537 42.8395 31.4877 42.8395ZM34.9079 42.3725C34.9079 42.4964 34.8549 42.6152 34.7605 42.7027C34.6662 42.7903 34.5382 42.8395 34.4048 42.8395C34.2714 42.8395 34.1434 42.7903 34.0491 42.7027C33.9548 42.6152 33.9018 42.4964 33.9018 42.3725V35.8179C33.9018 35.694 33.9548 35.5752 34.0491 35.4877C34.1434 35.4001 34.2714 35.3509 34.4048 35.3509C34.5382 35.3509 34.6662 35.4001 34.7605 35.4877C34.8549 35.5752 34.9079 35.694 34.9079 35.8179V42.3725ZM37.8258 42.3725C37.8258 42.4964 37.7729 42.6152 37.6785 42.7027C37.5842 42.7903 37.4562 42.8395 37.3228 42.8395C37.1894 42.8395 37.0614 42.7903 36.9671 42.7027C36.8728 42.6152 36.8198 42.4964 36.8198 42.3725L37.099 35.8179C37.0963 35.755 37.1073 35.6923 37.1313 35.6334C37.1553 35.5746 37.1919 35.5209 37.2388 35.4755C37.2858 35.4301 37.3421 35.394 37.4045 35.3693C37.4668 35.3446 37.5339 35.3319 37.6017 35.3319C37.6695 35.3319 37.7365 35.3446 37.7989 35.3693C37.8612 35.394 37.9176 35.4301 37.9645 35.4755C38.0115 35.5209 38.0481 35.5746 38.0721 35.6334C38.0961 35.6923 38.1071 35.755 38.1043 35.8179L37.8258 42.3725ZM40.3543 42.3725C40.3571 42.4354 40.3461 42.4981 40.3221 42.557C40.2981 42.6158 40.2615 42.6695 40.2146 42.7149C40.1676 42.7603 40.1113 42.7964 40.0489 42.8211C39.9866 42.8457 39.9195 42.8585 39.8517 42.8585C39.7839 42.8585 39.7168 42.8457 39.6545 42.8211C39.5921 42.7964 39.5358 42.7603 39.4889 42.7149C39.4419 42.6695 39.4053 42.6158 39.3813 42.557C39.3573 42.4981 39.3463 42.4354 39.3491 42.3725L40.046 35.8179C40.0433 35.755 40.0543 35.6923 40.0783 35.6334C40.1023 35.5746 40.1389 35.5209 40.1858 35.4755C40.2328 35.4301 40.2891 35.394 40.3515 35.3693C40.4138 35.3446 40.4809 35.3319 40.5487 35.3319C40.6165 35.3319 40.6835 35.3446 40.7459 35.3693C40.8082 35.394 40.8646 35.4301 40.9115 35.4755C40.9585 35.5209 40.995 35.5746 41.0191 35.6334C41.0431 35.6923 41.0541 35.755 41.0513 35.8179L40.3543 42.3725Z" fill="#6577FF"/>
<path id="Vector_25" d="M43.7103 33.7976H25.095C24.8799 33.7976 24.6737 33.7453 24.5217 33.6521C24.3696 33.5589 24.2842 33.4324 24.2842 33.3006C24.2842 33.1688 24.3696 33.0424 24.5217 32.9492C24.6737 32.856 24.8799 32.8036 25.095 32.8036H43.7103C43.8168 32.8036 43.9222 32.8164 44.0206 32.8414C44.1189 32.8664 44.2083 32.903 44.2836 32.9492C44.3589 32.9953 44.4186 33.0501 44.4594 33.1104C44.5001 33.1707 44.5211 33.2353 44.5211 33.3006C44.5211 33.3659 44.5001 33.4305 44.4594 33.4908C44.4186 33.5511 44.3589 33.6059 44.2836 33.6521C44.2083 33.6982 44.1189 33.7348 44.0206 33.7598C43.9222 33.7848 43.8168 33.7976 43.7103 33.7976Z" fill="#4054E7"/>
<path id="Vector_26" d="M29.2061 32.371V31.7038C29.2061 31.1702 29.4204 30.6584 29.8018 30.2811C30.1832 29.9038 30.7005 29.6918 31.2399 29.6918H37.5662C38.1055 29.6918 38.6228 29.9038 39.0042 30.2811C39.3856 30.6584 39.5999 31.1702 39.5999 31.7038V32.371C39.5999 32.4856 39.6459 32.5955 39.7277 32.6766C39.8095 32.7577 39.9205 32.8034 40.0364 32.8036C40.1523 32.8034 40.2634 32.7577 40.3454 32.6766C40.4273 32.5956 40.4735 32.4856 40.4737 32.371V31.7038C40.4735 30.941 40.1671 30.2095 39.6219 29.6701C39.0766 29.1307 38.3372 28.8276 37.5662 28.8274H31.2391C30.4679 28.8274 29.7284 29.1304 29.1831 29.6699C28.6379 30.2093 28.3315 30.9409 28.3315 31.7038V32.371C28.3315 32.4856 28.3775 32.5955 28.4593 32.6766C28.5412 32.7577 28.6522 32.8034 28.768 32.8036C28.8841 32.8036 28.9954 32.758 29.0775 32.6769C29.1597 32.5958 29.2059 32.4858 29.2061 32.371Z" fill="#6577FF"/>
<path id="Vector_27" d="M38.8989 17.5468H29.646C29.5304 17.5468 29.4368 17.6388 29.4368 17.7524V17.8164C29.4368 17.9299 29.5304 18.022 29.646 18.022H38.8989C39.0144 18.022 39.1081 17.9299 39.1081 17.8164V17.7524C39.1081 17.6388 39.0144 17.5468 38.8989 17.5468Z" fill="white"/>
<path id="Vector_28" d="M21.2063 42.1601C21.2063 42.1601 21.3424 42.6582 21.6508 42.9032L22.0172 38.7631C22.0172 38.7631 24.6452 35.8781 24.0104 31.9873C23.7964 30.6533 23.1164 29.4341 22.0873 28.5388C21.4983 28.0304 20.8517 27.6907 20.4707 28.1688C20.4707 28.1688 17.4939 35.1333 15.4373 40.2202L21.2063 42.1601Z" fill="#FFC0BB"/>
<path id="Vector_29" d="M45.5547 54.9052H22.9534V57.1489H45.5547V54.9052Z" fill="#65CEFE"/>
<path id="Vector_30" d="M45.5547 19.2146H22.9534V21.2277H45.5547V19.2146Z" fill="#C0EFFF"/>
<path id="Vector_31" d="M21.0059 32.2595C21.8287 31.8878 22.2582 29.7851 22.4119 28.8409C21.7512 28.1883 20.9235 27.6015 20.4707 28.1697C20.4707 28.1697 19.8153 29.7033 18.907 31.8566C19.5281 32.1959 20.391 32.5373 21.0059 32.2595Z" fill="#EAA0A0"/>
<path id="Vector_32" d="M11.412 68.1072C13.218 69.1972 19.0324 72.4562 25.042 73.1512C25.3944 73.1918 25.6419 73.5086 25.538 73.783L24.4878 76.546C24.4182 76.729 24.209 76.8355 23.9742 76.8056C22.2026 76.5945 14.8932 75.5135 9.75006 71.605C9.57386 71.4721 9.50118 71.2705 9.56681 71.0978L10.6385 68.2781C10.7394 68.0141 11.1178 67.9297 11.412 68.1072Z" fill="#064C91"/>
<path id="Vector_33" d="M10.8843 70.7499L10.8645 70.7425C10.8392 70.7334 10.816 70.7193 10.7962 70.7013C10.7765 70.6832 10.7605 70.6615 10.7494 70.6373C10.7383 70.6132 10.7321 70.5871 10.7313 70.5606C10.7305 70.5341 10.735 70.5077 10.7447 70.4829L11.068 69.6326C11.0773 69.6077 11.0916 69.5848 11.1099 69.5654C11.1283 69.5459 11.1505 69.5303 11.1751 69.5193C11.1997 69.5083 11.2262 69.5023 11.2532 69.5015C11.2802 69.5008 11.3071 69.5053 11.3323 69.5149L11.3521 69.5222C11.3775 69.5314 11.4007 69.5454 11.4205 69.5634C11.4403 69.5815 11.4563 69.6032 11.4674 69.6274C11.4786 69.6515 11.4847 69.6776 11.4855 69.7042C11.4863 69.7307 11.4817 69.7571 11.4719 69.7819L11.1486 70.6326C11.1392 70.6575 11.1249 70.6802 11.1065 70.6996C11.0881 70.719 11.066 70.7345 11.0414 70.7454C11.0168 70.7564 10.9903 70.7624 10.9633 70.7631C10.9364 70.7639 10.9095 70.7594 10.8843 70.7499Z" fill="#063E70"/>
<path id="Vector_34" d="M11.9659 71.4042L11.9457 71.3973C11.9204 71.388 11.8972 71.374 11.8775 71.3559C11.8578 71.3378 11.8419 71.3161 11.8308 71.2919C11.8197 71.2678 11.8136 71.2417 11.8128 71.2152C11.8121 71.1887 11.8166 71.1624 11.8263 71.1376L12.1496 70.2869C12.1686 70.2372 12.2069 70.197 12.256 70.175C12.3051 70.153 12.3611 70.1511 12.4117 70.1696L12.4315 70.1769C12.4568 70.1861 12.4801 70.2002 12.4998 70.2182C12.5196 70.2363 12.5355 70.258 12.5466 70.2822C12.5578 70.3063 12.5639 70.3324 12.5647 70.3589C12.5656 70.3854 12.561 70.4118 12.5513 70.4366L12.228 71.2873C12.2186 71.3119 12.2044 71.3344 12.1861 71.3536C12.1679 71.3728 12.1459 71.3882 12.1216 71.3991C12.0973 71.4099 12.071 71.416 12.0443 71.4169C12.0176 71.4177 11.991 71.4134 11.9659 71.4042Z" fill="#063E70"/>
<path id="Vector_35" d="M13.0385 72.0512C12.9853 72.0315 12.9422 71.992 12.9187 71.9412C12.8952 71.8904 12.8931 71.8326 12.9129 71.7803L13.2288 70.949C13.2487 70.8968 13.289 70.8544 13.3407 70.8313C13.3924 70.8082 13.4513 70.8062 13.5045 70.8257C13.5309 70.8353 13.5551 70.8499 13.5757 70.8688C13.5964 70.8876 13.613 70.9103 13.6247 70.9354C13.6364 70.9606 13.6429 70.9878 13.6439 71.0154C13.6449 71.0431 13.6404 71.0706 13.6305 71.0965L13.3147 71.9278C13.3048 71.9538 13.2898 71.9776 13.2706 71.9978C13.2514 72.0181 13.2283 72.0344 13.2026 72.0459C13.177 72.0573 13.1493 72.0637 13.1211 72.0646C13.0929 72.0655 13.0648 72.0609 13.0385 72.0512Z" fill="#063E70"/>
<path id="Vector_36" d="M14.1629 72.5834L14.1431 72.576C14.1177 72.5669 14.0945 72.5528 14.0748 72.5348C14.055 72.5167 14.0392 72.4949 14.028 72.4708C14.0169 72.4466 14.0108 72.4205 14.0101 72.394C14.0093 72.3675 14.014 72.3411 14.0237 72.3164L14.347 71.4656C14.3564 71.4407 14.3706 71.4179 14.389 71.3985C14.4074 71.3791 14.4295 71.3635 14.4541 71.3525C14.4787 71.3416 14.5053 71.3355 14.5322 71.3347C14.5592 71.334 14.5861 71.3384 14.6113 71.3479L14.6311 71.3553C14.6564 71.3645 14.6796 71.3786 14.6993 71.3966C14.719 71.4147 14.7349 71.4364 14.7461 71.4606C14.7572 71.4847 14.7634 71.5108 14.7642 71.5373C14.765 71.5638 14.7605 71.5902 14.7509 71.6149L14.4276 72.4657C14.4183 72.4906 14.404 72.5135 14.3856 72.5329C14.3671 72.5524 14.345 72.568 14.3203 72.579C14.2957 72.5899 14.2691 72.596 14.2421 72.5967C14.215 72.5975 14.1881 72.5929 14.1629 72.5834Z" fill="#063E70"/>
<path id="Vector_37" d="M15.2598 73.198L15.24 73.191C15.2147 73.1819 15.1915 73.1678 15.1717 73.1498C15.1519 73.1317 15.136 73.11 15.1249 73.0858C15.1137 73.0617 15.1076 73.0356 15.1068 73.0091C15.106 72.9826 15.1105 72.9562 15.1202 72.9314L15.4435 72.0811C15.4528 72.0564 15.467 72.0338 15.4852 72.0145C15.5034 71.9953 15.5253 71.9797 15.5497 71.9688C15.574 71.9579 15.6003 71.9517 15.6271 71.9508C15.6538 71.9499 15.6805 71.9541 15.7056 71.9634L15.7254 71.9707C15.7508 71.9798 15.774 71.9939 15.7938 72.0119C15.8136 72.03 15.8296 72.0517 15.8407 72.0759C15.8519 72.1 15.858 72.1261 15.8588 72.1527C15.8596 72.1792 15.8549 72.2056 15.8452 72.2304L15.5219 73.0811C15.5125 73.1057 15.4983 73.1282 15.48 73.1474C15.4618 73.1666 15.4398 73.182 15.4155 73.1929C15.3912 73.2037 15.3649 73.2098 15.3382 73.2106C15.3115 73.2115 15.2848 73.2072 15.2598 73.198Z" fill="#063E70"/>
<path id="Vector_38" d="M16.4046 73.6857L16.3848 73.6783C16.3342 73.6597 16.2931 73.6222 16.2707 73.5739C16.2482 73.5256 16.2461 73.4706 16.265 73.4208L16.5883 72.5701C16.5976 72.5452 16.6119 72.5224 16.6303 72.503C16.6487 72.4835 16.6708 72.4679 16.6954 72.457C16.72 72.446 16.7465 72.44 16.7735 72.4392C16.8005 72.4384 16.8274 72.4429 16.8526 72.4524L16.8724 72.4597C16.8978 72.4688 16.921 72.4828 16.9408 72.5009C16.9606 72.519 16.9765 72.5407 16.9877 72.5649C16.9988 72.589 17.005 72.6151 17.0058 72.6417C17.0065 72.6682 17.0019 72.6946 16.9922 72.7193L16.6689 73.5701C16.6593 73.5948 16.6448 73.6173 16.6263 73.6365C16.6078 73.6556 16.5857 73.671 16.5611 73.6817C16.5366 73.6925 16.5101 73.6983 16.4833 73.699C16.4564 73.6997 16.4297 73.6951 16.4046 73.6857Z" fill="#063E70"/>
<path id="Vector_39" d="M17.572 74.1136L17.5521 74.1062C17.5268 74.0971 17.5035 74.0831 17.4837 74.065C17.4639 74.047 17.448 74.0252 17.4369 74.0011C17.4257 73.9769 17.4196 73.9508 17.4188 73.9243C17.418 73.8978 17.4226 73.8714 17.4323 73.8466L17.7556 72.9958C17.765 72.971 17.7793 72.9482 17.7977 72.9288C17.8161 72.9094 17.8382 72.8938 17.8628 72.8828C17.8874 72.8719 17.914 72.8659 17.9409 72.8652C17.9679 72.8645 17.9948 72.869 18.0199 72.8786L18.0398 72.8855C18.0651 72.8947 18.0883 72.9087 18.1081 72.9268C18.1278 72.9448 18.1437 72.9666 18.1549 72.9907C18.166 73.0149 18.1722 73.041 18.173 73.0675C18.1738 73.094 18.1692 73.1204 18.1596 73.1451L17.8363 73.9955C17.827 74.0204 17.8128 74.0433 17.7944 74.0628C17.7761 74.0823 17.7539 74.098 17.7293 74.109C17.7047 74.12 17.6781 74.1261 17.6511 74.1268C17.6241 74.1276 17.5972 74.1231 17.572 74.1136Z" fill="#063E70"/>
<path id="Vector_40" d="M18.7519 74.4788C18.7255 74.4692 18.7013 74.4545 18.6806 74.4357C18.66 74.4168 18.6434 74.3942 18.6317 74.369C18.62 74.3439 18.6134 74.3167 18.6124 74.289C18.6114 74.2614 18.616 74.2338 18.6259 74.2079L18.9417 73.3766C18.9516 73.3507 18.9665 73.327 18.9857 73.3067C19.0049 73.2865 19.028 73.2702 19.0536 73.2588C19.0792 73.2473 19.1068 73.2409 19.135 73.24C19.1631 73.239 19.1911 73.2436 19.2175 73.2533C19.2439 73.2629 19.2681 73.2776 19.2887 73.2964C19.3093 73.3152 19.326 73.3379 19.3377 73.363C19.3494 73.3882 19.3559 73.4154 19.3569 73.443C19.3579 73.4707 19.3533 73.4983 19.3434 73.5242L19.0289 74.3555C19.0191 74.3815 19.004 74.4053 18.9847 74.4256C18.9654 74.4459 18.9422 74.4622 18.9165 74.4737C18.8908 74.4852 18.863 74.4915 18.8347 74.4924C18.8065 74.4933 18.7783 74.4886 18.7519 74.4788Z" fill="#063E70"/>
<path id="Vector_41" d="M19.99 74.7207C19.9368 74.7011 19.8936 74.6616 19.87 74.6108C19.8464 74.56 19.8442 74.5021 19.864 74.4498L20.1799 73.6185C20.1897 73.5926 20.2046 73.5688 20.2238 73.5485C20.2429 73.5282 20.266 73.5119 20.2916 73.5004C20.3172 73.4889 20.3449 73.4825 20.373 73.4815C20.4012 73.4805 20.4292 73.485 20.4556 73.4947C20.482 73.5044 20.5062 73.519 20.5269 73.5378C20.5475 73.5567 20.5641 73.5793 20.5758 73.6045C20.5875 73.6297 20.5941 73.6568 20.5951 73.6845C20.596 73.7121 20.5915 73.7397 20.5816 73.7656L20.2658 74.5969C20.2459 74.6492 20.2057 74.6916 20.154 74.7148C20.1023 74.7381 20.0433 74.7401 19.99 74.7207Z" fill="#063E70"/>
<path id="Vector_42" d="M21.2054 75.0518L21.1855 75.0444C21.1602 75.0352 21.137 75.0212 21.1173 75.0031C21.0975 74.9851 21.0816 74.9633 21.0705 74.9391C21.0594 74.915 21.0533 74.8889 21.0526 74.8624C21.0518 74.8359 21.0564 74.8095 21.0662 74.7848L21.3891 73.934C21.3984 73.9092 21.4128 73.8864 21.4312 73.867C21.4496 73.8476 21.4717 73.832 21.4962 73.8211C21.5208 73.8101 21.5473 73.8041 21.5743 73.8033C21.6013 73.8024 21.6281 73.8069 21.6533 73.8163L21.6732 73.8237C21.6985 73.8328 21.7217 73.8469 21.7414 73.8649C21.7612 73.883 21.7771 73.9048 21.7882 73.9289C21.7993 73.9531 21.8054 73.9792 21.8061 74.0057C21.8069 74.0322 21.8023 74.0586 21.7925 74.0833L21.4692 74.9341C21.4599 74.9589 21.4457 74.9817 21.4273 75.0011C21.409 75.0205 21.3869 75.0362 21.3624 75.0471C21.3378 75.0581 21.3113 75.0641 21.2843 75.0649C21.2574 75.0657 21.2305 75.0612 21.2054 75.0518Z" fill="#063E70"/>
<path id="Vector_43" d="M22.4572 75.2578L22.4374 75.2504C22.412 75.2413 22.3888 75.2273 22.369 75.2092C22.3492 75.1912 22.3333 75.1694 22.3221 75.1452C22.311 75.1211 22.3048 75.095 22.304 75.0684C22.3033 75.0419 22.3079 75.0155 22.3176 74.9908L22.6409 74.14C22.6502 74.1151 22.6645 74.0923 22.6829 74.0729C22.7013 74.0535 22.7235 74.0379 22.7481 74.027C22.7727 74.0161 22.7992 74.0101 22.8262 74.0094C22.8532 74.0086 22.88 74.0132 22.9052 74.0227L22.925 74.0296C22.9503 74.0388 22.9736 74.0529 22.9933 74.0709C23.0131 74.089 23.029 74.1107 23.0401 74.1349C23.0513 74.159 23.0574 74.1851 23.0582 74.2116C23.059 74.2381 23.0545 74.2645 23.0448 74.2893L22.7215 75.1401C22.7122 75.1649 22.6979 75.1877 22.6795 75.2072C22.6611 75.2266 22.639 75.2422 22.6144 75.2531C22.5898 75.2641 22.5633 75.2701 22.5363 75.2709C22.5093 75.2717 22.4824 75.2672 22.4572 75.2578Z" fill="#063E70"/>
<path id="Vector_44" d="M23.7007 75.4559C23.6475 75.4363 23.6043 75.3967 23.5807 75.3458C23.557 75.295 23.5549 75.237 23.5748 75.1846L23.8906 74.3537C23.9105 74.3014 23.9507 74.259 24.0024 74.2358C24.0541 74.2126 24.1131 74.2105 24.1663 74.23C24.2195 74.2496 24.2626 74.2891 24.2861 74.3399C24.3096 74.3907 24.3117 74.4486 24.2919 74.5009L23.976 75.3321C23.9662 75.358 23.9513 75.3818 23.9322 75.402C23.9131 75.4222 23.89 75.4386 23.8645 75.45C23.8389 75.4615 23.8113 75.468 23.7832 75.469C23.7551 75.47 23.7271 75.4655 23.7007 75.4559Z" fill="#063E70"/>
<path id="Vector_45" d="M14.98 74.5061L14.9848 74.4932C14.9654 74.4906 14.9464 74.4859 14.928 74.4793L13.5057 73.9574C13.4365 73.9289 13.3817 73.8747 13.3532 73.8065C13.3247 73.7384 13.3249 73.6619 13.3537 73.5939L14.6364 70.2186C14.6599 70.1486 14.7108 70.0907 14.7778 70.0575C14.8447 70.0243 14.9224 70.0186 14.9936 70.0416L16.4164 70.5635C16.4566 70.5786 16.4925 70.6032 16.5208 70.6352C16.5491 70.6671 16.5691 70.7053 16.5789 70.7465C16.6904 70.7945 16.8027 70.8426 16.9168 70.8902C16.9547 70.6063 16.8062 70.3306 16.5415 70.2337L15.1192 69.7118C14.8073 69.5976 14.4514 69.7737 14.3263 70.1048L13.0432 73.4801C12.9176 73.8112 13.0691 74.1725 13.3806 74.2876L14.8033 74.8095C14.9079 74.8458 15.0207 74.8529 15.1291 74.83C15.2375 74.8071 15.3373 74.755 15.4174 74.6797C15.2703 74.6228 15.1245 74.565 14.98 74.5061Z" fill="#FFCB83"/>
<path id="Vector_46" d="M14.6683 71.8274L14.0516 71.6002C13.9954 71.5846 13.9353 71.5904 13.8833 71.6163C13.8312 71.6423 13.791 71.6865 13.7705 71.7402C13.7501 71.7939 13.751 71.8532 13.7731 71.9064C13.7951 71.9595 13.8367 72.0025 13.8895 72.0269L14.5084 72.2536L14.6683 71.8274Z" fill="#EEFBFF"/>
<path id="Vector_47" d="M41.7316 44.1983C41.7316 44.1983 38.6791 44.4502 38.5725 45.2473C38.4659 46.0444 38.7006 47.449 41.5823 47.7217H44.5675C44.5675 47.7217 43.6742 45.2888 43.7169 45.2053C43.7596 45.1218 41.7316 44.1983 41.7316 44.1983Z" fill="#EFADAB"/>
<path id="Vector_48" d="M36.8338 56.0865C36.7362 56.1384 36.6501 56.2089 36.5808 56.2941C36.5115 56.3792 36.4602 56.4771 36.4302 56.582C36.4001 56.687 36.3918 56.7968 36.4057 56.9049C36.4197 57.0131 36.4556 57.1174 36.5114 57.2117C37.9161 59.5917 43.5019 69.0501 44.0054 69.8195C44.5815 70.7006 45.9902 72.7768 50.6655 73.844C55.3408 74.9111 57.2614 77.9983 57.2614 77.9983H71.6705C71.6705 77.9983 68.2761 72.7137 65.4597 58.9984C65.4597 58.9984 63.2824 47.6109 59.1841 47.9887C59.1841 47.9887 56.6865 45.4091 54.2528 45.9115C54.2528 45.9115 49.6418 43.2061 47.0165 43.2061L40.7083 35.8863C40.0842 35.1619 38.9838 35.0208 38.2165 35.5968C37.9694 35.7824 37.7813 36.0274 37.7293 36.351C37.5373 37.5467 39.1389 40.5664 41.6999 44.2156C44.2608 47.8649 50.6012 59.4407 47.8477 64.5366C47.8477 64.5366 45.0286 62.4595 42.5962 59.1274C40.5586 56.3336 38.1614 55.3946 36.8338 56.0865Z" fill="#FFC0BB"/>
<path id="Vector_49" d="M47.0386 43.2117C47.8736 43.9187 48.6624 44.6767 49.4005 45.481C50.4008 46.5503 51.6642 48.1359 52.4055 49.3605C53.3411 50.8751 53.9582 52.2027 54.2498 53.8701L54.2313 53.874C53.8952 52.3075 53.0173 50.6202 52.2526 49.4549C51.68 48.5435 50.6228 47.096 49.286 45.5784C48.6155 44.8185 47.765 43.921 47.0254 43.2256L47.0386 43.2117Z" fill="#EAA0A0"/>
<path id="Vector_50" d="M54.2106 45.8947C54.8916 46.237 55.4986 46.7143 56.0351 47.2539C56.5747 47.796 57.0396 48.4053 57.4178 49.0663C57.7967 49.7265 58.0876 50.4319 58.2834 51.165C58.449 51.8492 58.556 52.3135 58.5732 53.3962H58.5543C58.4915 52.6541 58.3524 51.9202 58.1389 51.2057C57.9226 50.5133 57.6187 49.7729 57.2509 49.1576C56.8804 48.5082 56.435 47.9028 55.9237 47.3535C55.4413 46.8342 54.811 46.2751 54.2009 45.9099L54.2106 45.8947Z" fill="#EAA0A0"/>
<path id="Vector_51" d="M59.1295 47.9376C59.732 48.3846 60.3417 49.177 60.6372 49.7119C61.0291 50.3861 61.3191 51.1128 61.498 51.8691C61.6402 52.3797 61.6741 52.876 61.6988 53.3958L61.6799 53.3984C61.5918 52.8946 61.5354 52.519 61.3526 51.9093C61.0729 50.985 60.8531 50.5094 60.4782 49.7971C60.254 49.3579 59.6726 48.4876 59.1211 47.9515L59.1295 47.9376Z" fill="#EAA0A0"/>
<path id="Vector_52" d="M39.7424 59.0153C39.8701 58.3783 39.1147 57.3683 38.4288 56.6062C38.2226 56.3749 37.9515 56.2085 37.6495 56.1276C37.3475 56.0467 37.028 56.055 36.7308 56.1514C36.5679 56.2711 36.4555 56.4454 36.4149 56.6412C36.3743 56.837 36.4083 57.0406 36.5105 57.2134C36.888 57.853 37.5677 59.0036 38.3689 60.3594C38.9698 60.0591 39.6243 59.6047 39.7424 59.0153Z" fill="#EAA0A0"/>
<path id="Vector_53" d="M40.3486 38.7601C40.7128 38.6887 42.3655 38.1486 42.2642 37.8514L40.6344 35.9586C40.3211 35.5945 39.875 35.3655 39.3918 35.3207H39.3843C39.3561 35.3182 39.3277 35.3172 39.2993 35.3177C39.0791 35.3177 38.5426 35.3787 38.4241 35.9603C38.3069 36.5345 39.2746 37.9301 39.7015 38.5104C39.7735 38.6087 39.8728 38.6846 39.9876 38.7289C40.1024 38.7732 40.2277 38.784 40.3486 38.7601Z" fill="#EAA0A0"/>
<g id="Vector_54" style="mix-blend-mode:multiply" opacity="0.2">
<path d="M57.2633 78H71.6725C71.6725 78 69.4472 74.5351 67.1042 65.9352C66.0761 72.2675 60.404 71.9023 58.1531 72.2532C55.5613 72.6578 45.5001 70.5971 44.0906 69.9476C44.7178 70.8875 46.2049 72.8262 50.6675 73.8474C55.3406 74.9172 57.2633 78 57.2633 78Z" fill="#FFC0BB"/>
</g>
<g id="Vector_55" style="mix-blend-mode:multiply" opacity="0.2">
<path d="M42.4629 45.3633C45.2882 49.8231 50.3568 60.0673 47.8492 64.5366L49.5133 66.1508C49.5133 66.1508 53.7191 61.5737 47.0268 51.4809C45.6236 49.3591 44.0999 47.3167 42.4629 45.3633Z" fill="#FFC0BB"/>
</g>
<path id="Vector_56" d="M3.4591 28.4943C2.87281 25.5806 7.29706 24.5996 8.00932 27.4877C8.07836 27.7758 8.11805 28.0699 8.12781 28.3658C8.26568 31.835 6.12933 35.6115 3.8551 34.9758C1.58086 34.3401 2.88999 31.9705 3.57935 30.5489C3.90135 29.8851 3.61195 29.2459 3.4591 28.4943Z" fill="#C9EDF9"/>
<path id="Vector_57" d="M67.8182 22.1386C66.5223 21.6942 65.1026 22.3723 64.615 23.6333C64.2358 24.6135 63.8014 25.9809 63.7622 27.1818C63.6909 29.3515 64.5692 34.0078 67.9275 35.1576C71.2857 36.3074 73.2895 33.2743 71.0549 29.7648C70.0986 28.2675 70.5757 23.0842 67.8182 22.1386Z" fill="#C9EDF9"/>
<path id="Vector_58" d="M8.24719 42.9279C8.07894 42.782 7.89437 42.6554 7.69702 42.5505L7.77367 42.3978C7.98451 42.5082 8.18144 42.6425 8.36039 42.798L8.24719 42.9279Z" fill="#65CEFE"/>
<path id="Vector_59" d="M8.52245 59.3992C8.22117 59.0827 7.93935 58.7489 7.67848 58.3995L7.81855 58.2991C8.07543 58.6437 8.35283 58.973 8.64931 59.2854L8.52245 59.3992ZM6.98075 57.2956C6.77627 56.9095 6.60819 56.5058 6.47859 56.0896L6.64466 56.0402C6.77113 56.4463 6.93524 56.8402 7.13492 57.2169L6.98075 57.2956ZM6.22399 54.8095C6.20505 54.6109 6.1958 54.4075 6.1958 54.2037C6.19588 53.9703 6.20794 53.737 6.23192 53.5048L6.40459 53.5217C6.38125 53.7506 6.36935 53.98 6.36935 54.2037C6.36935 54.401 6.3786 54.5992 6.39666 54.7927L6.22399 54.8095ZM6.63981 52.2698L6.47199 52.2265C6.58581 51.8079 6.72466 51.3962 6.8878 50.9936L7.04946 51.0564C6.88783 51.4525 6.75031 51.8577 6.63761 52.2698H6.63981ZM7.57628 49.8837L7.42035 49.8088C7.58906 49.4687 7.78111 49.1039 8.0247 48.6603L8.17755 48.7412C7.93484 49.1826 7.74411 49.5457 7.57628 49.8837ZM8.807 47.6088L8.65415 47.5287L8.659 47.52C8.86653 47.1515 9.0348 46.7628 9.16115 46.3603L9.32766 46.4092C9.19729 46.8231 9.0237 47.2226 8.80965 47.6014L8.807 47.6088ZM9.33823 45.1166C9.32456 44.6974 9.21941 44.286 9.02989 43.9101L9.18538 43.8344C9.38552 44.232 9.49624 44.6672 9.51002 45.1106L9.33823 45.1166Z" fill="#65CEFE"/>
<path id="Vector_60" d="M10.0012 60.7523C9.81844 60.6048 9.64005 60.455 9.47046 60.307L9.58631 60.1798C9.75369 60.3261 9.93033 60.4745 10.1114 60.6203L10.0012 60.7523Z" fill="#65CEFE"/>
<path id="Vector_61" d="M7.10416 40.0445L6.87467 42.7902L5.25104 40.9939L0 36.7691L4.47798 38.1539C4.47798 38.1539 6.68262 39.2063 6.78349 39.3461C6.88436 39.4858 7.10416 40.0445 7.10416 40.0445Z" fill="#E6A748"/>
<path id="Vector_62" d="M9.48367 38.8644L0 36.7691L7.10416 40.0445L9.48367 38.8644Z" fill="#FFCB83"/>
<path id="Vector_63" d="M3.45694 42.0779L6.38044 40.6447L0 36.7691L3.45694 42.0779Z" fill="#FFCB83"/>
<path id="Vector_64" d="M56.7637 43.4393C56.8003 43.2835 56.8684 43.1364 56.9639 43.0069C57.0594 42.8774 57.1803 42.7679 57.3195 42.6851C57.4588 42.6022 57.6135 42.5476 57.7746 42.5245C57.9356 42.5014 58.0998 42.5102 58.2574 42.5504C58.4411 42.1644 58.761 41.8568 59.1579 41.6847C59.5547 41.5126 60.0016 41.4877 60.4157 41.6144C60.6312 41.2636 60.9432 40.9799 61.3159 40.796C61.6886 40.6121 62.1066 40.5356 62.5217 40.5753C62.9368 40.615 63.3319 40.7693 63.6615 41.0203C63.9911 41.2714 64.2416 41.6089 64.3841 41.9939C64.6147 41.8678 64.8749 41.8031 65.1389 41.8061C65.4028 41.8092 65.6614 41.8799 65.889 42.0114C66.1165 42.1428 66.3052 42.3304 66.4363 42.5555C66.5674 42.7806 66.6363 43.0354 66.6363 43.2948C66.6363 43.3437 66.6336 43.3917 66.6288 43.4393H56.7637Z" fill="white"/>
<path id="Vector_65" d="M18.7251 5.21592C18.7695 5.02729 18.8776 4.85898 19.0318 4.73844C19.186 4.61789 19.3773 4.55221 19.5744 4.5521C19.6487 4.5522 19.7227 4.56151 19.7946 4.5798C19.926 4.30415 20.1545 4.08449 20.4378 3.96137C20.7212 3.83825 21.0403 3.81998 21.3363 3.90992C21.4905 3.65895 21.7139 3.45597 21.9806 3.32444C22.2473 3.19291 22.5464 3.1382 22.8434 3.16662C23.1404 3.19504 23.4231 3.30544 23.659 3.48506C23.8948 3.66468 24.0741 3.90619 24.1761 4.18168C24.3412 4.09132 24.5274 4.04491 24.7163 4.04705C24.9052 4.04919 25.0903 4.0998 25.2532 4.19387C25.4161 4.28793 25.5511 4.42219 25.6449 4.58333C25.7387 4.74446 25.788 4.92688 25.7879 5.1125C25.7879 5.14704 25.7861 5.18156 25.7826 5.21592H18.7251Z" fill="white"/>
<path id="Vector_66" d="M56.0656 36.6868C56.0656 36.6868 55.9171 38.1248 54.7617 38.2243C55.9171 38.3239 56.0656 39.7619 56.0656 39.7619C56.0656 39.7619 56.214 38.3239 57.369 38.2243C56.214 38.1244 56.0656 36.6868 56.0656 36.6868Z" fill="white"/>
<path id="Vector_67" d="M13.8695 26.0596C13.8695 26.0596 13.7211 27.4976 12.5657 27.5972C13.7211 27.6962 13.8695 29.1342 13.8695 29.1342C13.8695 29.1342 14.018 27.6962 15.1729 27.5972C14.018 27.4976 13.8695 26.0596 13.8695 26.0596Z" fill="white"/>
<path id="Vector_68" d="M59.1211 32.7087C59.1211 32.7087 59.0228 33.6607 58.259 33.7256C59.0228 33.7914 59.1211 34.743 59.1211 34.743C59.1211 34.743 59.2193 33.791 59.9835 33.7256C59.2193 33.6598 59.1211 32.7087 59.1211 32.7087Z" fill="white"/>
<path id="Vector_69" d="M16.2981 22.6951C16.2981 22.6951 16.1998 23.6472 15.436 23.7125C16.1998 23.7783 16.2981 24.7294 16.2981 24.7294C16.2981 24.7294 16.3963 23.7774 17.1605 23.7125C16.3976 23.6467 16.2981 22.6951 16.2981 22.6951Z" fill="white"/>
<path id="Vector_70" d="M54.6564 29.8526C54.6564 29.8526 54.6123 30.278 54.2705 30.3074C54.6123 30.3368 54.6564 30.7627 54.6564 30.7627C54.6564 30.7627 54.7004 30.3368 55.0422 30.3074C54.7004 30.278 54.6564 29.8526 54.6564 29.8526Z" fill="white"/>
<path id="Vector_71" d="M14.8949 31.6766C14.8949 31.6766 14.8509 32.102 14.5095 32.1314C14.8513 32.1608 14.8949 32.5866 14.8949 32.5866C14.8949 32.5866 14.939 32.1608 15.2808 32.1314C14.939 32.1002 14.8949 31.6766 14.8949 31.6766Z" fill="white"/>
<path id="Vector_72" d="M37.8637 26.778C37.6269 26.778 37.3925 26.7322 37.1737 26.6433C36.9549 26.5543 36.7562 26.4238 36.5887 26.2593C36.4213 26.0948 36.2885 25.8996 36.1979 25.6846C36.1073 25.4697 36.0607 25.2394 36.0608 25.0068V23.6947H39.6662V25.0068C39.6662 25.2393 39.6196 25.4697 39.5291 25.6845C39.4385 25.8994 39.3058 26.0947 39.1384 26.2592C38.971 26.4236 38.7723 26.5541 38.5536 26.6431C38.3349 26.7322 38.1004 26.778 37.8637 26.778Z" fill="#E74A60"/>
<path id="Vector_73" d="M34.2585 26.778C34.0217 26.778 33.7872 26.7322 33.5685 26.6433C33.3497 26.5543 33.1509 26.4238 32.9835 26.2593C32.8161 26.0948 32.6833 25.8996 32.5927 25.6846C32.5021 25.4697 32.4555 25.2394 32.4556 25.0068V23.6947H36.0609V25.0068C36.061 25.2393 36.0144 25.4697 35.9239 25.6845C35.8333 25.8994 35.7006 26.0947 35.5332 26.2592C35.3658 26.4236 35.1671 26.5541 34.9484 26.6431C34.7296 26.7322 34.4952 26.778 34.2585 26.778Z" fill="#65CEFE"/>
<path id="Vector_74" d="M30.653 26.778C30.1751 26.7776 29.7169 26.5908 29.3791 26.2587C29.0414 25.9266 28.8517 25.4763 28.8518 25.0068V23.6947H32.4572V25.0068C32.4572 25.2395 32.4106 25.4699 32.3199 25.6849C32.2293 25.8999 32.0964 26.0953 31.9288 26.2598C31.7612 26.4243 31.5623 26.5547 31.3434 26.6436C31.1245 26.7325 30.8898 26.7782 30.653 26.778Z" fill="#E74A60"/>
<path id="Vector_75" d="M27.0458 26.778C26.8091 26.778 26.5746 26.7322 26.3558 26.6433C26.1371 26.5543 25.9383 26.4238 25.7709 26.2593C25.6034 26.0948 25.4706 25.8996 25.38 25.6846C25.2895 25.4697 25.2429 25.2394 25.2429 25.0068V23.6947H28.8518V25.0068C28.8519 25.2396 28.8052 25.4702 28.7144 25.6853C28.6236 25.9005 28.4906 26.0959 28.3228 26.2604C28.155 26.4249 27.9559 26.5553 27.7368 26.6441C27.5177 26.7329 27.2829 26.7784 27.0458 26.778Z" fill="#65CEFE"/>
<path id="Vector_76" d="M21.6394 23.6947H25.2448V25.0072C25.2448 25.477 25.0548 25.9275 24.7167 26.2596C24.3786 26.5918 23.92 26.7784 23.4419 26.7784C22.9638 26.7784 22.5054 26.5918 22.1673 26.2598C21.8293 25.9277 21.6394 25.4773 21.6394 25.0076V23.6947Z" fill="#E74A60"/>
<path id="Vector_77" d="M48.6737 26.778C48.4366 26.7784 48.2019 26.7328 47.9828 26.644C47.7637 26.5552 47.5646 26.4248 47.3968 26.2603C47.2291 26.0958 47.096 25.9004 47.0052 25.6853C46.9144 25.4702 46.8677 25.2396 46.8677 25.0068V23.6947H50.4735V25.0068C50.4735 25.476 50.284 25.926 49.9465 26.2581C49.6091 26.5902 49.1513 26.7772 48.6737 26.778Z" fill="#65CEFE"/>
<path id="Vector_78" d="M45.0661 26.778C44.5879 26.778 44.1294 26.5914 43.7912 26.2592C43.4531 25.927 43.2632 25.4765 43.2632 25.0068V23.6947H46.8677V25.0068C46.8677 25.4763 46.6779 25.9266 46.3401 26.2587C46.0023 26.5909 45.544 26.7776 45.0661 26.778Z" fill="#E74A60"/>
<path id="Vector_79" d="M41.4692 26.778C40.991 26.778 40.5324 26.5914 40.1943 26.2592C39.8562 25.927 39.6663 25.4765 39.6663 25.0068V23.6947H43.2716V25.0068C43.2717 25.2393 43.2251 25.4697 43.1346 25.6845C43.044 25.8994 42.9112 26.0947 42.7439 26.2592C42.5765 26.4236 42.3778 26.5541 42.159 26.6431C41.9403 26.7322 41.7059 26.778 41.4692 26.778Z" fill="#65CEFE"/>
<path id="Vector_80" d="M18.0339 23.6947H21.6393V25.0072C21.6393 25.4768 21.4494 25.9272 21.1114 26.2593C20.7734 26.5914 20.3149 26.778 19.8368 26.778C19.3588 26.778 18.9003 26.5914 18.5623 26.2593C18.2243 25.9272 18.0344 25.4768 18.0344 25.0072V23.6947H18.0339Z" fill="#65CEFE"/>
<path id="Vector_81" d="M35.5399 19.2146H32.9767L32.4556 23.6947H36.0609L35.5399 19.2146Z" fill="#EEFBFF"/>
<path id="Vector_82" d="M32.9766 19.2146H30.4134L28.8501 23.6947H32.4555L32.9766 19.2146Z" fill="#FF6E53"/>
<path id="Vector_83" d="M30.4133 19.2146H27.8497L25.2446 23.6947H28.85L30.4133 19.2146Z" fill="#EEFBFF"/>
<path id="Vector_84" d="M27.8498 19.2146H25.2862L21.6394 23.6947H25.2448L27.8498 19.2146Z" fill="#FF6E53"/>
<path id="Vector_85" d="M25.2861 19.2146H22.7229L18.0339 23.6947H21.6393L25.2861 19.2146Z" fill="#EEFBFF"/>
<path id="Vector_86" d="M45.7768 19.2146H43.2131L46.8692 23.6947H50.4745L45.7768 19.2146Z" fill="#EEFBFF"/>
<path id="Vector_87" d="M43.2258 19.2146H40.6626L43.2632 23.6947H46.8691L43.2258 19.2146Z" fill="#FF6E53"/>
<path id="Vector_88" d="M40.6625 19.2146H38.0989L39.6661 23.6947H43.2715L40.6625 19.2146Z" fill="#EEFBFF"/>
<path id="Vector_89" d="M38.0991 19.2146H35.5359L36.0609 23.6947H39.6663L38.0991 19.2146Z" fill="#FF6E53"/>
<path id="Vector_90" d="M27.3824 47.3997H41.1256C41.518 47.3997 41.8944 47.5529 42.1718 47.8255C42.4493 48.0981 42.6052 48.4678 42.6052 48.8533V49.0476C42.6051 49.433 42.4492 49.8025 42.1718 50.075C41.8945 50.3475 41.5183 50.5006 41.126 50.5007H27.3829C27.1884 50.5011 26.9957 50.4637 26.8159 50.3909C26.6362 50.318 26.4728 50.211 26.3351 50.0761C26.1974 49.9411 26.0882 49.7808 26.0136 49.6043C25.9391 49.4278 25.9007 49.2387 25.9006 49.0476V48.8537C25.9006 48.6626 25.939 48.4734 26.0135 48.2969C26.088 48.1204 26.1971 47.96 26.3347 47.825C26.4724 47.6899 26.6357 47.5829 26.8155 47.5099C26.9953 47.4369 27.1879 47.3995 27.3824 47.3997Z" fill="#FF6E53"/>
<path id="Vector_91" d="M30.8807 49.193C30.8812 49.2322 30.8757 49.2713 30.8644 49.309C30.8549 49.3427 30.84 49.3749 30.8204 49.4042C30.8007 49.4324 30.7768 49.4575 30.7495 49.4786C30.7208 49.5003 30.6894 49.5184 30.6561 49.5322C30.6202 49.5469 30.5828 49.5577 30.5446 49.5647C30.4998 49.5722 30.4544 49.5758 30.409 49.5755H30.0544C30.0383 49.5748 30.0229 49.5692 30.0103 49.5595C30.0025 49.5525 29.9964 49.5437 29.9927 49.5339C29.9889 49.5241 29.9876 49.5136 29.9887 49.5033V48.3137C29.9875 48.3033 29.9888 48.2927 29.9926 48.2829C29.9963 48.2732 30.0024 48.2644 30.0103 48.2574C30.0228 48.2475 30.0383 48.2419 30.0544 48.2414H30.3627C30.43 48.2397 30.4971 48.2472 30.5623 48.2639C30.6097 48.2768 30.6538 48.2994 30.6918 48.3301C30.7264 48.3585 30.7532 48.3949 30.7697 48.4361C30.788 48.4814 30.797 48.5298 30.7962 48.5785C30.7962 48.609 30.7924 48.6394 30.7847 48.6689C30.7772 48.6971 30.7656 48.724 30.7503 48.749C30.7353 48.7736 30.7162 48.7957 30.694 48.8143C30.6706 48.8342 30.6441 48.8503 30.6156 48.8619C30.6521 48.8687 30.6873 48.8814 30.7195 48.8996C30.7516 48.9178 30.7802 48.9414 30.8041 48.9693C30.8289 48.9986 30.8483 49.032 30.8613 49.0679C30.8752 49.1082 30.8818 49.1505 30.8807 49.193ZM30.6089 48.5958C30.6093 48.5664 30.6047 48.5372 30.5953 48.5093C30.5866 48.4837 30.5714 48.4608 30.5512 48.4426C30.5295 48.4224 30.5033 48.4076 30.4746 48.3993C30.4342 48.3883 30.3923 48.3833 30.3504 48.3846H30.1641V48.8174H30.3689C30.4074 48.8189 30.4459 48.8129 30.4821 48.7996C30.5091 48.7887 30.5335 48.7721 30.5534 48.7512C30.5722 48.7306 30.5863 48.7064 30.5949 48.6802C30.6037 48.6532 30.6084 48.625 30.6089 48.5967V48.5958ZM30.6909 49.2016C30.6916 49.1657 30.685 49.1299 30.6715 49.0965C30.6592 49.0669 30.6398 49.0406 30.6151 49.0199C30.5877 48.9981 30.5558 48.9821 30.5217 48.9731C30.4757 48.9614 30.4283 48.956 30.3808 48.9571H30.1654V49.4271H30.427C30.4635 49.4277 30.4999 49.4229 30.5349 49.4128C30.5646 49.4038 30.5921 49.3891 30.616 49.3695C30.6395 49.3504 30.6584 49.3263 30.6711 49.299C30.6846 49.2686 30.6914 49.2357 30.6909 49.2025V49.2016Z" fill="white"/>
<path id="Vector_92" d="M32.1758 49.0827C32.1771 49.1563 32.1648 49.2296 32.1397 49.299C32.1176 49.3595 32.0825 49.4146 32.0367 49.4605C31.9904 49.5054 31.9344 49.5396 31.8728 49.5604C31.802 49.5844 31.7274 49.596 31.6526 49.5946C31.5829 49.5954 31.5137 49.5845 31.4477 49.5626C31.3887 49.5427 31.3348 49.5105 31.2896 49.4682C31.2437 49.4246 31.2088 49.3711 31.1874 49.312C31.1624 49.2426 31.1503 49.1693 31.1517 49.0957V48.2678C31.1518 48.2626 31.1533 48.2575 31.1561 48.2531C31.1597 48.2484 31.1649 48.2451 31.1707 48.2436C31.1795 48.2406 31.1887 48.2384 31.198 48.2371C31.2126 48.2363 31.2273 48.2363 31.242 48.2371C31.2567 48.2363 31.2714 48.2363 31.2861 48.2371C31.2955 48.2383 31.3048 48.2404 31.3138 48.2436C31.3194 48.2452 31.3244 48.2485 31.3279 48.2531C31.3309 48.2574 31.3325 48.2626 31.3323 48.2678V49.0727C31.3312 49.1275 31.3389 49.1821 31.3552 49.2346C31.3687 49.2772 31.3915 49.3163 31.4222 49.3492C31.4512 49.38 31.4871 49.4037 31.527 49.4185C31.5711 49.4346 31.6178 49.4425 31.6649 49.4419C31.712 49.4423 31.7588 49.4346 31.8032 49.4189C31.8429 49.4048 31.8785 49.3815 31.9072 49.351C31.9369 49.3185 31.9591 49.2801 31.9723 49.2385C31.9882 49.1877 31.9958 49.1349 31.9948 49.0818V48.2665C31.9946 48.2613 31.9962 48.2561 31.9992 48.2518C32.0028 48.2471 32.0079 48.2438 32.0138 48.2423C32.0228 48.2392 32.0321 48.2371 32.0415 48.2358C32.0562 48.235 32.0709 48.235 32.0855 48.2358C32.1002 48.235 32.1149 48.235 32.1296 48.2358C32.1389 48.2369 32.1481 48.2391 32.1569 48.2423C32.1627 48.244 32.1679 48.2473 32.1719 48.2518C32.1749 48.2561 32.1764 48.2613 32.1763 48.2665L32.1758 49.0827Z" fill="white"/>
<path id="Vector_93" d="M33.2892 49.502C33.2902 49.5129 33.2902 49.5239 33.2892 49.5349C33.2883 49.5429 33.286 49.5506 33.2822 49.5578C33.2794 49.5633 33.2751 49.5679 33.2699 49.5712C33.2654 49.5741 33.2602 49.5756 33.2549 49.5755H32.603C32.5869 49.5749 32.5715 49.5693 32.5589 49.5595C32.551 49.5525 32.545 49.5437 32.5412 49.5339C32.5375 49.5242 32.5361 49.5136 32.5373 49.5033V48.3137C32.5361 48.3033 32.5374 48.2927 32.5411 48.2829C32.5449 48.2732 32.551 48.2644 32.5589 48.2574C32.5714 48.2474 32.5869 48.2418 32.603 48.2414H33.2474C33.2528 48.2413 33.2581 48.2427 33.2628 48.2453C33.2676 48.2488 33.2714 48.2534 33.2738 48.2587C33.2768 48.2662 33.279 48.2741 33.2804 48.2821C33.2824 48.2935 33.2833 48.3051 33.2831 48.3167C33.2832 48.3276 33.2823 48.3384 33.2804 48.3491C33.2791 48.3569 33.2769 48.3644 33.2738 48.3717C33.2714 48.3768 33.2676 48.3813 33.2628 48.3846C33.2581 48.3872 33.2528 48.3886 33.2474 48.3885H32.7188V48.8074H33.1685C33.1741 48.8072 33.1795 48.8089 33.184 48.8122C33.1886 48.8155 33.1925 48.8198 33.1954 48.8247C33.1992 48.8319 33.2016 48.8397 33.2025 48.8477C33.204 48.8589 33.2047 48.8701 33.2047 48.8814C33.2047 48.8921 33.204 48.9028 33.2025 48.9134C33.2015 48.921 33.1991 48.9284 33.1954 48.9351C33.1928 48.9401 33.1888 48.9443 33.184 48.9472C33.1792 48.9495 33.1739 48.9507 33.1685 48.9507H32.7144V49.4267H33.2527C33.2579 49.4266 33.2631 49.428 33.2677 49.4306C33.2727 49.4339 33.2769 49.4383 33.28 49.4435C33.2838 49.4507 33.2862 49.4585 33.287 49.4665C33.2889 49.4782 33.2896 49.4901 33.2892 49.502Z" fill="white"/>
<path id="Vector_94" d="M35.0953 49.502C35.0957 49.5142 35.0932 49.5264 35.0882 49.5375C35.0841 49.5467 35.0777 49.5547 35.0697 49.5609C35.0625 49.5672 35.0539 49.5717 35.0446 49.5743C35.0355 49.5772 35.026 49.5786 35.0164 49.5786H34.9565C34.9399 49.579 34.9233 49.5771 34.9072 49.573C34.8925 49.5689 34.8788 49.5618 34.8671 49.5522C34.8525 49.5404 34.8396 49.5268 34.8288 49.5116C34.8139 49.4904 34.8005 49.4683 34.7887 49.4453L34.3742 48.6867C34.3526 48.6474 34.3301 48.6067 34.309 48.5634C34.2879 48.5201 34.265 48.4769 34.2473 48.4384C34.2473 48.4877 34.2473 48.5383 34.2504 48.5898C34.2535 48.6413 34.2504 48.6924 34.2504 48.7434V49.5488C34.2504 49.5537 34.2489 49.5586 34.246 49.5626C34.2422 49.5675 34.237 49.5711 34.231 49.573C34.2219 49.5757 34.2127 49.5777 34.2033 49.5791C34.174 49.5826 34.1444 49.5826 34.1152 49.5791C34.1059 49.5778 34.0968 49.5757 34.0879 49.573C34.0821 49.571 34.077 49.5674 34.0733 49.5626C34.0706 49.5585 34.0691 49.5537 34.0689 49.5488V48.3176C34.0678 48.3067 34.0694 48.2956 34.0736 48.2854C34.0777 48.2751 34.0843 48.266 34.0927 48.2588C34.1077 48.2477 34.1259 48.2416 34.1447 48.2415H34.2328C34.2504 48.2411 34.268 48.2429 34.2852 48.2467C34.2988 48.2499 34.3117 48.2556 34.3231 48.2635C34.3357 48.2727 34.3467 48.2838 34.3557 48.2964C34.3679 48.3134 34.379 48.3312 34.3887 48.3496L34.7072 48.9351C34.727 48.9711 34.7455 49.0057 34.764 49.0399L34.8169 49.1403C34.8336 49.1732 34.8504 49.206 34.8671 49.2376C34.8838 49.2692 34.9001 49.3017 34.916 49.3341C34.916 49.28 34.9138 49.2233 34.9133 49.1645C34.9129 49.1056 34.9133 49.0494 34.9133 48.9949V48.2713C34.9133 48.2665 34.9149 48.2618 34.9178 48.2579C34.9215 48.253 34.9265 48.2493 34.9323 48.2471C34.9412 48.2436 34.9505 48.2412 34.96 48.2402C34.9747 48.2394 34.9894 48.2394 35.0041 48.2402C35.0188 48.2394 35.0335 48.2394 35.0481 48.2402C35.0577 48.241 35.0671 48.2433 35.0759 48.2471C35.0816 48.2492 35.0865 48.253 35.09 48.2579C35.0929 48.2618 35.0944 48.2665 35.0944 48.2713L35.0953 49.502Z" fill="white"/>
<path id="Vector_95" d="M36.5943 48.8927C36.5955 48.9914 36.5823 49.0898 36.5551 49.1848C36.5324 49.2656 36.493 49.3409 36.4392 49.4059C36.387 49.467 36.3207 49.5151 36.2459 49.5461C36.1595 49.5802 36.0671 49.5968 35.9741 49.595C35.884 49.5974 35.7942 49.5827 35.7098 49.5517C35.6383 49.5242 35.5748 49.4795 35.5252 49.4219C35.4737 49.3597 35.4365 49.2872 35.4164 49.2094C35.3913 49.1142 35.3793 49.0161 35.3807 48.9178C35.3795 48.8208 35.3926 48.7242 35.4195 48.6309C35.4424 48.5507 35.4822 48.4761 35.5362 48.4119C35.5887 48.3511 35.6551 48.3035 35.73 48.273C35.8163 48.2385 35.9088 48.2217 36.0018 48.2237C36.0911 48.2215 36.1799 48.2362 36.2635 48.2669C36.335 48.2948 36.3985 48.3393 36.4485 48.3968C36.5004 48.4581 36.538 48.5299 36.5586 48.6071C36.5838 48.7002 36.5958 48.7963 36.5943 48.8927ZM36.4031 48.9052C36.4034 48.8345 36.3967 48.7639 36.3828 48.6945C36.371 48.6344 36.3479 48.577 36.3146 48.5253C36.2828 48.4778 36.2389 48.4393 36.1873 48.4136C36.1257 48.385 36.058 48.3712 35.9899 48.3734C35.9216 48.3711 35.8538 48.386 35.793 48.4167C35.7411 48.4444 35.6967 48.4841 35.6635 48.5322C35.6292 48.5834 35.605 48.6405 35.5922 48.7005C35.5779 48.7671 35.5708 48.835 35.571 48.9031C35.5705 48.9756 35.5772 49.0481 35.5908 49.1194C35.602 49.1799 35.6247 49.2378 35.6578 49.2899C35.6891 49.3374 35.7328 49.3758 35.7842 49.4011C35.8463 49.4296 35.9144 49.4432 35.9829 49.441C36.0519 49.4432 36.1204 49.4284 36.182 49.3977C36.2352 49.3701 36.2806 49.33 36.3141 49.2808C36.3484 49.228 36.3722 49.1693 36.3842 49.1077C36.3976 49.0411 36.404 48.9732 36.4031 48.9052Z" fill="white"/>
<path id="Vector_96" d="M38.1566 49.5362C38.1544 49.5449 38.15 49.553 38.1438 49.5596C38.1374 49.5657 38.1295 49.5703 38.1209 49.573C38.1091 49.5764 38.097 49.5785 38.0848 49.5795C38.0703 49.5795 38.0526 49.5795 38.0319 49.5795C38.0112 49.5795 37.9919 49.5795 37.9764 49.5795C37.9639 49.5786 37.9515 49.5764 37.9394 49.573C37.9311 49.5704 37.9235 49.5658 37.9174 49.5596C37.912 49.5526 37.9081 49.5447 37.906 49.5362L37.6214 48.5292H37.6174L37.3554 49.5362C37.3537 49.5447 37.3501 49.5527 37.3448 49.5596C37.339 49.5657 37.3317 49.5703 37.3236 49.573C37.3122 49.5765 37.3004 49.5786 37.2884 49.5795C37.2743 49.5795 37.2558 49.5795 37.2333 49.5795C37.2109 49.5795 37.1893 49.5795 37.1756 49.5795C37.1628 49.5786 37.1501 49.5764 37.1378 49.573C37.1293 49.5703 37.1216 49.5657 37.1153 49.5596C37.1097 49.5528 37.1059 49.5448 37.1043 49.5362L36.7453 48.3042C36.7419 48.292 36.7397 48.2795 36.7387 48.267C36.7382 48.2632 36.7388 48.2593 36.7402 48.2558C36.7417 48.2522 36.744 48.2491 36.747 48.2466C36.7554 48.2406 36.7654 48.2373 36.7757 48.2371C36.7893 48.2371 36.807 48.2371 36.8294 48.2371C36.8519 48.2371 36.8682 48.2371 36.881 48.2371C36.8907 48.2376 36.9004 48.2395 36.9096 48.2427C36.9154 48.2446 36.9203 48.2487 36.9232 48.254C36.9261 48.2599 36.928 48.2662 36.929 48.2726L37.2347 49.3904L37.5245 48.2748C37.526 48.2681 37.5286 48.2617 37.532 48.2557C37.5357 48.2503 37.5411 48.2462 37.5474 48.244C37.557 48.2404 37.5671 48.2382 37.5774 48.2375C37.5901 48.2375 37.6073 48.2375 37.628 48.2375C37.6436 48.2367 37.6592 48.2367 37.6747 48.2375C37.6844 48.2383 37.6939 48.2405 37.7029 48.244C37.7091 48.2461 37.7145 48.2502 37.7179 48.2557C37.7213 48.2617 37.7239 48.2681 37.7258 48.2748L38.0377 49.3904L38.3368 48.2739C38.3391 48.267 38.3413 48.2609 38.3434 48.2557C38.3446 48.2529 38.3464 48.2505 38.3487 48.2484C38.3509 48.2464 38.3537 48.2449 38.3566 48.244C38.3656 48.2404 38.3751 48.2382 38.3848 48.2375C38.4176 48.2349 38.4506 48.2349 38.4834 48.2375C38.4931 48.2382 38.5022 48.2417 38.5099 48.2475C38.5128 48.2501 38.515 48.2533 38.5164 48.2569C38.5178 48.2605 38.5183 48.2644 38.5178 48.2683C38.5171 48.2807 38.5152 48.293 38.5121 48.305L38.1566 49.5362Z" fill="white"/>
</g>
</g>
</svg>
