<svg width="83" height="84" viewBox="0 0 83 84" fill="none" xmlns="http://www.w3.org/2000/svg">
<g id="OBJECTS">
<g id="Group" style="mix-blend-mode:multiply" opacity="0.4">
<path id="Vector" d="M57.374 77.1069C51.9578 76.9022 48.2349 77.7827 42.9477 78.9809C37.6605 80.179 31.9868 80.9207 26.9327 78.9599C20.6976 76.5427 16.4889 70.1878 15.5537 63.5752C14.6184 56.9626 16.6089 50.1519 19.9681 44.3799C22.7683 39.5395 26.5482 35.1662 28.2185 29.8308C29.7924 24.7911 29.3558 19.2355 31.3234 14.3381C34.2078 7.14967 42.3393 2.6461 50.0377 3.46651C57.7361 4.28691 64.5372 10.0401 67.1784 17.3185C68.0207 19.6424 68.4803 22.1872 67.9044 24.5913C67.0126 28.3212 63.7956 31.1511 62.7829 34.8561C61.5251 39.4736 63.9193 44.2006 66.0278 48.4908C67.8816 52.2475 69.5915 56.1389 70.2216 60.2763C70.8516 64.4137 70.3079 68.8754 67.9421 72.3293C65.5762 75.7832 61.1848 77.9838 57.1033 77.0514" fill="#B5D0FF"/>
</g>
<path id="Vector_2" d="M72.3127 47.6633L72.8699 48.6849L73.8915 49.2421L72.8699 49.7993L72.3127 50.8209L71.7523 49.7993L70.7307 49.2421L71.7523 48.6849L72.3127 47.6633Z" fill="white"/>
<path id="Vector_3" d="M14.9255 16.3181L15.7966 17.9097L17.3882 18.7808L15.7966 19.6518L14.9255 21.2402L14.0545 19.6518L12.4661 18.7808L14.0545 17.9097L14.9255 16.3181Z" fill="white"/>
<path id="Vector_4" d="M69.4496 36.9929H68.7067C68.3812 36.9929 68.1174 37.2567 68.1174 37.5821V38.3251C68.1174 38.6505 68.3812 38.9143 68.7067 38.9143H69.4496C69.7751 38.9143 70.0389 38.6505 70.0389 38.3251V37.5821C70.0389 37.2567 69.7751 36.9929 69.4496 36.9929Z" fill="#3847DC"/>
<path id="Vector_5" d="M72.1558 33.3421H71.1887C70.766 33.3421 70.4233 33.6848 70.4233 34.1075V35.0746C70.4233 35.4973 70.766 35.84 71.1887 35.84H72.1558C72.5785 35.84 72.9212 35.4973 72.9212 35.0746V34.1075C72.9212 33.6848 72.5785 33.3421 72.1558 33.3421Z" fill="#97B8FF"/>
<path id="Vector_6" d="M80.3284 60.0919C81.3896 60.0919 82.2499 59.2316 82.2499 58.1704C82.2499 57.1092 81.3896 56.249 80.3284 56.249C79.2672 56.249 78.407 57.1092 78.407 58.1704C78.407 59.2316 79.2672 60.0919 80.3284 60.0919Z" fill="white"/>
<path id="Vector_7" d="M27.4661 27.1326C28.0851 27.1326 28.5869 26.6308 28.5869 26.0118C28.5869 25.3927 28.0851 24.8909 27.4661 24.8909C26.847 24.8909 26.3452 25.3927 26.3452 26.0118C26.3452 26.6308 26.847 27.1326 27.4661 27.1326Z" fill="white"/>
<path id="Vector_8" d="M14.9255 70.3235C15.5446 70.3235 16.0464 69.8217 16.0464 69.2027C16.0464 68.5837 15.5446 68.0818 14.9255 68.0818C14.3065 68.0818 13.8047 68.5837 13.8047 69.2027C13.8047 69.8217 14.3065 70.3235 14.9255 70.3235Z" fill="white"/>
<path id="Vector_9" d="M32.9625 68.4436C35.6466 65.4034 35.3579 60.763 32.3177 58.0789C29.2775 55.3949 24.637 55.6836 21.953 58.7237C19.2689 61.7639 19.5576 66.4044 22.5978 69.0885C25.638 71.7725 30.2784 71.4838 32.9625 68.4436Z" fill="#231F20"/>
<path id="Vector_10" d="M27.4598 68.0818C29.9448 68.0818 31.9592 66.0674 31.9592 63.5825C31.9592 61.0975 29.9448 59.0831 27.4598 59.0831C24.9749 59.0831 22.9604 61.0975 22.9604 63.5825C22.9604 66.0674 24.9749 68.0818 27.4598 68.0818Z" fill="#E6E6E6"/>
<path id="Vector_11" d="M27.4599 65.5967C28.5723 65.5967 29.4742 64.6949 29.4742 63.5824C29.4742 62.47 28.5723 61.5681 27.4599 61.5681C26.3474 61.5681 25.4456 62.47 25.4456 63.5824C25.4456 64.6949 26.3474 65.5967 27.4599 65.5967Z" fill="#231F20"/>
<path id="Vector_12" d="M65.1064 68.774C67.9741 65.9064 67.9741 61.257 65.1064 58.3893C62.2387 55.5216 57.5893 55.5216 54.7217 58.3893C51.854 61.257 51.854 65.9064 54.7217 68.774C57.5893 71.6417 62.2387 71.6417 65.1064 68.774Z" fill="#231F20"/>
<path id="Vector_13" d="M59.913 68.0818C62.3979 68.0818 64.4123 66.0674 64.4123 63.5825C64.4123 61.0975 62.3979 59.0831 59.913 59.0831C57.428 59.0831 55.4136 61.0975 55.4136 63.5825C55.4136 66.0674 57.428 68.0818 59.913 68.0818Z" fill="#E6E6E6"/>
<path id="Vector_14" d="M59.913 65.5967C61.0255 65.5967 61.9273 64.6949 61.9273 63.5824C61.9273 62.47 61.0255 61.5681 59.913 61.5681C58.8005 61.5681 57.8987 62.47 57.8987 63.5824C57.8987 64.6949 58.8005 65.5967 59.913 65.5967Z" fill="#231F20"/>
<path id="Vector_15" d="M24.8659 48.0059H8.271V48.9282H24.8659V48.0059Z" fill="#1A1A1A"/>
<path id="Vector_16" d="M24.2446 48.8963C23.9992 48.7976 23.7695 48.6638 23.5625 48.4992C23.3442 48.3433 23.1672 48.1367 23.0468 47.897C22.9264 47.6573 22.8663 47.3919 22.8717 47.1238C22.877 46.8556 22.9477 46.5928 23.0776 46.3582C23.2074 46.1235 23.3926 45.9241 23.6169 45.7771C23.9101 45.5729 24.2493 45.4446 24.6042 45.4038C24.9591 45.363 25.3186 45.411 25.6505 45.5433L27.9082 46.5041C28.6703 46.8293 29.4878 47.0055 30.3164 47.0228L38.0406 47.1862C38.9084 47.2054 39.376 48.1053 38.8348 48.7105L38.0406 49.1172L24.2446 48.8963Z" fill="#1A1A1A"/>
<g id="Vector_17" style="mix-blend-mode:multiply" opacity="0.5">
<path d="M38.316 49.1716C37.9605 47.8138 35.6452 48.1501 30.4925 47.9227C26.8962 47.7658 25.0676 46.3215 24.2894 45.4664C24.0478 45.5317 23.8199 45.6402 23.6169 45.7867C23.3926 45.9336 23.2074 46.1331 23.0776 46.3677C22.9477 46.6024 22.877 46.8652 22.8717 47.1333C22.8663 47.4015 22.9264 47.6669 23.0468 47.9066C23.1672 48.1462 23.3442 48.3529 23.5625 48.5087C23.7695 48.6734 23.9992 48.8071 24.2446 48.9058L38.0406 49.1332L38.316 49.1716Z" fill="#1A1A1A"/>
</g>
<path id="Vector_18" d="M12.8472 48.6528L21.3816 53.6262" stroke="#1A1A1A" stroke-width="1.51" stroke-miterlimit="10"/>
<path id="Vector_19" d="M61.8345 59.5442L56.7491 63.5728H17.7629C17.7629 63.5728 15.691 52.5373 23.207 49.1332C23.5791 48.9685 23.9818 48.8844 24.3887 48.8866H36.6924C36.7678 48.8854 36.8425 48.9021 36.9104 48.9352C36.9782 48.9683 37.0373 49.0169 37.0828 49.0771C37.1284 49.1373 37.1591 49.2074 37.1725 49.2816C37.1859 49.3559 37.1816 49.4323 37.1599 49.5046C36.7564 50.7856 35.959 53.8727 36.6091 56.3898C36.8608 57.2992 37.4002 58.1027 38.1466 58.68C38.893 59.2572 39.8063 59.5773 40.7498 59.5922C43.1004 59.6563 45.6143 59.6371 47.4941 59.5922C49.3583 59.5607 51.1341 58.7914 52.4322 57.453C53.6408 56.2026 54.318 54.5326 54.3216 52.7935V31.5776C54.3233 31.4536 54.3495 31.3313 54.3989 31.2176C54.4482 31.104 54.5197 31.0013 54.6091 30.9154C54.6984 30.8296 54.804 30.7624 54.9196 30.7178C55.0352 30.6731 55.1585 30.6519 55.2823 30.6553C55.4909 30.6558 55.6934 30.7256 55.858 30.8537C56.0226 30.9818 56.14 31.1609 56.1918 31.363L61.8345 59.5442Z" fill="#8896FF"/>
<path id="Vector_20" d="M35.9877 63.5825H18.9316C18.9316 61.3207 19.8301 59.1516 21.4294 57.5522C23.0287 55.9529 25.1979 55.0544 27.4597 55.0544C29.7214 55.0544 31.8906 55.9529 33.4899 57.5522C35.0892 59.1516 35.9877 61.3207 35.9877 63.5825Z" fill="#3847DC"/>
<path id="Vector_21" d="M68.4377 63.5824H51.3881C51.3661 62.4488 51.5704 61.3222 51.989 60.2685C52.4077 59.2148 53.0322 58.2551 53.8261 57.4457C54.6201 56.6362 55.5674 55.9932 56.6128 55.5542C57.6582 55.1153 58.7807 54.8892 59.9145 54.8892C61.0483 54.8892 62.1708 55.1153 63.2162 55.5542C64.2616 55.9932 65.2089 56.6362 66.0029 57.4457C66.7968 58.2551 67.4213 59.2148 67.8399 60.2685C68.2586 61.3222 68.4629 62.4488 68.4409 63.5824H68.4377Z" fill="#3847DC"/>
<g id="Vector_22" style="mix-blend-mode:multiply" opacity="0.5">
<path d="M35.9653 63.5824C28.4428 62.5801 24.1484 59.4417 21.9227 57.1008C20.9838 57.8995 20.2299 58.893 19.7134 60.0122C19.1969 61.1315 18.9301 62.3498 18.9316 63.5824H35.9653Z" fill="#3847DC"/>
</g>
<g id="Vector_23" style="mix-blend-mode:multiply" opacity="0.5">
<path d="M54.5073 56.9823C53.5301 57.7819 52.7432 58.7891 52.2037 59.9307C51.6642 61.0724 51.3856 62.3198 51.3882 63.5825H68.441V63.5536C60.9282 62.5065 56.6818 59.3201 54.5073 56.9823Z" fill="#3847DC"/>
</g>
<path id="Vector_24" d="M57.7738 30.0949H56.3327C55.6889 30.0949 55.167 30.6168 55.167 31.2606V35.6159C55.167 36.2596 55.6889 36.7815 56.3327 36.7815H57.7738C58.4175 36.7815 58.9394 36.2596 58.9394 35.6159V31.2606C58.9394 30.6168 58.4175 30.0949 57.7738 30.0949Z" fill="#8896FF"/>
<path id="Vector_25" d="M58.9395 35.7311V31.1453C59.2228 31.1453 59.5033 31.2011 59.765 31.3096C60.0267 31.4181 60.2644 31.5772 60.4646 31.7776C60.6647 31.9781 60.8234 32.2161 60.9315 32.4779C61.0397 32.7398 61.0951 33.0204 61.0947 33.3037V33.5759C61.0947 33.8589 61.0389 34.1392 60.9306 34.4007C60.8223 34.6621 60.6636 34.8997 60.4634 35.0999C60.2633 35.3 60.0257 35.4587 59.7642 35.5671C59.5027 35.6754 59.2225 35.7311 58.9395 35.7311Z" fill="white"/>
<g id="Vector_26" style="mix-blend-mode:multiply">
<path d="M60.8321 34.5399C60.4361 34.4377 60.0647 34.2573 59.7396 34.0092C59.4146 33.7612 59.1425 33.4505 58.9395 33.0956V35.7312C59.334 35.7262 59.7196 35.6123 60.0535 35.4021C60.3875 35.1918 60.6569 34.8935 60.8321 34.5399Z" fill="#E6E6E6"/>
</g>
<g id="Vector_27">
<path d="M50.2 24.9582H52.2111C52.5841 24.9567 52.9464 25.083 53.2377 25.3161C53.5291 25.5491 53.7318 25.8749 53.8123 26.2392L55.4135 33.2588" fill="#8896FF"/>
<path d="M50.2 24.9582H52.2111C52.5841 24.9567 52.9464 25.083 53.2377 25.3161C53.5291 25.5491 53.7318 25.8749 53.8123 26.2392L55.4135 33.2588" stroke="#8896FF" stroke-width="1.48" stroke-miterlimit="10"/>
</g>
<path id="Vector_28" d="M50.3184 27.3408C51.1692 27.3408 51.8588 26.2798 51.8588 24.971C51.8588 23.6622 51.1692 22.6013 50.3184 22.6013C49.4677 22.6013 48.7781 23.6622 48.7781 24.971C48.7781 26.2798 49.4677 27.3408 50.3184 27.3408Z" fill="#8896FF"/>
<path id="Vector_29" d="M51.4202 33.0955L53.6299 31.2157C53.7068 31.1504 53.8011 31.109 53.9012 31.0965C54.0013 31.084 54.1029 31.1009 54.1935 31.1452L56.0477 32.0675C56.1717 32.1297 56.2735 32.2285 56.3394 32.3505C56.4053 32.4726 56.432 32.6119 56.416 32.7496L56.368 33.1692C56.3498 33.3285 56.2752 33.4761 56.1578 33.5853C56.0403 33.6946 55.8877 33.7582 55.7275 33.7648L53.8509 33.8257L52.9382 34.7864C52.7708 34.9646 52.5417 35.0722 52.2977 35.0874C51.9784 35.123 51.6562 35.123 51.337 35.0874C51.1544 35.0137 51.4202 33.0955 51.4202 33.0955Z" fill="#FF8773"/>
<path id="Vector_30" d="M52.7845 33.2012C52.7819 32.8648 52.8794 32.5353 53.0645 32.2544C53.2496 31.9736 53.514 31.754 53.824 31.6237C54.1341 31.4933 54.476 31.4581 54.8061 31.5224C55.1363 31.5867 55.4399 31.7476 55.6784 31.9848C55.917 32.222 56.0796 32.5247 56.1458 32.8545C56.212 33.1843 56.1787 33.5263 56.0501 33.8371C55.9215 34.1479 55.7035 34.4136 55.4237 34.6002C55.1439 34.7869 54.8149 34.8863 54.4785 34.8856C54.0309 34.8856 53.6015 34.7085 53.284 34.3929C52.9666 34.0772 52.787 33.6488 52.7845 33.2012Z" fill="#231F20"/>
<path id="Vector_31" d="M53.5112 33.2012C53.5112 33.0112 53.5676 32.8254 53.6731 32.6675C53.7787 32.5095 53.9287 32.3863 54.1043 32.3136C54.2798 32.2409 54.473 32.2219 54.6594 32.2589C54.8457 32.296 55.0169 32.3875 55.1513 32.5219C55.2856 32.6562 55.3771 32.8274 55.4142 33.0138C55.4513 33.2001 55.4323 33.3933 55.3595 33.5689C55.2868 33.7444 55.1637 33.8944 55.0057 34C54.8477 34.1056 54.662 34.1619 54.472 34.1619C54.2172 34.1619 53.9728 34.0607 53.7926 33.8805C53.6124 33.7004 53.5112 33.456 53.5112 33.2012Z" fill="#5B71D8"/>
<path id="Vector_32" d="M45.6496 54.9488L44.5031 58.5419L42.4312 58.1064L43.3727 53.8696L45.6496 54.9488Z" fill="#FF8773"/>
<path id="Vector_33" d="M41.9314 60.1206C41.9314 60.1206 41.989 58.4714 42.5302 57.658C43.3917 58.0007 44.836 57.6132 44.836 57.6132C45.4777 58.2376 46.2406 58.7237 47.0777 59.0414C48.3586 59.493 49.6396 59.5314 49.6396 60.2327C48.7269 60.7931 43.539 61.0622 41.9314 60.1206Z" fill="#1A1A1A"/>
<path id="Vector_34" d="M49.6428 60.2327C48.7269 60.7932 43.539 61.0622 41.9314 60.1207" stroke="white" stroke-width="1.36" stroke-miterlimit="10" stroke-linecap="round"/>
<path id="Vector_35" d="M46.0305 58.2825C46.0305 58.2825 45.9313 58.7052 45.262 58.8429" stroke="white" stroke-width="0.68" stroke-miterlimit="10" stroke-linecap="round"/>
<path id="Vector_36" d="M45.6045 57.8885C45.6045 57.8885 45.502 58.3145 44.8359 58.4522" stroke="white" stroke-width="0.68" stroke-miterlimit="10" stroke-linecap="round"/>
<path id="Vector_37" d="M34.6042 15.7545C34.6042 15.7545 31.8181 19.7607 35.6578 22.7165C36.2983 20.1225 36.9388 17.0002 36.9388 16.9361C36.9388 16.8721 34.6042 15.7545 34.6042 15.7545Z" fill="black" stroke="black" stroke-width="0.27" stroke-miterlimit="10"/>
<path id="Vector_38" d="M37.8227 26.0118L35.0334 25.7652L35.7252 21.3203L37.9348 21.5156L37.8227 26.0118Z" fill="#FF8773"/>
<g id="Vector_39" style="mix-blend-mode:multiply" opacity="0.65">
<path d="M35.658 21.7558C35.8199 22.309 36.102 22.8197 36.4839 23.2515C36.8658 23.6832 37.3383 24.0254 37.8676 24.2537L37.9349 21.5252L35.7252 21.3299L35.658 21.7558Z" fill="#FF8773"/>
</g>
<path id="Vector_40" d="M35.1294 19.3732C35.1999 17.0483 36.8779 15.2101 38.8795 15.2709C40.881 15.3318 42.4469 17.2724 42.3797 19.5846C42.3124 21.8967 40.6344 23.7477 38.6329 23.6869C36.6314 23.626 35.0558 21.695 35.1294 19.3732Z" fill="#FF8773"/>
<path id="Vector_41" d="M44.423 31.7761L43.8401 34.2836C43.3643 34.1863 42.9027 34.0292 42.4663 33.8161C41.5666 33.3776 40.7607 32.7685 40.0933 32.0227C39.4547 31.3137 38.916 30.5207 38.4921 29.6658C38.099 28.8691 37.764 28.045 37.4897 27.1999L40.5224 26.268C40.9227 27.7603 41.4319 29.131 42.2549 30.1653C42.6439 30.6732 43.1279 31.1006 43.68 31.4239C43.8131 31.4982 43.9499 31.5655 44.0899 31.6256L44.423 31.7761Z" fill="#FF6D5A"/>
<path id="Vector_42" d="M42.1011 28.7082L38.4504 30.7994L36.9869 28.2374C36.848 27.997 36.7582 27.7314 36.7225 27.456C36.6868 27.1806 36.706 26.9009 36.779 26.633C36.8519 26.365 36.9771 26.1142 37.1475 25.8949C37.3178 25.6756 37.5299 25.4922 37.7715 25.3553C38.0119 25.2165 38.2775 25.1266 38.5529 25.0909C38.8283 25.0552 39.108 25.0744 39.3759 25.1474C39.6439 25.2203 39.8947 25.3455 40.114 25.5159C40.3333 25.6862 40.5167 25.8983 40.6536 26.1399L42.1011 28.7082Z" fill="white"/>
<g id="Vector_43" style="mix-blend-mode:multiply">
<path d="M36.9774 28.2375L38.4409 30.7994L41.6433 28.9612C41.3308 28.0895 40.8091 27.3077 40.124 26.6846C39.4389 26.0615 38.6113 25.616 37.7139 25.3873C37.2428 25.6717 36.9019 26.1294 36.7642 26.6621C36.6265 27.1949 36.703 27.7604 36.9774 28.2375Z" fill="#E6E6E6"/>
</g>
<path id="Vector_44" d="M38.1367 43.276L34.4635 42.2704C34.1718 42.2066 33.9109 42.0445 33.7243 41.8114C33.5378 41.5782 33.437 41.2881 33.4387 40.9895L33.6021 27.7539C33.6065 27.3885 33.6862 27.028 33.836 26.6948C33.9859 26.3616 34.2028 26.0627 34.4732 25.817C34.7436 25.5712 35.0617 25.3838 35.4077 25.2664C35.7536 25.1489 36.1201 25.104 36.4842 25.1343C37.9759 25.2677 39.3536 25.9879 40.3144 27.1367C41.2752 28.2855 41.7405 29.7688 41.6081 31.2605L39.6866 42.1263C39.6691 42.3073 39.6139 42.4827 39.5244 42.641C39.4349 42.7993 39.3131 42.9371 39.1671 43.0455C39.021 43.1538 38.8538 43.2303 38.6763 43.27C38.4988 43.3097 38.315 43.3118 38.1367 43.276Z" fill="white"/>
<path id="Vector_45" d="M37.3968 28.0934C37.3968 28.0934 46.0433 33.8897 51.4202 33.0955C51.7404 34.8056 51.6411 35.0746 51.6411 35.0746C51.6411 35.0746 41.1853 35.7151 35.9077 30.5688L37.3968 28.0934Z" fill="#FF8773"/>
<path id="Vector_46" d="M33.2835 26.7554L33.5397 26.4231C33.7266 26.1828 33.959 25.9816 34.2236 25.831C34.4883 25.6805 34.78 25.5835 35.0821 25.5457C35.3843 25.5079 35.6909 25.53 35.9845 25.6107C36.2781 25.6914 36.5529 25.8291 36.7933 26.016L38.9617 27.6878L35.8802 31.6848L33.7118 30.0131C33.4692 29.8277 33.2657 29.5962 33.1128 29.332C32.9599 29.0677 32.8608 28.7759 32.821 28.4732C32.7812 28.1705 32.8016 27.8629 32.881 27.5681C32.9603 27.2734 33.0971 26.9972 33.2835 26.7554Z" fill="white"/>
<path id="Vector_47" d="M42.1013 20.7054C40.3079 21.474 38.2584 20.4716 37.7332 20.1738C37.7169 20.165 37.6988 20.1599 37.6803 20.1591C37.6618 20.1583 37.6433 20.1617 37.6263 20.1692C37.6093 20.1766 37.5942 20.1878 37.5822 20.2019C37.5702 20.216 37.5616 20.2327 37.5571 20.2507C37.3851 20.8172 37.335 21.4137 37.4101 22.001C37.4851 22.5882 37.6837 23.153 37.9926 23.658C38.0015 23.6728 38.0136 23.6853 38.028 23.6947C38.0424 23.7041 38.0588 23.7102 38.0758 23.7125C38.2377 23.742 38.4014 23.7602 38.5658 23.7669C40.2439 23.815 41.7074 22.5916 42.2646 20.8527C42.2712 20.8307 42.2714 20.8072 42.2652 20.785C42.259 20.7628 42.2466 20.7428 42.2295 20.7274C42.2124 20.712 42.1913 20.7017 42.1686 20.6978C42.1459 20.6939 42.1225 20.6966 42.1013 20.7054Z" fill="white"/>
<path id="Vector_48" d="M34.9983 18.9409C35.5126 19.2041 36.008 19.5026 36.481 19.8344C36.7115 20.0009 36.9389 20.1706 37.1535 20.3532C37.2721 20.431 37.3713 20.535 37.4434 20.6571C37.5156 20.7792 37.5588 20.9163 37.5698 21.0577C37.5698 21.237 37.8452 21.237 37.8484 21.0577C37.8676 20.4172 37.2079 20.0329 36.7788 19.7063C36.2594 19.3241 35.7112 18.9825 35.1392 18.6847C34.979 18.6014 34.8381 18.8448 34.9983 18.9281V18.9409Z" fill="white"/>
<g id="Vector_49" style="mix-blend-mode:multiply" opacity="0.5">
<path d="M37.4641 20.7406C37.2736 21.7461 37.4655 22.7866 38.0021 23.658C38.0111 23.6727 38.0232 23.6852 38.0376 23.6947C38.052 23.7041 38.0683 23.7102 38.0854 23.7124C38.2473 23.742 38.411 23.7602 38.5754 23.7669C39.3728 23.7827 40.1511 23.5225 40.7786 23.0303C38.7739 23.2705 37.6947 21.2338 37.4641 20.7406Z" fill="#97B8FF"/>
</g>
<path id="Vector_50" d="M43.8145 14.8322C43.659 14.7415 43.48 14.6991 43.3003 14.7105C43.1207 14.7219 42.9485 14.7866 42.8057 14.8962C42.5623 14.2558 41.8162 13.9067 41.2045 13.9003H41.1821C40.985 13.8897 40.7882 13.926 40.6079 14.0061C40.4275 14.0863 40.2687 14.2081 40.1445 14.3614C39.6792 14.1845 39.1904 14.0766 38.6938 14.0412C37.2303 13.9419 35.6227 14.3262 34.71 15.5559C34.2976 16.1364 34.0168 16.7997 33.887 17.4998C33.7589 18.1211 33.6116 18.9537 34.0759 19.4757C34.5403 19.9977 35.1488 19.8312 35.5459 19.3348C36.0486 18.6943 35.975 17.5126 36.7307 17.186C37.1887 16.9842 38.1142 17.2852 38.7387 17.4358C38.7836 17.4489 38.8297 17.4575 38.8764 17.4614L41.2974 17.3365C41.3902 17.3365 43.4814 17.4966 44.0963 15.7353C44.1683 15.5764 44.1794 15.3966 44.1274 15.2301C44.0754 15.0635 43.9641 14.9219 43.8145 14.8322Z" fill="black"/>
<path id="Vector_51" d="M35.6355 19.6006C35.7412 20.2122 35.4978 20.763 35.0911 20.8335C34.6844 20.9039 34.2681 20.4684 34.1624 19.8728C34.0567 19.2771 34.3001 18.7103 34.7068 18.6366C35.1135 18.563 35.5298 18.9921 35.6355 19.6006Z" fill="#FF8773"/>
<g id="Group_2" style="mix-blend-mode:multiply">
<path id="Vector_52" d="M34.4666 19.1939C34.4883 19.1475 34.5209 19.1069 34.5616 19.0757C34.6023 19.0445 34.6499 19.0235 34.7004 19.0146C34.7557 19.0024 34.8129 19.0024 34.8682 19.0146C34.9235 19.0267 34.9755 19.0508 35.0206 19.085C35.1171 19.1681 35.1921 19.2731 35.2395 19.3913C35.2869 19.5094 35.3052 19.6372 35.2928 19.7639C35.2958 19.7765 35.303 19.7877 35.3132 19.7957C35.3233 19.8037 35.3359 19.8081 35.3488 19.8081C35.3618 19.8081 35.3744 19.8037 35.3845 19.7957C35.3947 19.7877 35.4019 19.7765 35.4049 19.7639C35.4194 19.611 35.3936 19.4569 35.3301 19.3171C35.2666 19.1772 35.1676 19.0563 35.043 18.9665C34.9871 18.9313 34.9243 18.9084 34.8589 18.8994C34.7934 18.8903 34.7267 18.8954 34.6634 18.9142C34.6 18.933 34.5414 18.9651 34.4915 19.0084C34.4415 19.0516 34.4014 19.105 34.3737 19.1651C34.3449 19.2291 34.4538 19.2579 34.4794 19.1939H34.4666Z" fill="#FF8773"/>
<path id="Vector_53" d="M34.9501 18.957C34.8504 18.9941 34.7681 19.0672 34.7196 19.1619C34.6683 19.2687 34.6358 19.3836 34.6235 19.5014C34.6205 19.5158 34.6232 19.5308 34.6309 19.5433C34.6387 19.5558 34.6509 19.5648 34.6651 19.5686C34.672 19.5711 34.6794 19.572 34.6867 19.5713C34.6941 19.5706 34.7011 19.5684 34.7075 19.5648C34.7139 19.5611 34.7194 19.5561 34.7237 19.5502C34.728 19.5442 34.7309 19.5374 34.7324 19.5302C34.758 19.3637 34.7932 19.1331 34.979 19.0658C34.9933 19.0614 35.0053 19.0516 35.0124 19.0384C35.0196 19.0253 35.0214 19.0098 35.0174 18.9954C35.0155 18.9884 35.0123 18.9819 35.0079 18.9762C35.0035 18.9705 34.998 18.9657 34.9918 18.9621C34.9855 18.9586 34.9786 18.9563 34.9715 18.9554C34.9643 18.9545 34.9571 18.955 34.9501 18.957Z" fill="#FF8773"/>
</g>
<path id="Vector_54" d="M39.0749 19.2964C39.0749 19.4725 38.9628 19.6166 38.8604 19.5974C38.7579 19.5782 38.6874 19.4405 38.7002 19.2772C38.713 19.1139 38.8123 18.9569 38.9148 18.9761C39.0173 18.9954 39.0909 19.1203 39.0749 19.2964Z" fill="black" stroke="black" stroke-width="0.18" stroke-miterlimit="10"/>
<path id="Vector_55" d="M41.8866 19.4053C41.8706 19.5814 41.7746 19.7255 41.6721 19.7255C41.5696 19.7255 41.4959 19.5654 41.512 19.4053C41.528 19.2451 41.624 19.085 41.7265 19.1042C41.829 19.1234 41.8994 19.2323 41.8866 19.4053Z" fill="black" stroke="black" stroke-width="0.18" stroke-miterlimit="10"/>
<path id="Vector_56" d="M38.4472 18.6719C38.4975 18.6196 38.5584 18.5785 38.6257 18.5513C38.693 18.5242 38.7653 18.5115 38.8379 18.5143C38.9104 18.517 38.9816 18.535 39.0467 18.5671C39.1118 18.5993 39.1694 18.6448 39.2157 18.7007C39.2734 18.768 39.3726 18.6687 39.315 18.6014C39.2553 18.5344 39.1831 18.4799 39.1023 18.4409C39.0215 18.4018 38.9338 18.3792 38.8443 18.3741C38.7523 18.3711 38.6607 18.3872 38.5753 18.4214C38.4898 18.4555 38.4124 18.507 38.3479 18.5726C38.3365 18.5861 38.3306 18.6034 38.3314 18.621C38.3321 18.6386 38.3395 18.6554 38.3519 18.6678C38.3644 18.6803 38.3811 18.6877 38.3988 18.6884C38.4164 18.6892 38.4337 18.6833 38.4472 18.6719Z" fill="#1A1A1A"/>
<path id="Vector_57" d="M41.2109 18.6975C41.2626 18.6453 41.3246 18.6045 41.393 18.5774C41.4613 18.5504 41.5346 18.5379 41.608 18.5406C41.6793 18.5445 41.7491 18.563 41.813 18.5949C41.8769 18.6269 41.9336 18.6716 41.9795 18.7263C42.0403 18.7936 42.1396 18.6943 42.0787 18.6271C42.0207 18.5571 41.9484 18.5002 41.8667 18.4603C41.785 18.4204 41.6958 18.3984 41.6049 18.3957C41.514 18.3929 41.4236 18.4096 41.3396 18.4445C41.2557 18.4795 41.1801 18.5319 41.118 18.5983C41.0572 18.6623 41.1533 18.7616 41.2173 18.6975H41.2109Z" fill="#1A1A1A"/>
<path id="Vector_58" d="M33.4546 39.5547L47.2474 41.2905C47.7457 41.3359 48.2262 41.4983 48.65 41.7642C49.0739 42.0302 49.429 42.3923 49.6867 42.8213C49.9443 43.2502 50.0973 43.7338 50.133 44.2329C50.1688 44.732 50.0864 45.2325 49.8926 45.6938L45.4092 56.393H42.7416L44.615 47.6024C44.7079 47.1797 44.3812 47.026 43.9489 47.0324L33.8965 47.2565C33.6997 47.2671 33.5032 47.2322 33.3221 47.1545C33.141 47.0767 32.9803 46.9582 32.8525 46.8082C32.0263 45.8219 30.6845 43.3624 33.4546 39.5547Z" fill="#1A1A1A"/>
<path id="Vector_59" d="M45.4727 55.8099L42.7401 55.6977C42.5811 55.6912 42.4469 55.8148 42.4403 55.9739L42.436 56.0795C42.4295 56.2385 42.5531 56.3727 42.7122 56.3793L45.4447 56.4914C45.6038 56.4979 45.738 56.3743 45.7445 56.2153L45.7488 56.1097C45.7554 55.9506 45.6317 55.8164 45.4727 55.8099Z" fill="#1A1A1A"/>
<path id="Vector_60" d="M48.4579 40.7942L34.5563 40.08C31.7894 43.8877 33.2369 45.3384 34.0567 46.3119C34.1842 46.4625 34.3447 46.5816 34.5258 46.6599C34.7069 46.7382 34.9036 46.7737 35.1007 46.7634L45.153 46.5393C45.5854 46.5393 45.912 46.6866 45.8191 47.1093L44.0898 55.221H43.9489C43.8722 55.2184 43.7975 55.2462 43.7411 55.2984C43.6847 55.3506 43.6512 55.4229 43.6479 55.4996V55.6053C43.6461 55.6813 43.6737 55.7551 43.7251 55.8112C43.7764 55.8673 43.8474 55.9014 43.9233 55.9063H44.0226L43.7408 57.1873C43.318 57.8278 43.1932 58.9614 43.1579 59.429C43.1095 59.4264 43.0615 59.44 43.0217 59.4677C42.9819 59.4954 42.9525 59.5357 42.9382 59.582C42.9238 59.6284 42.9254 59.6782 42.9425 59.7236C42.9597 59.7689 42.9916 59.8073 43.033 59.8325C43.8336 60.3032 45.4284 60.473 46.9912 60.473C48.7461 60.473 50.4562 60.2424 50.9654 59.9285C50.9898 59.9138 51.011 59.8943 51.0277 59.8713C51.0445 59.8483 51.0565 59.8221 51.0631 59.7944C51.0696 59.7667 51.0706 59.7379 51.0659 59.7098C51.0612 59.6817 51.051 59.6548 51.0358 59.6307C51.0128 59.5929 50.9784 59.5633 50.9376 59.546C50.8968 59.5288 50.8517 59.5248 50.8085 59.5346C50.5747 59.0319 49.4539 58.955 48.301 58.5547C47.9289 58.4209 47.5715 58.2492 47.2346 58.0423C47.2869 57.976 47.325 57.8998 47.3467 57.8182C47.3505 57.8047 47.3515 57.7906 47.3497 57.7767C47.3478 57.7628 47.3432 57.7495 47.336 57.7375C47.3288 57.7255 47.3192 57.7151 47.3078 57.7069C47.2964 57.6988 47.2835 57.693 47.2698 57.6901C47.2561 57.6862 47.2418 57.6852 47.2278 57.687C47.2137 57.6888 47.2001 57.6934 47.1878 57.7006C47.1756 57.7078 47.1649 57.7173 47.1564 57.7287C47.148 57.7401 47.1419 57.7531 47.1385 57.7669C47.1162 57.8232 47.086 57.876 47.0489 57.9238C46.9432 57.8534 46.8439 57.7861 46.751 57.7157C46.8286 57.6336 46.8866 57.5351 46.9208 57.4275C46.925 57.4133 46.9262 57.3984 46.9245 57.3838C46.9228 57.3691 46.9181 57.355 46.9108 57.3422C46.9034 57.3294 46.8935 57.3182 46.8817 57.3093C46.8699 57.3005 46.8564 57.2941 46.842 57.2906C46.8277 57.2872 46.8128 57.2866 46.7982 57.2891C46.7837 57.2916 46.7698 57.297 46.7573 57.305C46.7449 57.313 46.7343 57.3234 46.726 57.3357C46.7178 57.3479 46.7121 57.3617 46.7094 57.3762C46.6831 57.456 46.6368 57.5277 46.5749 57.5844C46.3907 57.4413 46.2143 57.2884 46.0465 57.1264H46.0049L46.3699 55.9864H46.655C46.6928 55.9877 46.7305 55.9815 46.766 55.9682C46.8015 55.9549 46.834 55.9347 46.8616 55.9088C46.8893 55.8829 46.9116 55.8519 46.9272 55.8174C46.9428 55.7829 46.9515 55.7456 46.9528 55.7078V55.6021C46.9536 55.5532 46.942 55.505 46.919 55.4618C46.896 55.4187 46.8625 55.3821 46.8215 55.3555L51.0967 45.1718C51.2854 44.7123 51.3639 44.215 51.326 43.7197C51.2881 43.2243 51.1348 42.7448 50.8783 42.3193C50.6219 41.8939 50.2694 41.5343 49.8491 41.2695C49.4288 41.0047 48.9524 40.8419 48.4579 40.7942Z" fill="#1A1A1A"/>
<path id="Vector_61" d="M45.6496 54.9488L44.5031 58.5419L42.4312 58.1064L43.3727 53.8696L45.6496 54.9488Z" fill="#FF8773"/>
<path id="Vector_62" d="M41.9314 60.1206C41.9314 60.1206 41.989 58.4714 42.5302 57.658C43.3917 58.0007 44.836 57.6132 44.836 57.6132C45.4777 58.2376 46.2406 58.7237 47.0777 59.0414C48.3586 59.493 49.6396 59.5314 49.6396 60.2327C48.7269 60.7931 43.539 61.0622 41.9314 60.1206Z" fill="#262626"/>
<path id="Vector_63" d="M49.6428 60.2327C48.7269 60.7932 43.539 61.0622 41.9314 60.1207" stroke="white" stroke-width="1.36" stroke-miterlimit="10" stroke-linecap="round"/>
<path id="Vector_64" d="M46.0305 58.2825C46.0305 58.2825 45.9313 58.7052 45.262 58.8429" stroke="white" stroke-width="0.68" stroke-miterlimit="10" stroke-linecap="round"/>
<path id="Vector_65" d="M45.6045 57.8885C45.6045 57.8885 45.502 58.3145 44.8359 58.4522" stroke="white" stroke-width="0.68" stroke-miterlimit="10" stroke-linecap="round"/>
<path id="Vector_66" d="M33.4546 39.5547L47.2474 41.2905C47.7457 41.3359 48.2262 41.4983 48.65 41.7642C49.0739 42.0302 49.429 42.3923 49.6867 42.8213C49.9443 43.2502 50.0973 43.7338 50.133 44.2329C50.1688 44.732 50.0864 45.2325 49.8926 45.6938L45.4092 56.393H42.7416L44.615 47.6024C44.7079 47.1797 44.3812 47.026 43.9489 47.0324L33.8965 47.2565C33.6997 47.2671 33.5032 47.2322 33.3221 47.1545C33.141 47.0767 32.9803 46.9582 32.8525 46.8082C32.0263 45.8219 30.6845 43.3624 33.4546 39.5547Z" fill="#262626"/>
<path id="Vector_67" d="M45.4727 55.8099L42.7401 55.6977C42.5811 55.6912 42.4469 55.8148 42.4403 55.9739L42.436 56.0795C42.4295 56.2385 42.5531 56.3727 42.7122 56.3793L45.4447 56.4914C45.6038 56.4979 45.738 56.3743 45.7445 56.2153L45.7488 56.1097C45.7554 55.9506 45.6317 55.8164 45.4727 55.8099Z" fill="#262626"/>
<g id="Group_3" style="mix-blend-mode:multiply">
<path id="Vector_68" d="M33.9607 26.0118C35.0751 25.0799 36.6988 25.8549 37.6435 26.6779C37.9637 26.963 38.316 27.2512 38.633 27.5586C38.2551 27.3312 37.8933 27.0814 37.5314 26.8253C36.5258 26.1175 35.168 25.3553 33.9607 26.0118Z" fill="#E6E6E6"/>
</g>
<g id="Group_4" style="mix-blend-mode:multiply">
<path id="Vector_69" d="M33.5476 29.7971C34.3506 30.2346 35.0661 30.8165 35.658 31.5135C34.8562 31.0742 34.1411 30.4925 33.5476 29.7971Z" fill="#E6E6E6"/>
</g>
<path id="Vector_70" d="M33.4546 39.5547C33.5443 39.5547 40.122 39.7853 40.122 39.7853L39.9875 40.6019L33.4546 40.0799V39.5547Z" fill="#262626"/>
<g id="Vector_71" style="mix-blend-mode:multiply">
<path d="M25.4712 56.646H29.4614" stroke="#3847DC" stroke-width="0.76" stroke-miterlimit="10" stroke-linecap="round"/>
</g>
<g id="Vector_72" style="mix-blend-mode:multiply">
<path d="M24.8657 57.501H30.0664" stroke="#3847DC" stroke-width="0.76" stroke-miterlimit="10" stroke-linecap="round"/>
</g>
<g id="Vector_73" style="mix-blend-mode:multiply">
<path d="M24.0171 58.3561H30.9151" stroke="#3847DC" stroke-width="0.76" stroke-miterlimit="10" stroke-linecap="round"/>
</g>
<path id="Vector_74" d="M22.1853 34.4117H9.38525V48.0028H22.1853V34.4117Z" fill="#3847DC"/>
<path id="Vector_75" d="M22.1853 34.4117H9.38525V48.0028H22.1853V34.4117Z" fill="#3847DC"/>
<path id="Vector_76" d="M16.7094 34.4117H14.9929V36.1282H16.7094V34.4117Z" fill="white"/>
<g id="Vector_77" style="mix-blend-mode:multiply" opacity="0.5">
<path d="M22.1853 35.4109C19.444 44.5281 11.3579 46.7346 9.38525 47.0548V48.0156H22.1949L22.1853 35.4109Z" fill="#3847DC"/>
</g>
<path id="Vector_78" d="M38.7706 49.2421H23.1652C23.0871 49.2421 23.0122 49.211 22.9569 49.1558C22.9016 49.1005 22.8706 49.0256 22.8706 48.9475C22.8706 48.8693 22.9016 48.7944 22.9569 48.7391C23.0122 48.6839 23.0871 48.6528 23.1652 48.6528H38.7706C38.8487 48.6528 38.9236 48.6839 38.9789 48.7391C39.0341 48.7944 39.0652 48.8693 39.0652 48.9475C39.0652 49.0256 39.0341 49.1005 38.9789 49.1558C38.9236 49.211 38.8487 49.2421 38.7706 49.2421Z" fill="black"/>
<path id="Vector_79" d="M15.7837 33.7681V48.1853" stroke="#1A1A1A" stroke-width="1.13" stroke-miterlimit="10" stroke-linecap="round"/>
<path id="Vector_80" d="M16.0464 35.635C12.2499 35.641 8.60654 34.1385 5.9178 31.4582C3.22905 28.7779 1.71519 25.1392 1.70925 21.3427C1.7033 17.5462 3.20576 13.9028 5.88609 11.2141C8.56643 8.52532 12.2051 7.01146 16.0016 7.00551H16.0464C19.8429 6.99957 23.4863 8.50202 26.1751 11.1824C28.8638 13.8627 30.3777 17.5013 30.3836 21.2979C30.3896 25.0944 28.8871 28.7378 26.2068 31.4265C23.5264 34.1152 19.8878 35.6291 16.0913 35.635H16.0464Z" fill="white"/>
<path id="Vector_81" d="M16.0464 8.26721C19.5083 8.26169 22.8305 9.63162 25.2824 12.0756C27.7342 14.5196 29.1147 17.8375 29.1202 21.2994C29.1257 24.7613 27.7558 28.0836 25.3118 30.5354C22.8678 32.9872 19.5499 34.3677 16.088 34.3732H16.0464C12.5845 34.3788 9.26223 33.0088 6.81041 30.5648C4.35859 28.1208 2.97807 24.8029 2.97255 21.341C2.96703 17.8792 4.33696 14.5569 6.78097 12.1051C9.22498 9.65325 12.5429 8.27273 16.0047 8.26721H16.0464ZM16.0464 5.74371H15.9983C13.264 5.75268 10.5801 6.48116 8.2164 7.85594C5.85272 9.23073 3.89251 11.2034 2.53271 13.5757C1.17292 15.9481 0.461455 18.6365 0.469799 21.3709C0.478144 24.1053 1.20601 26.7893 2.58025 29.1533C3.95128 31.5092 5.91643 33.4642 8.27943 34.823C10.6424 36.1818 13.3206 36.8969 16.0464 36.8967H16.0976C18.8294 36.8862 21.5103 36.1572 23.8711 34.7829C26.232 33.4085 28.1897 31.4372 29.5477 29.0669C30.905 26.6992 31.6164 24.0164 31.6106 21.2873C31.6048 18.5581 30.8821 15.8784 29.5148 13.5165C28.1476 11.1545 26.1837 9.1933 23.82 7.82916C21.4562 6.46502 18.7755 5.74586 16.0464 5.74371Z" fill="#5C92DE"/>
<path id="Vector_82" d="M16.0464 10.5954C18.8917 10.5907 21.6223 11.7165 23.6375 13.7251C25.6527 15.7337 26.7875 18.4606 26.7921 21.3059C26.7968 24.1511 25.671 26.8817 23.6624 28.8969C21.6538 30.9121 18.9269 32.0469 16.0817 32.0515H16.0464C13.2012 32.0558 10.4708 30.9296 8.45586 28.9207C6.44095 26.9118 5.30661 24.1848 5.30236 21.3395C5.29811 18.4942 6.42432 15.7638 8.43322 13.7489C10.4421 11.734 13.1692 10.5997 16.0144 10.5954H16.0464ZM16.0464 9.03264H16.008C13.851 9.0393 11.7338 9.61364 9.86909 10.698C8.00442 11.7823 6.45803 13.3383 5.38537 15.2097C4.31271 17.0811 3.75157 19.2019 3.75836 21.3589C3.76515 23.5159 4.33963 25.6331 5.42405 27.4977C6.5053 29.3563 8.05543 30.8984 9.9195 31.9701C11.7836 33.0418 13.8963 33.6054 16.0464 33.6047H16.0849C19.3438 33.5996 22.4671 32.3001 24.7679 29.9922C27.0687 27.6842 28.3584 24.5567 28.3533 21.2979C28.3482 18.039 27.0487 14.9156 24.7407 12.6148C22.4328 10.314 19.3053 9.02434 16.0464 9.02943V9.03264Z" fill="#FFCB83"/>
<path id="Vector_83" d="M17.3178 21.3203C17.3178 21.5736 17.2427 21.8213 17.1019 22.0319C16.9612 22.2426 16.7611 22.4068 16.527 22.5037C16.293 22.6007 16.0354 22.626 15.7869 22.5766C15.5384 22.5272 15.3102 22.4052 15.131 22.226C14.9519 22.0469 14.8299 21.8187 14.7805 21.5702C14.731 21.3217 14.7564 21.0641 14.8534 20.8301C14.9503 20.596 15.1145 20.3959 15.3252 20.2552C15.5358 20.1144 15.7835 20.0393 16.0368 20.0393C16.3766 20.0393 16.7024 20.1743 16.9426 20.4145C17.1828 20.6547 17.3178 20.9805 17.3178 21.3203Z" fill="#26304E"/>
<path id="Vector_84" d="M16.3699 21.1121H21.5161" stroke="#26304E" stroke-width="3.78" stroke-linecap="round" stroke-linejoin="round"/>
<path id="Vector_85" d="M16.0046 20.9904V13.2438" stroke="#26304E" stroke-width="3.78" stroke-linecap="round" stroke-linejoin="round"/>
</g>
</svg>
