<svg width="18" height="18" viewBox="0 0 18 18" fill="none" xmlns="http://www.w3.org/2000/svg">
<path id="Vector" d="M12.1675 17.9731C11.8857 17.9731 11.604 17.9731 11.3222 17.9731C11.2893 17.9638 11.2565 17.9497 11.2236 17.945C9.67389 17.7859 8.43882 17.0511 7.45734 15.8669C7.36342 15.7546 7.2742 15.7171 7.13332 15.7171C4.98252 15.7218 2.83642 15.7218 0.685625 15.7218C0.187842 15.7218 0.00469606 15.5393 0.00469606 15.0478C0.00469606 10.269 0.00469606 5.49023 0 0.711436C0 0.379121 0.0892252 0.140415 0.389773 0C5.3676 0 10.3501 0 15.3279 0C15.6426 0.117013 15.7459 0.346357 15.7459 0.669312C15.7412 2.85043 15.7412 5.03154 15.7412 7.21265C15.7412 7.28754 15.7412 7.35775 15.7412 7.442C16.0042 7.39519 16.1732 7.50284 16.3329 7.66198C16.7696 8.10195 17.2111 8.53723 17.6478 8.98188C17.7746 9.11294 17.8826 9.26271 18 9.40781C18 9.50142 18 9.59503 18 9.68864C17.8826 9.83373 17.7746 9.97883 17.6478 10.1146C17.5304 10.2456 17.4083 10.372 17.2721 10.4843C17.1688 10.5733 17.1547 10.6622 17.1923 10.7886C17.4553 11.7059 17.5304 12.642 17.305 13.5781C16.779 15.7592 15.3702 17.1072 13.257 17.7578C12.9095 17.8655 12.5338 17.9029 12.1675 17.9731ZM1.0707 1.05779C1.0707 5.59788 1.0707 10.1239 1.0707 14.65C2.94443 14.65 4.80877 14.65 6.68249 14.65C5.74798 12.1833 6.14714 9.98351 8.11479 8.22364C10.0918 6.45909 12.3319 6.314 14.6799 7.52157C14.6799 5.36854 14.6799 3.22018 14.6799 1.06247C13.149 1.06247 11.6321 1.06247 10.0918 1.06247C10.0918 1.13268 10.0918 1.19821 10.0918 1.25905C10.0918 1.92369 10.0918 2.593 10.0918 3.25763C10.0918 3.66951 9.8946 3.86609 9.47665 3.86609C8.41064 3.86609 7.34464 3.86609 6.27863 3.86609C5.8466 3.86609 5.65406 3.67419 5.65406 3.24827C5.65406 2.58364 5.65406 1.91432 5.65406 1.24969C5.65406 1.18885 5.65406 1.12332 5.65406 1.05779C4.11375 1.05779 2.60162 1.05779 1.0707 1.05779ZM16.2953 11.5234C16.2765 11.5047 16.2578 11.4906 16.239 11.4719C16.2061 11.5234 16.1779 11.5842 16.131 11.631C15.4078 12.3565 14.6846 13.082 13.9567 13.8028C13.3838 14.3738 12.8155 14.9448 12.2426 15.5159C11.9937 15.7639 11.6885 15.7873 11.4631 15.5627C10.5145 14.6219 9.57057 13.6811 8.63136 12.7356C8.42004 12.525 8.42004 12.2208 8.62197 12.0102C9.15732 11.4672 9.69267 10.929 10.2374 10.3954C10.4487 10.1895 10.7493 10.1988 10.9653 10.3954C11.0357 10.4562 11.0968 10.5264 11.1672 10.592C11.3833 10.812 11.604 11.0273 11.8247 11.2519C12.6747 10.4048 13.5059 9.57162 14.3371 8.7385C14.3652 8.71041 14.3934 8.67765 14.4216 8.64957C13.1208 7.61518 10.8479 7.41391 9.03053 8.78998C7.2742 10.1192 6.75294 12.5859 7.82833 14.5376C8.92721 16.5268 11.3222 17.4255 13.426 16.6251C15.4876 15.8482 16.7649 13.5828 16.2953 11.5234ZM15.8398 8.70105C15.8069 8.74318 15.7694 8.80402 15.7224 8.85551C14.5719 10.0069 13.4213 11.1536 12.2708 12.305C11.9703 12.6046 11.6885 12.6046 11.3879 12.305C11.1297 12.0476 10.8667 11.7855 10.6366 11.5515C10.3454 11.8417 10.0684 12.1225 9.81477 12.3706C10.4816 13.0399 11.1672 13.7232 11.8294 14.3832C13.4401 12.7778 15.065 11.1536 16.6804 9.53886C16.4174 9.27675 16.1404 9.0006 15.8398 8.70105ZM9.03522 1.06247C8.25567 1.06247 7.49022 1.06247 6.72006 1.06247C6.72006 1.64754 6.72006 2.22324 6.72006 2.80362C7.49491 2.80362 8.26507 2.80362 9.03522 2.80362C9.03522 2.21856 9.03522 1.64754 9.03522 1.06247Z" fill="#13172B"/>
</svg>
