<svg width="14" height="14" viewBox="0 0 14 14" fill="none" xmlns="http://www.w3.org/2000/svg">
<g id="Icon">
<g id="Group">
<path id="Vector" d="M13.0002 1.6028C12.9335 1.80639 12.7881 1.95318 12.6373 2.09998C10.5989 4.09617 8.5616 6.0945 6.5243 8.09176C6.26526 8.3457 5.9647 8.40142 5.68599 8.24391C5.6215 8.20748 5.56139 8.15819 5.50783 8.10569C4.47716 7.09741 3.44758 6.08914 2.42018 5.07872C2.06169 4.7262 2.13054 4.21082 2.56008 4.0083C2.79398 3.89794 3.02132 3.9258 3.23007 4.07366C3.28472 4.11224 3.33281 4.16045 3.38091 4.20653C4.21594 5.02408 5.05097 5.8427 5.88491 6.66132C6.00842 6.7824 6.00842 6.7824 6.13629 6.65703C8.03042 4.80014 9.92454 2.94431 11.8165 1.08634C11.9826 0.922406 12.1695 0.813114 12.4122 0.842044C12.6898 0.876332 12.8745 1.02956 12.9685 1.28779C12.9772 1.31029 12.9739 1.33815 12.9991 1.35315C13.0002 1.43672 13.0002 1.51923 13.0002 1.6028Z" fill="#FF497C"/>
<path id="Vector_2" d="M6.02994 11.8121C4.26151 11.8121 2.49198 11.8121 0.723549 11.8121C0.341008 11.8121 0.0776012 11.6171 0.0131157 11.2871C0.00218595 11.226 0 11.1628 0 11.1007C0 7.64082 0 4.18204 0 0.722194C0 0.262524 0.261221 0.00536569 0.730107 0.00536569C3.38713 0.0042942 6.04524 0.00965166 8.70226 8.22777e-06C9.2094 -0.00213476 9.53948 0.414676 9.39193 0.85613C9.31323 1.09186 9.0848 1.26223 8.83232 1.27937C8.76893 1.28366 8.70554 1.28366 8.64215 1.28366C6.25181 1.28366 3.86038 1.28473 1.47005 1.28044C1.34327 1.28044 1.3072 1.3083 1.30829 1.43581C1.31266 4.41884 1.31157 7.4008 1.30829 10.3838C1.30829 10.5038 1.33999 10.5349 1.4624 10.5349C4.50961 10.5317 7.55573 10.5317 10.6029 10.5349C10.7133 10.5349 10.7439 10.5113 10.7439 10.3988C10.7396 8.87625 10.7407 7.35366 10.7417 5.83107C10.7417 5.4764 10.9319 5.22675 11.2544 5.15174C11.6205 5.06602 11.9943 5.32104 12.0391 5.68856C12.0468 5.74963 12.0511 5.81285 12.0511 5.875C12.0522 7.60867 12.0522 9.34342 12.0511 11.0771C12.0511 11.4628 11.8784 11.7082 11.5516 11.7928C11.4642 11.8153 11.3757 11.8111 11.2871 11.8111C9.53401 11.8121 7.78198 11.8121 6.02994 11.8121Z" fill="#FF497C"/>
</g>
</g>
</svg>
