<?xml version="1.0" encoding="utf-8"?>
<svg viewBox="-1076 -79 1171 902" width="1920px" height="1080px" xmlns="http://www.w3.org/2000/svg">
  <path d="M -266.503 -32.3 C -295.195 29.424 -289.769 68.122 -250.228 83.794 C -190.915 107.302 -49.881 116.705 9.071 167.7 C 68.021 218.694 247.768 179.272 278.509 91.75 C 309.25 4.228 364.599 -130.672 72.738 -130.672 C -121.838 -130.672 -234.916 -97.882 -266.502 -32.3 L -266.503 -32.3 Z" fill-rule="nonzero" fill="#FFFA72"/>
  <path d="M -688.717 89.57 C -669.273 262.397 -591.521 370.751 -455.472 414.633 C -251.393 480.455 158.703 506.784 406.206 649.57 C 653.702 792.353 1093.265 681.971 1037.854 436.91 C 982.442 191.848 919.342 -185.872 102.132 -185.872 C -442.681 -185.872 -706.292 -94.06 -688.714 89.57 L -688.717 89.57 Z" fill-rule="nonzero" style="position: relative; z-index: 0; fill: rgb(255, 208, 221);"/>
  <path d="M -657.051 79.414 C -647.936 242.982 -580.173 345.532 -453.77 387.063 C -264.161 449.359 122.55 474.277 349.121 609.414 C 575.685 744.548 997.632 640.08 958.359 408.146 C 919.085 176.213 879.665 -181.272 106.234 -181.272 C -409.393 -181.272 -663.816 -94.378 -657.048 79.414 L -657.051 79.414 Z" fill-rule="nonzero" style="position: relative; z-index: 1; fill: rgb(255, 200, 215);"/>
  <path d="M -624.582 69.258 C -624.356 223.568 -565.678 320.313 -448.556 359.493 C -272.869 418.263 90.678 441.771 297.507 569.258 C 504.329 696.743 907.739 598.188 882.561 379.383 C 857.383 160.578 838.494 -176.672 108.841 -176.672 C -377.599 -176.672 -622.068 -94.697 -624.58 69.258 L -624.582 69.258 Z" fill-rule="nonzero" style="position: relative; z-index: 2; fill: rgb(255, 181, 201);"/>
  <path d="M -591.379 59.102 C -598.723 204.154 -548.304 295.094 -440.127 331.923 C -277.859 387.167 62.724 409.264 250.9 529.102 C 439.07 648.938 823.102 556.296 810.149 350.62 C 797.197 144.943 795.955 -172.072 110.081 -172.072 C -347.172 -172.072 -580.988 -95.015 -591.377 59.102 L -591.379 59.102 Z" fill-rule="nonzero" style="position: relative; z-index: 3; fill: rgb(255, 162, 188);"/>
  <path d="M -557.499 48.946 C -571.197 184.739 -528.273 269.875 -428.734 304.353 C -279.421 356.071 38.383 376.757 208.911 488.946 C 379.433 601.133 743.31 514.405 740.858 321.856 C 738.407 129.308 752.155 -167.472 110.061 -167.472 C -318.006 -167.472 -540.522 -95.334 -557.497 48.946 L -557.499 48.946 Z" fill-rule="nonzero" style="position: relative; z-index: 4; fill: rgb(255, 148, 178);"/>
  <path d="M -522.99 38.791 C -541.913 165.325 -505.777 244.656 -414.588 276.783 C -277.802 324.975 17.396 344.251 171.209 448.791 C 325.017 553.328 668.017 472.513 674.465 293.093 C 680.913 113.673 707.185 -162.872 108.87 -162.872 C -290.011 -162.872 -500.627 -95.652 -522.988 38.791 L -522.99 38.791 Z" fill-rule="nonzero" style="position: relative; z-index: 5; fill: rgb(249, 142, 172);"/>
  <path d="M -487.893 28.635 C -510.984 145.91 -480.973 219.437 -397.867 249.213 C -273.204 293.879 -0.452 311.744 137.518 408.635 C 275.484 505.523 596.934 430.622 610.784 264.33 C 624.634 98.038 661.119 -158.272 106.583 -158.272 C -263.111 -158.272 -461.266 -95.971 -487.891 28.635 L -487.893 28.635 Z" fill-rule="nonzero" style="position: relative; z-index: 6; fill: rgb(249, 129, 162);"/>
  <path d="M -452.242 18.479 C -478.506 126.496 -453.997 194.218 -378.72 221.644 C -265.802 262.783 -15.345 279.238 107.606 368.479 C 230.552 457.719 529.815 388.73 549.656 235.567 C 569.497 82.403 614.021 -153.672 103.265 -153.672 C -237.243 -153.672 -422.408 -96.289 -452.24 18.479 L -452.242 18.479 Z" fill-rule="nonzero" style="position: relative; z-index: 7; fill: rgb(250, 118, 155);"/>
  <path d="M -416.065 8.323 C -444.559 107.082 -424.959 168.998 -357.272 194.074 C -255.739 231.686 -27.432 246.731 81.278 328.323 C 189.984 409.914 466.458 346.838 490.951 206.803 C 515.445 66.768 565.945 -149.072 98.967 -149.072 C -212.354 -149.072 -384.028 -96.608 -416.064 8.323 L -416.065 8.323 Z" fill-rule="nonzero" style="position: relative; z-index: 8; fill: rgb(254, 106, 147);"/>
  <path d="M -379.386 -1.833 C -409.206 87.667 -393.951 143.779 -333.625 166.504 C -243.134 200.59 -36.84 214.225 58.376 288.167 C 153.588 362.109 406.695 304.947 434.562 178.04 C 462.429 51.133 516.933 -144.472 93.735 -144.472 C -188.4 -144.472 -346.104 -96.926 -379.384 -1.833 L -379.386 -1.833 Z" fill-rule="nonzero" style="position: relative; z-index: 9; fill: rgb(255, 98, 142);"/>
  <path d="M -342.223 -11.988 C -372.503 68.253 -361.048 118.56 -307.862 138.934 C -228.081 169.494 -43.668 181.718 38.77 248.012 C 121.205 314.304 350.392 263.055 380.401 149.277 C 410.41 35.498 467.021 -139.872 87.602 -139.872 C -165.347 -139.872 -308.619 -97.245 -342.222 -11.988 L -342.223 -11.988 Z" fill-rule="nonzero" style="position: relative; z-index: 10; fill: rgb(255, 89, 136);"/>
  <path d="M -304.592 -22.144 C -334.488 48.838 -326.305 93.341 -280.046 111.364 C -210.656 138.398 -47.995 149.212 22.36 207.856 C 92.713 266.499 297.443 221.164 328.401 120.513 C 359.358 19.863 416.236 -135.272 80.596 -135.272 C -143.166 -135.272 -271.56 -97.563 -304.591 -22.144 L -304.592 -22.144 Z" fill-rule="nonzero" style="position: relative; z-index: 11; fill: rgb(255, 73, 124);"/>
</svg>